SplineFontDB: 3.0
FontName: Nobile-BoldItalic
FullName: Nobile Bold Italic
FamilyName: Nobile
Weight: Bold
Copyright: Copyright (c) 2010 by vernon adams. All rights reserved.
Version: 1.000;PS 001.000;hotconv 1.0.38
ItalicAngle: -12
UnderlinePosition: -292
UnderlineWidth: 40
Ascent: 1638
Descent: 410
sfntRevision: 0x00010000
LayerCount: 2
Layer: 0 0 "Back"  1
Layer: 1 0 "Fore"  0
XUID: [1021 14 500265001 716031]
FSType: 0
OS2Version: 2
OS2_WeightWidthSlopeOnly: 0
OS2_UseTypoMetrics: 1
CreationTime: 1291284929
ModificationTime: 1342941321
PfmFamily: 17
TTFWeight: 700
TTFWidth: 5
LineGap: 68
VLineGap: 0
Panose: 2 0 3 3 0 0 0 0 0 0
OS2TypoAscent: 1668
OS2TypoAOffset: 0
OS2TypoDescent: -411
OS2TypoDOffset: 0
OS2TypoLinegap: 134
OS2WinAscent: 2420
OS2WinAOffset: 0
OS2WinDescent: 632
OS2WinDOffset: 0
HheadAscent: 2420
HheadAOffset: 0
HheadDescent: -632
HheadDOffset: 0
OS2SubXSize: 1331
OS2SubYSize: 1433
OS2SubXOff: 0
OS2SubYOff: 286
OS2SupXSize: 1331
OS2SupYSize: 1433
OS2SupXOff: 0
OS2SupYOff: 983
OS2StrikeYSize: 102
OS2StrikeYPos: 512
OS2Vendor: 'pyrs'
OS2CodePages: 00000007.00000000
OS2UnicodeRanges: 80000267.0000000a.00000000.00000000
Lookup: 4 0 1 "'liga' Standard Ligatures in Latin lookup 0"  {"'liga' Standard Ligatures in Latin lookup 0 subtable"  } ['liga' ('latn' <'dflt' > ) ]
Lookup: 258 0 0 "'kern' Horizontal Kerning in Latin lookup 0"  {"'kern' Horizontal Kerning in Latin lookup 0 per glyph data 0"  "'kern' Horizontal Kerning in Latin lookup 0 kerning class 1"  } ['kern' ('latn' <'dflt' > ) ]
MarkAttachClasses: 1
DEI: 91125
KernClass2: 148+ 118 "'kern' Horizontal Kerning in Latin lookup 0 kerning class 1" 
 3 bar
 10 exclamdown
 10 registered
 12 questiondown
 9 trademark
 9 ampersand
 73 A Agrave Aacute Acircumflex Atilde Adieresis Aring Amacron Abreve Aogonek
 9 B uni1E02
 47 C Ccedilla Cacute Ccircumflex Cdotaccent Ccaron
 27 D Eth Dcaron Dcroat uni1E0A
 77 E AE Egrave Eacute Ecircumflex Edieresis Emacron Edotaccent Eogonek Ecaron OE
 9 F uni1E1E

StartChar: .notdef
Encoding: 65536 -1 0
Width: 761
Flags: HW
LayerCount: 2
Fore
SplineSet
87 0 m 1
 283 1402 l 1
 863 1402 l 1
 667 0 l 1
 87 0 l 1
261 123 m 1
 525 123 l 1
 687 1279 l 1
 421 1279 l 1
 261 123 l 1
EndSplineSet
EndChar

StartChar: exclam
Encoding: 33 33 4
Width: 679
Flags: HW
LayerCount: 2
Fore
SplineSet
676 1603 m 1
 412 546 l 1
 223 546 l 1
 235 1603 l 1
 676 1603 l 1
458 -1 m 1
 60 -1 l 1
 119 421 l 1
 518 421 l 1
 458 -1 l 1
EndSplineSet
EndChar

StartChar: quotedbl
Encoding: 34 34 5
Width: 954
Flags: HW
LayerCount: 2
Fore
SplineSet
213 1605 m 1
 578 1605 l 1
 389 809 l 1
 206 809 l 1
 213 1605 l 1
643 1605 m 1
 1009 1605 l 1
 820 809 l 1
 670 809 l 1
 643 1605 l 1
EndSplineSet
EndChar

StartChar: numbersign
Encoding: 35 35 6
Width: 1084
Flags: HW
LayerCount: 2
Fore
SplineSet
599 548 m 1
 415 548 l 1
 353 277 l 1
 174 277 l 1
 235 548 l 1
 90 548 l 1
 105 690 l 1
 265 690 l 1
 317 909 l 1
 157 909 l 1
 174 1051 l 1
 351 1051 l 1
 413 1335 l 1
 589 1335 l 1
 527 1051 l 1
 714 1051 l 1
 774 1333 l 1
 953 1333 l 1
 891 1051 l 1
 1032 1051 l 1
 1015 909 l 1
 860 909 l 1
 808 690 l 1
 969 690 l 1
 952 548 l 1
 776 548 l 1
 717 277 l 1
 537 277 l 1
 599 548 l 1
447 690 m 1
 627 690 l 1
 678 909 l 1
 497 909 l 1
 447 690 l 1
EndSplineSet
EndChar

StartChar: dollar
Encoding: 36 36 7
Width: 1264
Flags: HW
LayerCount: 2
Fore
SplineSet
1162 503 m 0
 1162 153.451 902.991 -38 554 -38 c 1
 535 -154 l 1
 429 -154 l 1
 451 -25 l 1
 312 -10 187 33 88 85 c 1
 169 352 l 1
 239.5 303 444.633 241.491 497 238 c 1
 579 699 l 1
 390.297 787.329 145 848.8 145 1126 c 0
 145 1452.71 411.889 1590 736 1590 c 1
 765 1743 l 1
 866 1743 l 1
 836 1590 l 1
 986 1590 1100 1533 1203 1484 c 1
 1095 1218 l 1
 1040.5 1248 863.5 1323 790 1323 c 1
 728 967 l 1
 917.948 876.229 1162 805.904 1162 503 c 0
689 1329 m 1
 551 1329 448 1301 448 1162 c 0
 448 1069.29 556.57 1036.01 632 1007 c 1
 689 1329 l 1
601 232 m 1
 733 241 853 294 853 435 c 0
 853 582 780 614 674 660 c 1
 601 232 l 1
EndSplineSet
EndChar

StartChar: percent
Encoding: 37 37 8
Width: 1844
Flags: HW
LayerCount: 2
Fore
SplineSet
1232 335 m 0
 1232 238 1265 183 1355 183 c 0
 1516 183 1545 351 1545 514 c 256
 1545 609 1510 663 1415 663 c 0
 1260 663 1232 488 1232 335 c 0
349 1085 m 0
 349 985 385 928 477 928 c 0
 611 928 660 1059 660 1196 c 0
 660 1311 646 1414 531 1414 c 0
 381 1414 349 1260 349 1085 c 0
398 -11 m 1
 1299 1702 l 1
 1481 1606 l 1
 581 -107 l 1
 398 -11 l 1
1429 860 m 0
 1639 860 1746 734 1746 527 c 0
 1746 245.189 1636.43 -23 1356 -23 c 4
 1135 -23 1006 101 1006 317 c 0
 1006 613.107 1131.57 860 1429 860 c 0
544 1608 m 0
 761 1608 882 1483 882 1269 c 0
 882 975.816 751.543 729 457 729 c 0
 247 729 138 866 138 1071 c 0
 138 1353.7 260.093 1608 544 1608 c 0
EndSplineSet
EndChar

StartChar: ampersand
Encoding: 38 38 9
Width: 1603
Flags: HW
LayerCount: 2
Fore
SplineSet
902.053 1269.59 m 0
 902.053 1365.8 834.337 1404 737 1404 c 0
 616.631 1404 536.781 1351.23 536.781 1237.46 c 0
 536.781 1152.32 587.5 1080 666 1027 c 1
 778.655 1064.55 902.053 1119.68 902.053 1269.59 c 0
434 905 m 1
 354.741 984.259 266.404 1095.72 266.404 1253.6 c 0
 266.404 1485.89 499.628 1624 745 1624 c 0
 962.328 1624 1143.68 1533.98 1143.68 1320.62 c 0
 1143.68 1079.72 1002.73 902.214 822 835 c 1
 1108 540 l 1
 1135 661 1161 780 1186 902 c 1
 1444 896 l 1
 1421 695 1370 509 1299 354 c 1
 1523 129 l 1
 1370 -50 l 1
 1168 152 l 1
 1040.34 24.3384 865.079 -41 600 -41 c 0
 282.913 -41 36.7071 68.6815 36.7071 385.514 c 0
 36.7071 676.826 228.779 819.909 434 905 c 1
322.797 429.05 m 0
 322.797 279.718 422.846 208 627 208 c 0
 762.03 208 943.115 239.524 992 321 c 1
 603 721 l 1
 448.569 681.903 322.797 600.772 322.797 429.05 c 0
EndSplineSet
EndChar

StartChar: quotesingle
Encoding: 39 39 10
Width: 510
Flags: HW
LayerCount: 2
Fore
SplineSet
210 1604 m 1
 578 1604 l 1
 358 806 l 1
 210 806 l 1
 210 1604 l 1
EndSplineSet
EndChar

StartChar: parenleft
Encoding: 40 40 11
Width: 684
Flags: HW
LayerCount: 2
Fore
SplineSet
353 495 m 4
 353 239 424 38 541 -97 c 1
 367 -300 l 1
 183.381 -134.484 63 131.236 63 476 c 0
 63 1030.71 320.615 1462.88 645 1702 c 1
 761 1497 l 1
 526.748 1289.63 353 930.224 353 495 c 4
EndSplineSet
EndChar

StartChar: parenright
Encoding: 41 41 12
Width: 683
Flags: HW
LayerCount: 2
Fore
SplineSet
326 1702 m 1
 509 1532 630 1274 630 924 c 0
 630 369.295 371.494 -60.8018 47 -300 c 1
 -68 -97 l 1
 166.543 111.062 340 471.649 340 906 c 4
 340 1162 269 1358 153 1497 c 1
 326 1702 l 1
EndSplineSet
EndChar

StartChar: asterisk
Encoding: 42 42 13
Width: 988
Flags: HW
LayerCount: 2
Fore
SplineSet
605 1419 m 1
 754 1661 l 1
 914 1554 l 1
 744 1306 l 1
 1007 1306 l 1
 981 1118 l 1
 723 1118 l 1
 831 871 l 1
 640 766 l 1
 547 1012 l 1
 385 766 l 1
 225 871 l 1
 404 1119 l 1
 145 1119 l 1
 173 1307 l 1
 435 1307 l 1
 336 1554 l 1
 526 1660 l 1
 605 1419 l 1
EndSplineSet
EndChar

StartChar: plus
Encoding: 43 43 14
Width: 956
Flags: HW
LayerCount: 2
Fore
SplineSet
844 473 m 1
 577 473 l 1
 533 159 l 1
 273 159 l 1
 318 473 l 1
 52 473 l 1
 87 718 l 1
 352 718 l 1
 397 1032 l 1
 655 1032 l 1
 611 718 l 1
 879 718 l 1
 844 473 l 1
EndSplineSet
EndChar

StartChar: comma
Encoding: 44 44 15
Width: 656
Flags: HW
LayerCount: 2
Fore
SplineSet
28 -1 m 1
 87 421 l 1
 487 421 l 1
 426 1 l 1
 400 -186 288 -302 123 -345 c 1
 47 -224 l 1
 107.008 -202.569 203.244 -74.1731 213 -1 c 5
 28 -1 l 1
EndSplineSet
EndChar

StartChar: hyphen
Encoding: 45 45 16
Width: 1059
Flags: HW
LayerCount: 2
Fore
SplineSet
921 605 m 1
 120 605 l 1
 151 831 l 1
 954 831 l 1
 921 605 l 1
EndSplineSet
EndChar

StartChar: period
Encoding: 46 46 17
Width: 654
Flags: HW
LayerCount: 2
Fore
SplineSet
426 1 m 1
 28 -1 l 1
 87 421 l 1
 487 421 l 1
 426 1 l 1
EndSplineSet
EndChar

StartChar: slash
Encoding: 47 47 18
Width: 907
Flags: HW
LayerCount: 2
Fore
SplineSet
-66 -72 m 1
 774 1747 l 1
 1006 1641 l 1
 162 -190 l 1
 -66 -72 l 1
EndSplineSet
EndChar

StartChar: zero
Encoding: 48 48 19
Width: 1313
Flags: HW
LayerCount: 2
Fore
SplineSet
386 516 m 0
 386 353 439 225 604 225 c 0
 840.158 225 909 465.65 909 701 c 0
 909 870 844 975 686 975 c 0
 458 975 386 744 386 516 c 0
577 -28 m 0
 248 -28 87 175 87 504 c 0
 87 921.084 300.766 1228 714 1228 c 0
 1026.61 1228 1206 1052.79 1206 741 c 0
 1206 305.019 1010.35 -28 577 -28 c 0
EndSplineSet
EndChar

StartChar: one
Encoding: 49 49 20
Width: 752
Flags: HW
LayerCount: 2
Fore
SplineSet
193 0 m 1
 326 937 l 1
 162 880 l 1
 110 1110 l 1
 363 1203 l 1
 659 1203 l 1
 491 0 l 1
 193 0 l 1
EndSplineSet
EndChar

StartChar: two
Encoding: 50 50 21
Width: 1055
Flags: HW
LayerCount: 2
Fore
SplineSet
678 843 m 0
 678 939 625 960 529 960 c 1
 434.044 953.394 312.5 920.4 199 856 c 1
 149 1088 l 1
 244.5 1146.4 393.957 1213 586 1213 c 0
 802.307 1213 977 1124.92 977 908 c 0
 977 647.44 779.541 500.732 629 373 c 1
 493 261 l 1
 861 261 l 1
 825 0 l 1
 20 0 l 1
 48 213 l 1
 396 493 l 2
 485.639 565.123 678 692.323 678 843 c 0
EndSplineSet
EndChar

StartChar: three
Encoding: 51 51 22
Width: 1037
Flags: HW
LayerCount: 2
Fore
SplineSet
582 253 m 0
 582 394 474 434 320 436 c 1
 346 676 l 1
 489.932 676 629 711.356 629 848 c 0
 629 940 574 969 473 969 c 0
 367 969 269 929 194 897 c 1
 117 1121 l 1
 215 1170 331 1224 479 1224 c 0
 711.426 1224 909 1143.07 909 909 c 0
 909 726.809 822.962 587.409 677 557 c 1
 788.863 527.17 877 426.533 877 286 c 0
 877 -20.8171 656.118 -182 344 -182 c 0
 217 -182 103 -154 22 -109 c 1
 94 125 l 1
 155.749 94.1255 277.166 71 363 71 c 0
 497 71 582 125 582 253 c 0
EndSplineSet
EndChar

StartChar: four
Encoding: 52 52 23
Width: 1126
Flags: HW
LayerCount: 2
Fore
SplineSet
648 1179 m 1
 951 1175 l 1
 838 360 l 1
 1002 360 l 1
 967 110 l 1
 802 110 l 1
 772 -150 l 1
 490 -153 l 1
 528 110 l 1
 15 110 l 1
 15 356 l 1
 648 1179 l 1
327 358 m 1
 562 358 l 1
 651 805 l 1
 327 358 l 1
EndSplineSet
EndChar

StartChar: five
Encoding: 53 53 24
Width: 1075
Flags: HW
LayerCount: 2
Fore
SplineSet
473 499 m 0
 378 499 296 459 220 419 c 1
 107 541 l 1
 209 1190 l 1
 965 1190 l 1
 931 950 l 1
 429 950 l 1
 382 687 l 1
 400.349 723.699 499.124 740.27 548.406 740.27 c 0
 781.876 740.27 939 575.859 939 342 c 4
 939 10.9386 701.368 -188 370 -188 c 0
 253 -188 129 -157 -2 -96 c 1
 88 153 l 1
 159.108 114.812 259.181 67 366 67 c 0
 556 67 656 135 656 326 c 0
 656 441 589 499 473 499 c 0
EndSplineSet
EndChar

StartChar: six
Encoding: 54 54 25
Width: 1155
Flags: HW
LayerCount: 2
Fore
SplineSet
754 433 m 0
 754 541 694 616 586 616 c 0
 500 616 430 594 377 562 c 1
 354.231 493.694 339 415.957 339 322 c 0
 339 184 397 98 529 98 c 0
 701 98 754 263 754 433 c 0
1035 420 m 0
 1035 92.1224 834.812 -154 504 -154 c 0
 213.219 -154 44 47.8074 44 338 c 0
 44 894.976 436.156 1214.19 875 1332 c 1
 919 1075 l 1
 726 1034 563 928 466 789 c 1
 496.752 819.752 585.449 834 645 834 c 0
 892.734 834 1035 667.075 1035 420 c 0
EndSplineSet
EndChar

StartChar: seven
Encoding: 55 55 26
Width: 1008
Flags: HW
LayerCount: 2
Fore
SplineSet
963 1190 m 1
 1019 1013 l 1
 361 -221 l 1
 114 -88 l 1
 657 938 l 1
 138 938 l 1
 132 1190 l 1
 963 1190 l 1
EndSplineSet
EndChar

StartChar: eight
Encoding: 56 56 27
Width: 1214
Flags: HW
LayerCount: 2
Fore
SplineSet
799.182 927.637 m 0
 799.182 1026.85 744.639 1066 641 1066 c 0
 511.856 1066 446.826 997.171 446.826 872.332 c 0
 446.826 766.239 502.063 691.119 605 688 c 1
 736.886 689.94 799.182 796.266 799.182 927.637 c 0
357.853 231.958 m 0
 357.853 128.638 414.363 79 534 79 c 0
 673.75 79 748.449 153.214 748.449 294.626 c 0
 748.449 415.915 696.828 501.785 580 505 c 1
 435.616 501.098 357.853 377.278 357.853 231.958 c 0
378 589 m 1
 248.636 621.074 164.556 726.139 164.556 887.034 c 0
 164.556 1155.66 385.947 1294 661 1294 c 0
 892.42 1294 1086.04 1204.4 1086.04 975.532 c 0
 1086.04 770.405 966.288 627.605 799 589 c 1
 943.804 562.289 1036.92 436.745 1036.92 264.047 c 0
 1036.92 -13.8004 793.058 -167 506 -167 c 0
 257.809 -167 54.9517 -46.7026 54.9517 193.708 c 4
 54.9517 388.948 224.866 560.561 378 589 c 1
EndSplineSet
EndChar

StartChar: nine
Encoding: 57 57 28
Width: 1159
Flags: HW
LayerCount: 2
Fore
SplineSet
771.296 709.789 m 0
 771.296 873.263 708.88 959 583 959 c 0
 415 959 353 796 353 628 c 0
 353 508.943 426.481 442.502 544.93 442.502 c 0
 626.818 442.502 686.652 452.435 728 480 c 1
 745.436 506.39 771.296 614.799 771.296 709.789 c 0
70 625 m 0
 70 957.667 257.984 1212 591 1212 c 0
 906.165 1212 1065.72 1035.88 1065.72 719.293 c 0
 1065.72 166.59 732.66 -213.663 231 -274 c 1
 188 -16 l 1
 385 27 549 110 638 255 c 1
 591 234 538 223 481 223 c 0
 233.588 223 70 377.975 70 625 c 0
EndSplineSet
EndChar

StartChar: colon
Encoding: 58 58 29
Width: 687
Flags: HW
LayerCount: 2
Fore
SplineSet
156 737 m 1
 215 1159 l 1
 598 1159 l 1
 538 737 l 1
 156 737 l 1
70 0 m 1
 129 423 l 1
 512 423 l 1
 453 0 l 1
 70 0 l 1
EndSplineSet
EndChar

StartChar: semicolon
Encoding: 59 59 30
Width: 657
Flags: HW
LayerCount: 2
Fore
SplineSet
33 -1 m 1
 92 421 l 1
 480 421 l 1
 429 58 l 1
 403.93 -128.887 279 -289.074 128 -345 c 5
 50 -224 l 1
 107.843 -204.719 208.502 -70.6515 218 -1 c 1
 33 -1 l 1
135 737 m 1
 194 1159 l 1
 577 1159 l 1
 517 737 l 1
 135 737 l 1
EndSplineSet
EndChar

StartChar: less
Encoding: 60 60 31
Width: 930
Flags: HW
LayerCount: 2
Fore
SplineSet
836 877 m 1
 310 590 l 1
 754 291 l 1
 708 -37 l 1
 34 464 l 1
 68 706 l 1
 883 1206 l 1
 836 877 l 1
EndSplineSet
EndChar

StartChar: equal
Encoding: 61 61 32
Width: 1076
Flags: HW
LayerCount: 2
Fore
SplineSet
876 271 m 1
 81 271 l 1
 117 525 l 1
 912 525 l 1
 876 271 l 1
925 600 m 1
 130 600 l 1
 166 855 l 1
 961 855 l 1
 925 600 l 1
EndSplineSet
EndChar

StartChar: greater
Encoding: 62 62 33
Width: 935
Flags: HW
LayerCount: 2
Fore
SplineSet
158 896 m 1
 194 1206 l 1
 868 706 l 1
 845 484 l 1
 29 -17 l 1
 76 312 l 1
 561 609 l 1
 158 896 l 1
EndSplineSet
EndChar

StartChar: question
Encoding: 63 63 34
Width: 1044
Flags: HW
LayerCount: 2
Fore
SplineSet
627 1622 m 4
 881 1622 1065 1541 1065 1306 c 0
 1065 970.368 825.255 813.055 576 720 c 1
 548 521 l 1
 234 521 l 1
 271 835 l 1
 435.627 912.803 755 994.328 755 1230 c 0
 755 1344 647 1357 531 1357 c 0
 425 1357 328 1331 232 1304 c 1
 200 1541 l 1
 309.497 1591.93 472.263 1622 627 1622 c 4
545 -1 m 1
 147 -1 l 1
 206 421 l 1
 606 421 l 1
 545 -1 l 1
EndSplineSet
EndChar

StartChar: at
Encoding: 64 64 35
Width: 1726
Flags: HW
LayerCount: 2
Fore
SplineSet
663.693 677.49 m 0
 663.693 581.892 687.529 498 785 498 c 0
 959.865 498 1036.14 681.699 1076 819 c 2
 1134 1019 l 1
 1089 1034 1012 1038 957 1038 c 0
 793.994 1038 663.693 859.005 663.693 677.49 c 0
325.497 626.221 m 0
 325.497 306.932 520.799 168 840 168 c 0
 951 168 1027 196 1101 232 c 1
 1109 172 1125 99 1133 39 c 1
 1043 -13 926 -47 783 -47 c 0
 361.696 -47 77.5508 182.203 77.5508 601.019 c 0
 77.5508 1162.17 458.41 1599 1021 1599 c 0
 1426.91 1599 1690.87 1341.33 1690.87 935.93 c 0
 1690.87 617.51 1515.88 318 1201 318 c 0
 1109.35 318 1062.55 376.313 1062.55 470.962 c 0
 1062.55 510.974 1068.89 545.711 1077 583 c 1
 1014 438 956 305 755 305 c 0
 553.514 305 457.563 435.479 457.563 637.943 c 0
 457.563 955.018 670.378 1213 977 1213 c 0
 1132.12 1213 1318.68 1171.37 1318.68 1018.57 c 0
 1318.68 1007.86 1318.07 996.385 1317 984 c 1
 1189 509 l 1
 1371.29 545.651 1450.32 692.999 1450.32 908.878 c 0
 1450.32 1219.22 1286.31 1374 977 1374 c 0
 583.086 1374 325.497 1008.35 325.497 626.221 c 0
EndSplineSet
EndChar

StartChar: A
Encoding: 65 65 36
Width: 1332
Flags: HW
LayerCount: 2
Fore
SplineSet
749 1195 m 5
 476 554 l 5
 835 554 l 5
 749 1195 l 5
644 1606 m 5
 959 1606 l 5
 1241 0 l 5
 925 0 l 5
 866 397 l 5
 417 397 l 5
 240 0 l 5
 -91 0 l 5
 644 1606 l 5
EndSplineSet
EndChar

StartChar: B
Encoding: 66 66 37
Width: 1384
Flags: HW
LayerCount: 2
Fore
SplineSet
1012.08 1190.33 m 0
 1012.08 1341.86 869.784 1373 709 1373 c 2
 574 1373 l 1
 514 955 l 1
 662 955 l 2
 854.665 955 1012.08 1004.84 1012.08 1190.33 c 0
980 540 m 1
 980 710 836 731 661 731 c 2
 481 731 l 1
 410 233 l 1
 570 233 l 2
 815 233 977 299 980 540 c 1
1297.94 546.966 m 0
 1297.94 142.425 930.661 0 512 0 c 2
 58 0 l 1
 297 1606 l 1
 669 1606 l 2
 994.648 1606 1306.01 1550.81 1306.01 1236.45 c 0
 1305.19 1008.85 1180.81 907.331 977 870 c 1
 1143.05 834.064 1297.94 744.963 1297.94 546.966 c 0
EndSplineSet
EndChar

StartChar: C
Encoding: 67 67 38
Width: 1224
Flags: HW
LayerCount: 2
Fore
SplineSet
648 -38 m 0
 275 -38 100 187 100 565 c 0
 100 1150.53 314.682 1629 898 1629 c 0
 1075.72 1629 1224 1569.84 1297 1522 c 1
 1191 1265 l 1
 1103.62 1314.84 1025 1356 883 1356 c 4
 539.738 1356 419 950.617 419 595 c 0
 419 353 513 232 701 232 c 0
 841 232 955 290 1042 341 c 1
 1097 94 l 1
 993 12 835 -38 648 -38 c 0
EndSplineSet
EndChar

StartChar: D
Encoding: 68 68 39
Width: 1466
Flags: HW
LayerCount: 2
Fore
SplineSet
1088 1007 m 4
 1089 1217 1030 1373 835 1373 c 2
 586 1373 l 1
 413 230 l 1
 645 230 l 2
 1003.68 230 1084.59 645.973 1088 1007 c 4
859 1606 m 1
 1230 1612 1410 1398 1408 1024 c 1
 1403.01 461.894 1187.46 0 628 0 c 6
 60 0 l 1
 295 1606 l 1
 859 1606 l 1
EndSplineSet
EndChar

StartChar: E
Encoding: 69 69 40
Width: 1215
Flags: HW
LayerCount: 2
Fore
SplineSet
1029 0 m 1
 64 0 l 1
 291 1606 l 1
 1238 1606 l 1
 1203 1373 l 1
 571 1373 l 1
 511 955 l 1
 1076 955 l 1
 1045 729 l 1
 477 729 l 1
 404 229 l 1
 1073 229 l 1
 1029 0 l 1
EndSplineSet
EndChar

StartChar: F
Encoding: 70 70 41
Width: 1209
Flags: HW
LayerCount: 2
Fore
SplineSet
484 728 m 1
 373 0 l 1
 59 0 l 1
 296 1606 l 1
 1283 1606 l 1
 1246 1343 l 1
 571 1343 l 1
 517 955 l 1
 1137 955 l 1
 1103 728 l 1
 484 728 l 1
EndSplineSet
EndChar

StartChar: G
Encoding: 71 71 42
Width: 1432
Flags: HW
LayerCount: 2
Fore
SplineSet
414 589 m 0
 414 370 483 231 698 231 c 0
 810.483 231 947.779 285.402 1013 338 c 1
 1026.05 442.404 1044.28 546.172 1060 650 c 1
 756 650 l 1
 787 879 l 1
 1353 879 l 1
 1229 0 l 1
 1027 0 l 1
 1014 145 l 1
 948.603 44.3894 814.11 -38 650 -38 c 4
 281 -38 96 163 96 565 c 0
 96 1134 342.034 1629 895 1629 c 1
 1094 1625 1262 1568 1381 1487 c 1
 1274 1258 l 1
 1165.8 1303.9 1041.53 1356 876 1356 c 0
 525.473 1356 414 950.717 414 589 c 0
EndSplineSet
EndChar

StartChar: H
Encoding: 72 72 43
Width: 1520
Flags: HW
LayerCount: 2
Fore
SplineSet
953 0 m 1
 1062 724 l 1
 480 724 l 1
 373 0 l 1
 57 0 l 1
 297 1606 l 1
 612 1606 l 1
 514 951 l 1
 1093 951 l 1
 1193 1606 l 1
 1504 1606 l 1
 1264 0 l 1
 953 0 l 1
EndSplineSet
EndChar

StartChar: I
Encoding: 73 73 44
Width: 801
Flags: HW
LayerCount: 2
Fore
SplineSet
-13 152 m 1
 166 152 l 1
 371 1446 l 1
 193 1446 l 1
 222 1606 l 1
 884 1606 l 1
 856 1446 l 1
 675 1446 l 1
 470 152 l 1
 651 152 l 1
 622 0 l 1
 -38 0 l 1
 -13 152 l 1
EndSplineSet
EndChar

StartChar: J
Encoding: 74 74 45
Width: 749
Flags: HW
LayerCount: 2
Fore
SplineSet
-79 145 m 1
 164.455 186.288 242.908 261.43 275 509 c 1
 428 1606 l 1
 740 1606 l 1
 592 546 l 1
 538.576 154.795 394.632 -59.0815 -26 -88 c 5
 -79 145 l 1
EndSplineSet
EndChar

StartChar: K
Encoding: 75 75 46
Width: 1359
Flags: HW
LayerCount: 2
Fore
SplineSet
1115 1606 m 1
 1466 1606 l 1
 847 802 l 1
 901 696 l 1
 1296 0 l 1
 934 0 l 1
 550 696 l 1
 476 696 l 1
 380 0 l 1
 66 0 l 1
 290 1606 l 1
 604 1606 l 1
 509 920 l 1
 586 920 l 1
 1115 1606 l 1
EndSplineSet
EndChar

StartChar: L
Encoding: 76 76 47
Width: 1119
Flags: HW
LayerCount: 2
Fore
SplineSet
993 0 m 1
 65 0 l 1
 291 1606 l 1
 604 1606 l 1
 410 229 l 1
 1025 229 l 1
 993 0 l 1
EndSplineSet
EndChar

StartChar: M
Encoding: 77 77 48
Width: 1822
Flags: HW
LayerCount: 2
Fore
SplineSet
677 0 m 1
 514 1159 l 1
 348 0 l 1
 63 0 l 1
 298 1606 l 1
 685 1606 l 1
 862 310 l 1
 1398 1606 l 1
 1786 1606 l 1
 1574 0 l 1
 1287 0 l 1
 1451 1163 l 1
 969 0 l 1
 677 0 l 1
EndSplineSet
EndChar

StartChar: N
Encoding: 78 78 49
Width: 1568
Flags: HW
LayerCount: 2
Fore
SplineSet
1315 0 m 1
 986 0 l 1
 818 375 669 770 514 1158 c 1
 353 0 l 1
 61 0 l 1
 294 1606 l 1
 631 1606 l 1
 793 1225 947 836 1103 450 c 1
 1256 1606 l 1
 1549 1606 l 1
 1315 0 l 1
EndSplineSet
EndChar

StartChar: O
Encoding: 79 79 50
Width: 1478
Flags: HW
LayerCount: 2
Fore
SplineSet
1419 979 m 260
 1419 436.224 1175.71 -38 643 -38 c 0
 267 -38 98 212 98 591 c 0
 98 1141.65 347.088 1622.63 878 1629 c 1
 1249.77 1622.24 1419 1362.2 1419 979 c 260
1100 973 m 1
 1100 1196 1046 1358 840 1358 c 0
 519.356 1358 418 955.586 418 615 c 0
 418 360 506 232 681 232 c 0
 1004.91 232 1098.39 639.012 1100 973 c 1
EndSplineSet
EndChar

StartChar: P
Encoding: 80 80 51
Width: 1299
Flags: HW
LayerCount: 2
Fore
SplineSet
1025 1151 m 0
 1025 1338 863 1373 668 1373 c 2
 575 1373 l 1
 498 803 l 1
 562 803 l 2
 841 803 1025 890 1025 1151 c 0
704 1606 m 2
 1055 1606 1330 1529 1327 1185 c 1
 1321.38 712.847 1008.3 600 525 600 c 6
 460 600 l 1
 372 0 l 1
 58 0 l 1
 297 1606 l 1
 704 1606 l 2
EndSplineSet
EndChar

StartChar: Q
Encoding: 81 81 52
Width: 1486
Flags: HW
LayerCount: 2
Fore
SplineSet
420 568 m 1
 424 362 492 231 686 231 c 0
 1013.28 231 1113 621.03 1113 985 c 0
 1113 1232 1024 1356 846 1356 c 0
 513.953 1356 408.161 911.336 420 568 c 1
1429 1005 m 5
 1429 516.489 1241.18 121.603 862 6 c 1
 1117 -273 l 1
 941 -428 l 1
 582 -29 l 1
 263 12 96 214 96 578 c 0
 96 1127.51 332.54 1629 883 1629 c 0
 1257.34 1629 1425.65 1384.06 1429 1005 c 5
EndSplineSet
EndChar

StartChar: R
Encoding: 82 82 53
Width: 1409
Flags: HW
LayerCount: 2
Fore
SplineSet
598 909 m 2
 855 909 1060 965 1063 1196 c 0
 1066 1374 896 1373 713 1373 c 2
 580 1373 l 1
 511 909 l 1
 598 909 l 2
749.615 717 m 1
 660.41 717 571.205 717 482 717 c 5
 369 0 l 1
 56 0 l 1
 299 1606 l 1
 674 1606 l 2
 1048.17 1606 1365.92 1591.74 1361 1257 c 0
 1357.52 1016.58 1232.85 839.765 1035.66 787.085 c 1
 1174 0 l 1
 865 0 l 1
 749.615 717 l 1
EndSplineSet
EndChar

StartChar: S
Encoding: 83 83 54
Width: 1235
Flags: HW
LayerCount: 2
Fore
SplineSet
1156 1272 m 1
 1058.15 1320.92 904.46 1356 768 1356 c 0
 621.93 1356 450 1345.39 450 1201 c 0
 450 1076 582 1047 670 1008 c 2
 863 921 l 1
 1027 845 1139 731 1139 498 c 0
 1139 159.638 882.342 -38 538 -38 c 0
 409.01 -38 120.039 -36.0395 49 35 c 5
 100 320 l 1
 189.807 261.89 376.206 232 511 232 c 0
 723 232 829 311 829 469 c 0
 829 540 790 594 713 630 c 0
 588 689 462 746 340 809 c 1
 229 863 143 974 143 1137 c 0
 143 1463.01 403.01 1629 732 1629 c 0
 882.348 1629 1103.69 1619.54 1199 1556 c 1
 1156 1272 l 1
EndSplineSet
EndChar

StartChar: T
Encoding: 84 84 55
Width: 1177
Flags: HW
LayerCount: 2
Fore
SplineSet
1255 1372 m 1
 868 1372 l 1
 655 0 l 1
 346 0 l 1
 558 1372 l 1
 147 1372 l 1
 180 1606 l 1
 1289 1606 l 1
 1255 1372 l 1
EndSplineSet
EndChar

StartChar: U
Encoding: 85 85 56
Width: 1501
Flags: HW
LayerCount: 2
Fore
SplineSet
657 -38 m 0
 297 -38 142 149 142 515 c 0
 142 592 147 658 157 730 c 0
 197 1021 237 1305 278 1606 c 1
 593 1606 l 1
 550 1304 509 1018 468 725 c 1
 459 653 452 592 452 521 c 0
 452 326.657 499.654 221 692 221 c 1
 979.262 223.931 1018.2 468.352 1058 731 c 5
 1182 1606 l 1
 1495 1606 l 1
 1374 735 l 1
 1312 300 1147 -38 657 -38 c 0
EndSplineSet
EndChar

StartChar: V
Encoding: 86 86 57
Width: 1281
Flags: HW
LayerCount: 2
Fore
SplineSet
437 1606 m 1
 589 393 l 1
 1105 1606 l 1
 1412 1606 l 1
 720 0 l 1
 353 0 l 1
 144 1606 l 1
 437 1606 l 1
EndSplineSet
EndChar

StartChar: W
Encoding: 87 87 58
Width: 1922
Flags: HW
LayerCount: 2
Fore
SplineSet
905 1594 m 1
 1264 1594 l 1
 1327 413 l 1
 1702 1606 l 1
 2005 1606 l 1
 1459 0 l 1
 1094 0 l 1
 1041 1181 l 1
 646 0 l 1
 281 0 l 1
 190 1606 l 1
 488 1606 l 1
 543 413 l 1
 905 1594 l 1
EndSplineSet
EndChar

StartChar: X
Encoding: 88 88 59
Width: 1301
Flags: HW
LayerCount: 2
Fore
SplineSet
850 804 m 1
 1197 0 l 1
 844 0 l 1
 633 516 l 1
 272 0 l 1
 -80 0 l 1
 494 804 l 1
 145 1606 l 1
 500 1606 l 1
 709 1083 l 1
 1071 1606 l 1
 1426 1606 l 1
 850 804 l 1
EndSplineSet
EndChar

StartChar: Y
Encoding: 89 89 60
Width: 1240
Flags: HW
LayerCount: 2
Fore
SplineSet
649 910 m 1
 1048 1606 l 1
 1392 1606 l 1
 754 524 l 1
 683 0 l 1
 374 0 l 1
 445 527 l 1
 126 1606 l 1
 456 1606 l 1
 649 910 l 1
EndSplineSet
EndChar

StartChar: Z
Encoding: 90 90 61
Width: 1208
Flags: HW
LayerCount: 2
Fore
SplineSet
1259 1606 m 1
 1226 1378 l 1
 385 232 l 1
 1063 232 l 1
 1037 0 l 1
 -6 0 l 1
 27 246 l 1
 865 1372 l 1
 190 1372 l 1
 217 1606 l 1
 1259 1606 l 1
EndSplineSet
EndChar

StartChar: bracketleft
Encoding: 91 91 62
Width: 939
Flags: HW
LayerCount: 2
Fore
SplineSet
288 1565 m 1
 988 1565 l 1
 950 1309 l 1
 550 1309 l 1
 387 255 l 1
 787 255 l 1
 748 0 l 1
 47 0 l 1
 288 1565 l 1
EndSplineSet
EndChar

StartChar: backslash
Encoding: 92 92 63
Width: 1005
Flags: HW
LayerCount: 2
Fore
SplineSet
475 1703 m 1
 840 -102 l 1
 566 -152 l 1
 206 1654 l 1
 475 1703 l 1
EndSplineSet
EndChar

StartChar: bracketright
Encoding: 93 93 64
Width: 940
Flags: HW
LayerCount: 2
Fore
SplineSet
217 1565 m 1
 918 1565 l 1
 698 0 l 1
 -3 0 l 1
 32 255 l 1
 432 255 l 1
 580 1309 l 1
 181 1309 l 1
 217 1565 l 1
EndSplineSet
EndChar

StartChar: asciicircum
Encoding: 94 94 65
Width: 1859
Flags: HW
LayerCount: 2
Fore
SplineSet
917 1192 m 1
 1136 1192 l 1
 1323 552 l 1
 1080 552 l 1
 1003 873 l 1
 864 552 l 1
 607 552 l 1
 917 1192 l 1
EndSplineSet
EndChar

StartChar: underscore
Encoding: 95 95 66
Width: 1183
Flags: HW
LayerCount: 2
Fore
SplineSet
949 -101 m 1
 11 -101 l 1
 42 153 l 1
 980 153 l 1
 949 -101 l 1
EndSplineSet
EndChar

StartChar: grave
Encoding: 96 96 67
Width: 685
Flags: HW
LayerCount: 2
Fore
SplineSet
508 148 m 1
 315 148 l 1
 92 860 l 1
 481 860 l 1
 508 148 l 1
EndSplineSet
EndChar

StartChar: a
Encoding: 97 97 68
Width: 1173
Flags: HW
LayerCount: 2
Fore
SplineSet
392 -17 m 0
 142 -17 36 152 39 404 c 0
 42.3943 760.403 272.802 1145 629 1145 c 0
 826.865 1145 978.059 1080.89 1097 1006 c 1
 949 0 l 1
 728 0 l 1
 690 171 l 1
 644 65 544 -17 392 -17 c 0
778 904 m 1
 746 914 699 921 656 921 c 0
 458.311 921 346.524 641.718 345 436 c 4
 345 308 375 211 489 211 c 0
 580 211 646 242 686 293 c 1
 778 904 l 1
EndSplineSet
EndChar

StartChar: b
Encoding: 98 98 69
Width: 1182
Flags: HW
LayerCount: 2
Fore
SplineSet
476 999 m 1
 541 1082 641 1144 780 1145 c 1
 1013 1142 1101 953 1099 714 c 1
 1105.33 410.341 981.637 139.71 786 32 c 128
 727 0 658 -17 579 -17 c 0
 444 -17 343 52 328 170 c 1
 240 0 l 1
 29 0 l 1
 265 1624 l 1
 574 1667 l 1
 476 999 l 1
372 292 m 5
 397 241 465 213 548 213 c 0
 748.715 213 800 519.287 800 725 c 0
 800 832 779 916 680 916 c 0
 581 916 503 859 449 805 c 1
 422.797 634.68 397.532 462.87 372 292 c 5
EndSplineSet
EndChar

StartChar: c
Encoding: 99 99 70
Width: 983
Flags: HW
LayerCount: 2
Fore
SplineSet
827 88 m 1
 722 28 616 -14 455 -17 c 1
 250 -15 124 91 71 248 c 128
 -79.0537 692.159 257.371 1145 650 1145 c 4
 805 1145 895 1104 988 1043 c 1
 899 834 l 1
 853.969 875 750.85 916 666 916 c 0
 430.124 916 352 698.898 352 464 c 1
 348 297 420 213 568 213 c 0
 673.125 213 744.166 261.343 807 302 c 1
 827 88 l 1
EndSplineSet
EndChar

StartChar: d
Encoding: 100 100 71
Width: 1186
Flags: HW
LayerCount: 2
Fore
SplineSet
395 -17 m 0
 145 -17 51 158 51 408 c 1
 47.0017 765.177 201.418 1142.1 550 1145 c 5
 678 1144 759 1086 800 995 c 1
 891 1618 l 1
 1202 1668 l 1
 960 0 l 1
 742 0 l 1
 704 169 l 1
 654 63 550 -17 395 -17 c 0
775 820 m 1
 733 872 667 917 576 917 c 0
 411 917 383 697 364 551 c 1
 339 399 351 212 498 212 c 0
 590 212 658 243 699 294 c 1
 724 473 751 643 775 820 c 1
EndSplineSet
EndChar

StartChar: e
Encoding: 101 101 72
Width: 1091
Flags: HW
LayerCount: 2
Fore
SplineSet
393 653 m 1
 499 655 585 659 666 674 c 128
 717.465 683.357 782 692.701 782 745 c 0
 782 871.023 731.782 935.012 631.345 935.012 c 2
 629 935 l 2
 476 935 413 788 393 653 c 1
596 199 m 0
 720 199 810 238 889 292 c 1
 922 78 l 1
 797 15 669 -16 540 -17 c 1
 242.273 -14.4223 44 128.535 44 428 c 0
 44 826.457 267.422 1145.16 661.225 1145.16 c 0
 916.451 1145.16 1039 1001.08 1039 749 c 0
 1039 579.984 814.925 534.796 651 511 c 132
 575 500 482 494 371 493 c 1
 369 474 367 456 367 436 c 0
 367 289 449 199 596 199 c 0
EndSplineSet
EndChar

StartChar: f
Encoding: 102 102 73
Width: 755
Flags: HW
LayerCount: 2
Fore
SplineSet
833 1354 m 1
 799 1367 756 1379 706 1379 c 0
 599.406 1379 563.5 1243.95 548 1127 c 1
 798 1127 l 1
 775 973 l 1
 526 973 l 1
 390 0 l 1
 86 0 l 1
 222 973 l 1
 87 973 l 1
 111 1127 l 1
 244 1127 l 1
 281.439 1375.79 398.158 1631 679 1631 c 4
 750 1631 817 1611 873 1593 c 1
 833 1354 l 1
EndSplineSet
EndChar

StartChar: g
Encoding: 103 103 74
Width: 1174
Flags: HW
LayerCount: 2
Fore
SplineSet
516 569 m 1
 638 600 731 651 731 796 c 0
 731 885 681 930 581 930 c 0
 454.797 930 414 888.136 414 764 c 0
 414 694.148 474.354 599.077 516 569 c 1
475 -328 m 0
 622 -328 728 -303 728 -158 c 0
 728 -56.3774 621.777 -27.174 531 -10 c 2
 362 21 l 1
 305.932 -26.9129 200 -113.483 200 -209 c 4
 200 -323 353 -328 475 -328 c 0
315 500 m 1
 218.913 548.72 132.318 657.13 132.318 798.847 c 0
 132.318 1011.08 362.013 1145 589 1145 c 0
 718 1145 808 1125 859 1084 c 1
 942 1123 1027 1142 1116 1143 c 1
 1153 1147 1188 1150 1226 1153 c 1
 1199 928 l 1
 975 928 l 1
 988 892 1002 845 1002 796 c 0
 1000 597 901 506 760 440 c 128
 705 414 639 390 562 367 c 2
 363 308 l 2
 328 298 298 287 267 273 c 1
 354 244 465 225 562 206 c 0
 775.165 163.367 1013.97 97.6896 1021 -139 c 1
 1021 -438.069 759.339 -541 445 -541 c 0
 221.822 -541 -57 -490.811 -57 -283 c 0
 -57 -164 -27 -91 35 -34 c 1
 76 7 124 51 164 91 c 1
 164 91 31.4528 193.949 31.4528 267.115 c 0
 31.4528 392.023 129.116 443.653 234 472 c 1
 315 500 l 1
EndSplineSet
EndChar

StartChar: h
Encoding: 104 104 75
Width: 1210
Flags: HW
LayerCount: 2
Fore
SplineSet
790 758 m 0
 791 856 746 916 653 916 c 0
 559 916 501 880 454 833 c 1
 332 0 l 1
 30 0 l 1
 264 1623 l 1
 573 1679 l 1
 474 997 l 1
 546.489 1069.49 632.924 1145 784 1145 c 4
 1000 1145 1100 1027 1099 806 c 0
 1099 763 1095 727 1088 687 c 1
 989 0 l 1
 684 0 l 1
 785 698 l 2
 788 717 790 737 790 758 c 0
EndSplineSet
EndChar

StartChar: i
Encoding: 105 105 76
Width: 559
Flags: HW
LayerCount: 2
Fore
SplineSet
434 1670 m 4
 520 1670 576 1606 576 1520 c 0
 576 1406.34 492.53 1312 381 1312 c 0
 297 1312 237 1375 240 1461 c 1
 240 1571.11 324.827 1670 434 1670 c 4
333 0 m 1
 28 0 l 1
 192 1127 l 1
 497 1127 l 1
 333 0 l 1
EndSplineSet
EndChar

StartChar: j
Encoding: 106 106 77
Width: 561
Flags: HW
LayerCount: 2
Fore
SplineSet
404 1670 m 0
 489 1670 547 1605 547 1520 c 1
 560.426 1410.92 463.885 1312 356 1312 c 0
 271 1312 212 1375 212 1461 c 0
 212 1571.46 295.191 1670 404 1670 c 0
-159 -129 m 1
 -31.8162 -47.4365 44.15 35.1752 68 222 c 2
 188 1127 l 1
 494 1127 l 1
 371 202 l 1
 329.613 -76.4236 154.595 -294.714 -99 -357 c 5
 -159 -129 l 1
EndSplineSet
EndChar

StartChar: k
Encoding: 107 107 78
Width: 1134
Flags: HW
LayerCount: 2
Fore
SplineSet
389 408 m 1
 331 0 l 1
 28 0 l 1
 264 1623 l 1
 576 1667 l 1
 433 707 l 1
 824 1127 l 1
 1161 1127 l 1
 689 632 l 1
 1048 0 l 1
 726 0 l 1
 460 474 l 1
 389 408 l 1
EndSplineSet
EndChar

StartChar: l
Encoding: 108 108 79
Width: 558
Flags: HW
LayerCount: 2
Fore
SplineSet
575 1668 m 1
 332 0 l 1
 29 0 l 1
 265 1622 l 1
 575 1668 l 1
EndSplineSet
EndChar

StartChar: m
Encoding: 109 109 80
Width: 1740
Flags: HW
LayerCount: 2
Fore
SplineSet
1018 963 m 1
 1090 1077 1188 1145 1358 1145 c 0
 1557.16 1145 1628.97 1034.04 1629.09 832.579 c 0
 1629.09 811.863 1628.87 801.748 1626 774 c 128
 1599 517 1560 278 1521 0 c 1
 1217 0 l 1
 1257 281 1287 496 1324 754 c 128
 1326.9 777.221 1328 780.303 1328 795 c 0
 1328 876 1298 916 1237 916 c 0
 1153 916 1106 895 1053 849 c 1
 1048 812 1044 775 1037 739 c 1
 930 0 l 1
 627 0 l 1
 662 260 699 499 734 748 c 0
 736 769 739 788 739 810 c 0
 739 879 716 916 653 916 c 0
 558 916 494 872 450 817 c 1
 443 776 437 735 432 693 c 1
 332 0 l 1
 29 0 l 1
 191 1127 l 1
 421 1127 l 1
 457 972 l 1
 510.14 1058.96 615.59 1145 752 1145 c 0
 910 1145 984 1088 1018 963 c 1
EndSplineSet
EndChar

StartChar: n
Encoding: 110 110 81
Width: 1185
Flags: HW
LayerCount: 2
Fore
SplineSet
766 1145 m 4
 982 1144 1075 1037 1075 820 c 0
 1075 773 1069 732 1064 686 c 1
 1031 456 998 237 964 0 c 1
 659 0 l 1
 694 242 729 469 762 702 c 0
 766 732 768 757 768 778 c 0
 768 873 738 916 644 916 c 0
 564 916 495 875 453 831 c 1
 332 0 l 1
 28 0 l 1
 192 1127 l 1
 423 1127 l 1
 458 980 l 1
 519.072 1061.43 627.418 1145 766 1145 c 4
EndSplineSet
EndChar

StartChar: o
Encoding: 111 111 82
Width: 1165
Flags: HW
LayerCount: 2
Fore
SplineSet
488 -17 m 0
 192.864 -17 49.8503 154.584 49.8503 450.31 c 0
 49.8503 837.888 252.311 1145 645 1145 c 0
 939 1145 1079 977 1082 686 c 1
 1082 294.225 881.808 -17 488 -17 c 0
351.54 466.958 m 0
 351.54 321.227 381.318 211 519 211 c 0
 719.779 211 781.035 478.543 781.035 687.348 c 0
 781.035 824.704 744.56 916 615 916 c 0
 415.949 916 351.54 672 351.54 466.958 c 0
EndSplineSet
EndChar

StartChar: p
Encoding: 112 112 83
Width: 1200
Flags: HW
LayerCount: 2
Fore
SplineSet
1117.06 718.773 m 0
 1117.06 341.856 946.424 -17 575 -17 c 0
 460 -17 388 37 351 120 c 1
 272 -407 l 1
 -33 -410 l 1
 194 1127 l 1
 425 1127 l 1
 460 979 l 1
 521.232 1064.24 622.064 1145 764 1145 c 1
 1012.48 1142.04 1117.06 970.888 1117.06 718.773 c 0
378 309 m 1
 420 252 487 211 580 211 c 0
 769.598 211 812 517.916 812 708 c 1
 809 846 762 915 669 915 c 0
 586 915 515 888 456 833 c 1
 378 309 l 1
EndSplineSet
EndChar

StartChar: q
Encoding: 113 113 84
Width: 1181
Flags: HW
LayerCount: 2
Fore
SplineSet
671 117 m 1
 613 41 532 -17 409 -17 c 0
 154 -17 51 173 51 425 c 256
 51 797.634 207.575 1142.86 575 1145 c 1
 708 1144 769 1083 795 973 c 1
 859 1127 l 1
 1118 1127 l 1
 898 -409 l 1
 594 -411 l 1
 671 117 l 1
770 812 m 1
 741 870 680 916 593 916 c 0
 389.299 916 347 603.534 347 393 c 1
 349 272 390 211 469 211 c 0
 569 211 642 256 698 308 c 1
 770 812 l 1
EndSplineSet
EndChar

StartChar: r
Encoding: 114 114 85
Width: 769
Flags: HW
LayerCount: 2
Fore
SplineSet
765 877 m 1
 740 886 706 893 673 893 c 0
 581 891 508 848 448 804 c 1
 332 0 l 1
 29 0 l 1
 191 1127 l 1
 421 1127 l 1
 457 972 l 1
 525 1069 599 1138 754 1144 c 128
 772 1145 789 1145 806 1146 c 1
 765 877 l 1
EndSplineSet
EndChar

StartChar: s
Encoding: 115 115 86
Width: 961
Flags: HW
LayerCount: 2
Fore
SplineSet
391 215 m 0
 489 215 563 245 563 336 c 0
 563 395 524 414 473 436 c 2
 340 495 l 1
 218 548 93 610 93 778 c 1
 90.3667 1028.16 295.501 1145 547 1145 c 0
 692 1145 821 1103 915 1048 c 1
 829 840 l 1
 761.977 879.928 649.154 912 545 912 c 0
 457 912 367 903 367 820 c 0
 367 768 403 754 442 739 c 2
 568 689 l 1
 702.943 634.259 846.025 576.624 846.025 389.834 c 4
 846.025 123.918 645.258 -13.2249 381 -17 c 1
 219 -16 92 21 1 91 c 1
 87 302 l 1
 151.708 254.94 282.222 215 391 215 c 0
EndSplineSet
EndChar

StartChar: t
Encoding: 116 116 87
Width: 807
Flags: HW
LayerCount: 2
Fore
SplineSet
406 -17 m 1
 205 -15 121 109 121 320 c 0
 121 366 127 409 133 452 c 2
 210 975 l 1
 85 975 l 1
 107 1127 l 1
 241 1127 l 1
 297 1526 l 1
 606 1608 l 1
 534 1127 l 1
 794 1127 l 1
 771 975 l 1
 513 975 l 1
 424 363 l 2
 411 271 422 187 512 187 c 0
 578 187 634 214 677 236 c 1
 729 69 l 1
 645 27 536 -15 406 -17 c 1
EndSplineSet
EndChar

StartChar: u
Encoding: 117 117 88
Width: 1198
Flags: HW
LayerCount: 2
Fore
SplineSet
433 -17 m 0
 192.08 -17 80.9933 106.887 80.9933 346.767 c 0
 80.9933 390.305 85.8254 433.836 92 475 c 0
 122 687 157 920 186 1127 c 1
 491 1127 l 1
 459 902 426 664 394 438 c 0
 390.326 414.734 386.067 394.833 386.067 374.209 c 0
 386.067 280.238 431.016 215.623 520 211 c 1
 607 215 663 246 709 297 c 1
 830 1127 l 1
 1134 1127 l 1
 974 0 l 1
 759 0 l 1
 744 58 731 112 716 170 c 1
 666 73 579 -17 433 -17 c 0
EndSplineSet
EndChar

StartChar: v
Encoding: 118 118 89
Width: 1007
Flags: HW
LayerCount: 2
Fore
SplineSet
589 0 m 1
 236 0 l 1
 78 1127 l 1
 357 1127 l 1
 451 337 l 1
 745 1127 l 1
 1044 1127 l 1
 589 0 l 1
EndSplineSet
EndChar

StartChar: w
Encoding: 119 119 90
Width: 1448
Flags: HW
LayerCount: 2
Fore
SplineSet
773 0 m 1
 734 699 l 1
 500 0 l 1
 208 0 l 1
 108 1127 l 1
 378 1127 l 1
 419 383 l 1
 656 1127 l 1
 915 1127 l 1
 956 385 l 1
 1210 1127 l 1
 1465 1127 l 1
 1069 0 l 1
 773 0 l 1
EndSplineSet
EndChar

StartChar: x
Encoding: 120 120 91
Width: 1028
Flags: HW
LayerCount: 2
Fore
SplineSet
468 341 m 1
 249 0 l 1
 -59 0 l 1
 347 567 l 1
 85 1127 l 1
 398 1127 l 1
 531 804 l 1
 751 1127 l 1
 1059 1127 l 1
 652 567 l 1
 904 0 l 1
 601 0 l 1
 468 341 l 1
EndSplineSet
EndChar

StartChar: y
Encoding: 121 121 92
Width: 1042
Flags: HW
LayerCount: 2
Fore
SplineSet
-29 -238 m 1
 98.3676 -197.87 312.702 -135.358 321 14 c 5
 238 388 149 755 64 1127 c 1
 350 1127 l 1
 508 388 l 1
 788 1127 l 1
 1077 1127 l 1
 617 -21 l 1
 516.557 -279.974 328.7 -417.717 33 -482 c 1
 -29 -238 l 1
EndSplineSet
EndChar

StartChar: z
Encoding: 122 122 93
Width: 915
Flags: HW
LayerCount: 2
Fore
SplineSet
548 896 m 1
 124 896 l 1
 150 1127 l 1
 885 1127 l 1
 855 906 l 1
 329 228 l 1
 768 228 l 1
 745 0 l 1
 -11 0 l 1
 17 231 l 1
 548 896 l 1
EndSplineSet
EndChar

StartChar: braceleft
Encoding: 123 123 94
Width: 692
Flags: HW
LayerCount: 2
Fore
SplineSet
473 -214 m 1
 237 -214 116 -98 116 141 c 0
 116 234 133 319 136 410 c 128
 139 490 131 560 58 560 c 1
 83 752 l 1
 164 752 187 833 204 906 c 128
 213 944 221 990 228 1046 c 0
 264 1330 388 1526 703 1526 c 1
 679 1335 l 1
 630 1335 611 1330 589 1294 c 128
 576 1273 564 1240 553 1195 c 128
 542 1150 530 1085 519 1002 c 0
 505 891 477 807 426 744 c 128
 392 702 352 674 302 657 c 1
 391 619 434 535 435 407 c 0
 435 369 432 336 428 299 c 0
 415 192 413 116 423 73 c 1
 423 8 436 -23 499 -23 c 1
 473 -214 l 1
EndSplineSet
EndChar

StartChar: bar
Encoding: 124 124 95
Width: 677
Flags: HW
LayerCount: 2
Fore
SplineSet
212 -122 m 1
 223 1713 l 1
 502 1713 l 1
 492 -122 l 1
 212 -122 l 1
EndSplineSet
EndChar

StartChar: braceright
Encoding: 125 125 96
Width: 653
Flags: HW
LayerCount: 2
Fore
SplineSet
362 657 m 1
 282 691 242 763 242 881 c 0
 242 1004 276 1102 276 1226 c 0
 276 1297 264 1335 195 1335 c 1
 223 1526 l 1
 442 1526 543 1414 547 1193 c 1
 547 1085 519 973 519 867 c 1
 520 802 530 752 589 752 c 1
 562 560 l 1
 484 560 462 478 445 408 c 128
 436 370 427 323 419 266 c 0
 388 55 313 -109 148 -180 c 128
 95 -203 34 -214 -35 -214 c 1
 -7 -23 l 1
 80 -23 95 45 114 126 c 128
 125 171 136 232 148 310 c 0
 172 478 235 605 362 657 c 1
EndSplineSet
EndChar

StartChar: asciitilde
Encoding: 126 126 97
Width: 1032
Flags: HW
LayerCount: 2
Fore
SplineSet
624 369 m 0
 682 369 685 422 693 475 c 1
 895 475 l 1
 877 342 827 225 730 174 c 128
 701 159 670 151 636 151 c 0
 554 151 488 191 437 226 c 128
 409 245 383 262 360 278 c 128
 337 294 315 302 296 302 c 0
 240 302 231 241 223 176 c 1
 30 176 l 1
 61 399 148 511 290 511 c 0
 409 511 478 438 551 391 c 128
 574 376 598 369 624 369 c 0
EndSplineSet
EndChar

StartChar: exclamdown
Encoding: 161 161 98
Width: 652
Flags: HW
LayerCount: 2
Fore
SplineSet
518 1584 m 1
 540 1558 551 1528 551 1493 c 1
 555 1411 504 1354 448 1326 c 128
 427 1316 406 1309 384 1308 c 1
 317 1308 269 1341 242 1382 c 128
 232 1397 226 1413 223 1431 c 1
 223 1517 273 1575 330 1606 c 128
 351 1617 372 1624 393 1627 c 1
 440 1627 482 1613 518 1584 c 1
35 0 m 1
 261 1175 l 1
 450 1175 l 1
 475 0 l 1
 35 0 l 1
EndSplineSet
EndChar

StartChar: cent
Encoding: 162 162 99
Width: 1011
Flags: HW
LayerCount: 2
Fore
SplineSet
774 1132 m 1
 842 1116 901 1086 959 1051 c 1
 886 835 l 1
 856 870 790 892 737 904 c 1
 626 216 l 1
 707.706 224.01 767.527 261.32 823 295 c 5
 851 80 l 1
 770 37 687 3 589 -10 c 1
 558 -190 l 1
 439 -171 l 1
 465 -15 l 1
 201.748 -3.034 62.2496 179.76 51 446 c 1
 40.7726 844.868 255.514 1131.72 634 1148 c 128
 642 1148 649 1148 654 1147 c 1
 693 1377 l 1
 812 1359 l 1
 774 1132 l 1
617 916 m 1
 406 902 356 707 356 466 c 1
 361 335 410 256 504 227 c 1
 617 916 l 1
EndSplineSet
EndChar

StartChar: sterling
Encoding: 163 163 100
Width: 1079
Flags: HW
LayerCount: 2
Fore
SplineSet
443.784 899.788 m 0
 443.784 818.588 469.486 741.087 497 685 c 1
 897 685 l 1
 885 574 l 1
 503 574 l 1
 486 422 421 300 330 227 c 1
 902 227 l 1
 878 0 l 1
 60 0 l 1
 81 222 l 1
 162.493 319.265 239.106 408.84 257 575 c 1
 214 575 173 574 130 574 c 1
 142 681 l 1
 245 681 l 1
 204.332 752.17 169.168 834.349 169.168 931.365 c 0
 169.168 1196.17 374.458 1345 643 1345 c 0
 821.241 1345 950.513 1290.27 1043 1211 c 1
 902 997 l 1
 835.922 1039.95 770.911 1092 654 1092 c 0
 524.845 1092 443.784 1029.76 443.784 899.788 c 0
EndSplineSet
EndChar

StartChar: currency
Encoding: 164 164 101
Width: 1274
Flags: HW
LayerCount: 2
Fore
SplineSet
930.186 1038.5 m 4
 930.186 1161.49 844.76 1263 720 1263 c 0
 562.694 1263 437.729 1115.17 437.729 958.646 c 0
 437.729 834.567 522.432 738 648 738 c 0
 805.565 738 930.186 879.381 930.186 1038.5 c 4
305 746 m 1
 273.46 804.313 259.539 867.871 259.539 931.644 c 0
 259.539 1041.76 301.041 1152.51 365 1238 c 1
 197 1442 l 1
 334 1575 l 1
 501 1370 l 1
 579 1423 662 1450 749 1450 c 0
 830 1450 901 1426 962 1379 c 1
 1164 1575 l 1
 1273 1442 l 1
 1068 1245 l 1
 1094.3 1185.65 1106.32 1125.29 1106.32 1065.81 c 0
 1106.32 957.913 1066.75 852.892 1001 762 c 1
 1176 550 l 1
 1039 417 l 1
 864 631 l 1
 796 585 721 553 619 553 c 0
 541 553 473 574 414 616 c 1
 208 417 l 1
 100 550 l 1
 305 746 l 1
EndSplineSet
EndChar

StartChar: yen
Encoding: 165 165 102
Width: 1389
Flags: HW
LayerCount: 2
Fore
SplineSet
733 829 m 1
 1123 1606 l 1
 1466 1606 l 1
 992 782 l 1
 1190 782 l 1
 1175 659 l 1
 925 659 l 1
 855 527 l 1
 1158 527 l 1
 1142 404 l 1
 838 404 l 1
 788 0 l 1
 474 0 l 1
 524 404 l 1
 219 404 l 1
 235 527 l 1
 537 527 l 1
 501 659 l 1
 251 659 l 1
 266 782 l 1
 466 782 l 1
 198 1606 l 1
 538 1606 l 1
 733 829 l 1
EndSplineSet
EndChar

StartChar: brokenbar
Encoding: 166 166 103
Width: 589
Flags: HW
LayerCount: 2
Fore
SplineSet
50 -135 m 1
 145 619 l 1
 426 619 l 1
 332 -135 l 1
 50 -135 l 1
183 934 m 1
 308 1687 l 1
 559 1687 l 1
 465 934 l 1
 183 934 l 1
EndSplineSet
EndChar

StartChar: section
Encoding: 167 167 104
Width: 1066
Flags: HW
LayerCount: 2
Fore
SplineSet
345 1022 m 1
 236.566 1065.16 186.699 1138.02 186.699 1252.87 c 0
 186.699 1488.36 383.271 1606 622 1606 c 0
 799.131 1606 918.836 1522.3 1002 1451 c 1
 897 1251 l 1
 834.449 1307.65 721.09 1372 608 1372 c 0
 503.819 1372 419.923 1348.82 419.923 1259.73 c 0
 419.923 1208.68 473.298 1195.14 528 1173 c 2
 669 1116 l 2
 809.437 1059.83 966.08 999.679 966.08 816.132 c 0
 966.08 653.302 884.68 551.362 756 516 c 1
 855 470 906 393 910 284 c 1
 910 9 720 -107 443 -110 c 1
 278.773 -110 128.357 -49.2398 52 41 c 1
 160 252 l 1
 210.836 208.3 306.347 123 447 123 c 0
 563.218 123 664.175 156.382 664.175 265.064 c 0
 664.175 347.138 598.751 367.927 537 392 c 2
 391 447 l 1
 255.708 494.75 128.797 549.29 128.797 723.522 c 0
 128.797 884.058 215.6 991.839 345 1022 c 1
362.921 751.398 m 0
 362.921 685.045 415.741 655 530 655 c 0
 639.159 655 726.074 683.046 726.074 777.18 c 0
 726.074 859.85 652.517 872 555 872 c 0
 444.965 872 362.921 850.765 362.921 751.398 c 0
EndSplineSet
EndChar

StartChar: dieresis
Encoding: 168 168 105
Width: 1333
Flags: HW
LayerCount: 2
Fore
SplineSet
522 331 m 1
 511.255 233.099 441.026 148 335 148 c 0
 246.392 148 185.453 220.556 185.453 305.881 c 0
 185.453 411.935 266.911 509 373 509 c 0
 474.278 509 522 430.512 522 331 c 1
1123 330 m 1
 1112.3 233.72 1041.41 148 937 148 c 4
 846.64 148 787.149 219.617 787.149 305.609 c 0
 787.149 412.752 867.382 509 975 509 c 0
 1076.73 509 1123 430.007 1123 330 c 1
EndSplineSet
EndChar

StartChar: copyright
Encoding: 169 169 106
Width: 1810
Flags: HW
LayerCount: 2
Fore
SplineSet
858 149 m 0
 1258.11 149 1543.6 483.107 1543.6 881.893 c 0
 1543.6 1234.24 1342.23 1471 986 1471 c 0
 613.579 1471 302.927 1128.06 302.927 744.655 c 0
 302.927 402.677 509.654 149 858 149 c 0
1013 1686 m 0
 1480.69 1686 1764.46 1362.91 1764.46 905.103 c 0
 1764.46 366.911 1369.84 -65 827 -65 c 0
 375.738 -65 89.0187 259.435 89.0187 715.73 c 0
 89.0187 1248.08 489.25 1686 1013 1686 c 0
1233 1048 m 1
 1163.19 1089.25 1080.66 1128.61 965.907 1128.61 c 0
 762.877 1128.61 701.867 933.056 701.867 730.186 c 0
 701.867 580.422 750.6 490 902 490 c 1
 1023 490 1104 540 1189 583 c 1
 1167 370 l 1
 1079.24 326.119 1000.45 286 890 286 c 0
 604.31 286 482.428 458.269 482.428 741.693 c 0
 482.428 1066.97 665.855 1332 989 1332 c 0
 1094.92 1332 1193.23 1295.67 1256 1252 c 1
 1233 1048 l 1
EndSplineSet
EndChar

StartChar: ordfeminine
Encoding: 170 170 107
Width: 957
Flags: HW
LayerCount: 2
Fore
SplineSet
639 1640 m 0
 812 1640 911 1549 911 1373 c 0
 911 1327 904 1293 898 1242 c 128
 876 1060 851 887 823 686 c 1
 706 686 l 1
 682 812 l 1
 616 716 527 668 414 668 c 0
 246 668 131 750 131 913 c 0
 131 1127.9 315.471 1258 536 1258 c 0
 603 1258 666 1247 713 1228 c 1
 722 1298 729 1331 729 1390 c 0
 729 1463 700 1507 626 1507 c 0
 505.803 1507 415.595 1456.05 328 1406 c 1
 293 1532 l 1
 380 1590 499 1640 639 1640 c 0
331 942 m 0
 331 859 377 805 461 805 c 0
 553.767 805 609.494 861.324 669 913 c 1
 697 1124 l 1
 647 1132 611 1139 559 1139 c 0
 428.508 1139 331 1068.38 331 942 c 0
156 525 m 1
 792 525 l 1
 774 396 l 1
 138 396 l 1
 156 525 l 1
EndSplineSet
EndChar

StartChar: guillemotleft
Encoding: 171 171 108
Width: 1642
Flags: HW
LayerCount: 2
Fore
SplineSet
1553 875 m 1
 1072 585 l 1
 1491 292 l 1
 1455 -37 l 1
 765 464 l 1
 790 706 l 1
 1590 1206 l 1
 1553 875 l 1
810 875 m 1
 329 585 l 1
 747 292 l 1
 711 -37 l 1
 22 464 l 1
 47 706 l 1
 847 1206 l 1
 810 875 l 1
EndSplineSet
EndChar

StartChar: logicalnot
Encoding: 172 172 109
Width: 1533
Flags: HW
LayerCount: 2
Fore
SplineSet
127 977 m 1
 157 1184 l 1
 1429 1184 l 1
 1307 314 l 1
 1048 314 l 1
 1143 977 l 1
 127 977 l 1
EndSplineSet
EndChar

StartChar: uni00AD
Encoding: 173 173 110
Width: 1096
Flags: HW
LayerCount: 2
Fore
SplineSet
993 587 m 1
 88 587 l 1
 115 840 l 1
 1021 840 l 1
 993 587 l 1
EndSplineSet
EndChar

StartChar: registered
Encoding: 174 174 111
Width: 1205
Flags: HW
LayerCount: 2
Fore
SplineSet
641 1438 m 2
 770.512 1438 897.104 1418.63 897.104 1291.57 c 0
 897.104 1174.83 835.636 1129.35 736 1102 c 1
 860 853 l 1
 756 811 l 1
 632 1080 l 1
 599 1080 l 1
 572 834 l 1
 462 834 l 1
 527 1438 l 1
 641 1438 l 2
716 1557 m 0
 467.121 1557 248.76 1337.06 248.76 1085.05 c 0
 248.76 860.333 392.803 698 623 698 c 0
 890.66 698 1085.41 909.191 1085.41 1178.35 c 0
 1085.41 1403.05 939.521 1557 716 1557 c 0
787.117 1274.86 m 0
 787.117 1338.02 721.542 1341.05 654.918 1341.05 c 0
 646.901 1341.05 638.889 1341 631 1341 c 1
 612 1179 l 1
 655 1179 l 2
 732.916 1179 787.117 1199.87 787.117 1274.86 c 0
137.074 1076.66 m 0
 137.074 1405.3 418.179 1671 738 1671 c 0
 1012.88 1671 1199.83 1466.13 1199.83 1192.23 c 0
 1199.83 853.181 948.852 585 610 585 c 0
 322.845 585 137.074 796.229 137.074 1076.66 c 0
EndSplineSet
EndChar

StartChar: macron
Encoding: 175 175 112
Width: 974
Flags: HW
LayerCount: 2
Fore
SplineSet
812 0 m 1
 78 0 l 1
 105 255 l 1
 839 255 l 1
 812 0 l 1
EndSplineSet
EndChar

StartChar: degree
Encoding: 176 176 113
Width: 855
Flags: HW
LayerCount: 2
Fore
SplineSet
380 395 m 0
 269.404 395 173.2 303.933 173.2 194.595 c 0
 173.2 105.741 247.353 33 340 33 c 0
 451.156 33 544.728 122.39 544.728 232.672 c 0
 544.728 321.859 472.901 395 380 395 c 0
12.8885 177.608 m 4
 12.8885 383.325 191.787 544 396 544 c 0
 576.026 544 703.435 422.937 703.435 244.227 c 0
 703.435 41.3698 526.905 -116 325 -116 c 0
 149.425 -116 12.8885 3.71283 12.8885 177.608 c 4
EndSplineSet
EndChar

StartChar: plusminus
Encoding: 177 177 114
Width: 1036
Flags: HW
LayerCount: 2
Fore
SplineSet
818 3 m 1
 6 3 l 1
 33 231 l 1
 847 231 l 1
 818 3 l 1
923 639 m 1
 656 639 l 1
 616 324 l 1
 357 324 l 1
 397 639 l 1
 131 639 l 1
 161 883 l 1
 426 883 l 1
 466 1198 l 1
 725 1198 l 1
 686 883 l 1
 953 883 l 1
 923 639 l 1
EndSplineSet
EndChar

StartChar: uni00B2
Encoding: 178 178 115
Width: 884
Flags: HW
LayerCount: 2
Fore
SplineSet
549 1625 m 0
 738.665 1625 877.162 1544.23 877.162 1353.64 c 0
 877.162 1159.41 744.698 1058.8 633 962 c 1
 491 841 l 1
 796 841 l 1
 774 630 l 1
 115 630 l 1
 133 804 l 1
 232 885 326 957 426 1044 c 128
 510.69 1117.4 605.764 1173.01 629 1295 c 1
 629 1380 599 1419 512 1419 c 0
 410.093 1419 317.356 1367.53 243 1335 c 1
 197 1523 l 1
 291 1563 413 1625 549 1625 c 0
EndSplineSet
EndChar

StartChar: uni00B3
Encoding: 179 179 116
Width: 867
Flags: HW
LayerCount: 2
Fore
SplineSet
485 1626 m 0
 689.793 1626 836.216 1559.26 836.216 1355.4 c 0
 836.216 1213.07 761.059 1101.3 644 1079 c 1
 737 1054 806 968 809 855 c 1
 809 604.987 627.639 473 373 473 c 0
 268 473 170 492 108 533 c 1
 131 601 148 656 167 723 c 1
 232 701 307 678 388 678 c 0
 503 678 572 725 572 835 c 1
 567 947 481 978 355 980 c 1
 376 1176 l 1
 493.504 1176 608.165 1204.43 608.165 1315.08 c 0
 608.165 1391.36 564.404 1419 480 1419 c 0
 392 1419 312 1387 251 1360 c 1
 188 1542 l 1
 268 1582 362 1626 485 1626 c 0
EndSplineSet
EndChar

StartChar: acute
Encoding: 180 180 117
Width: 903
Flags: HW
LayerCount: 2
Fore
SplineSet
535 148 m 1
 337 148 l 1
 514 837 l 1
 894 837 l 1
 535 148 l 1
EndSplineSet
EndChar

StartChar: uni00B5
Encoding: 181 181 118
Width: 1278
Flags: HW
LayerCount: 2
Fore
SplineSet
224 1127 m 1
 529 1127 l 1
 432 438 l 2
 429 419 427 403 426 392 c 1
 426 287.602 457.728 216.209 558 211 c 1
 645 215 701 246 747 297 c 1
 868 1127 l 1
 1172 1127 l 1
 1012 0 l 1
 797 0 l 1
 782 58 769 112 754 170 c 1
 704 73 617 -17 471 -17 c 0
 382.028 -17 310.763 -0.103846 256.261 33.2909 c 1
 211 -290 l 1
 22 -270 l 1
 224 1127 l 1
EndSplineSet
EndChar

StartChar: paragraph
Encoding: 182 182 119
Width: 1373
Flags: HW
LayerCount: 2
Fore
SplineSet
140 1099 m 0
 140 1478 400 1606 775 1606 c 130
 1331 1606 l 1
 1107 0 l 1
 871 0 l 1
 1073 1454 l 1
 945 1454 l 1
 742 0 l 1
 503 0 l 1
 607 743 l 1
 341 743 140 832 140 1099 c 0
EndSplineSet
EndChar

StartChar: periodcentered
Encoding: 183 183 120
Width: 658
Flags: HW
LayerCount: 2
Fore
SplineSet
504 504 m 1
 106 502 l 1
 165 924 l 1
 565 924 l 1
 504 504 l 1
EndSplineSet
EndChar

StartChar: cedilla
Encoding: 184 184 121
Width: 399
Flags: HW
LayerCount: 2
Fore
SplineSet
268.135 -339.502 m 0
 268.135 -224.681 164.032 -195 35 -195 c 1
 84 73 l 1
 199 73 l 1
 184 12 171 -45 157 -105 c 1
 321.319 -105 445 -178.744 445 -347 c 1
 429 -523 332 -620 144 -620 c 0
 66 -620 0 -598 -47 -567 c 1
 -50 -561 l 1
 -36 -428 l 1
 5 -449 54 -472 120 -472 c 0
 220.887 -472 268.135 -440.005 268.135 -339.502 c 0
EndSplineSet
EndChar

StartChar: uni00B9
Encoding: 185 185 122
Width: 598
Flags: HW
LayerCount: 2
Fore
SplineSet
229 635 m 1
 339 1407 l 1
 203 1357 l 1
 161 1545 l 1
 365 1621 l 1
 608 1621 l 1
 471 635 l 1
 229 635 l 1
EndSplineSet
EndChar

StartChar: ordmasculine
Encoding: 186 186 123
Width: 998
Flags: HW
LayerCount: 2
Fore
SplineSet
503 670 m 256
 277 670 169 818 169 1045 c 0
 169 1358.54 323.477 1638 639 1638 c 0
 866 1638 974 1485 974 1258 c 0
 974 946.224 817.669 670 503 670 c 256
798 1253 m 0
 798 1389.69 750.105 1519 619 1519 c 0
 422.176 1519 336 1278.81 336 1069 c 0
 336 928.512 386.016 795 522 795 c 0
 721.598 795 798 1040.17 798 1253 c 0
166 515 m 1
 802 515 l 1
 784 386 l 1
 147 386 l 1
 166 515 l 1
EndSplineSet
EndChar

StartChar: guillemotright
Encoding: 187 187 124
Width: 1644
Flags: HW
LayerCount: 2
Fore
SplineSet
879 875 m 1
 925 1198 l 1
 1600 697 l 1
 1565 464 l 1
 752 -37 l 1
 797 292 l 1
 1300 590 l 1
 879 875 l 1
137 875 m 1
 182 1198 l 1
 857 697 l 1
 823 464 l 1
 9 -37 l 1
 54 292 l 1
 556 590 l 1
 137 875 l 1
EndSplineSet
EndChar

StartChar: onequarter
Encoding: 188 188 125
Width: 1863
Flags: HW
LayerCount: 2
Fore
SplineSet
327 -30 m 1
 1237 1551 l 1
 1432 1465 l 1
 513 -110 l 1
 327 -30 l 1
1501 1033 m 1
 1684 982 l 1
 1595 293 l 1
 1728 293 l 1
 1702 92 l 1
 1568 92 l 1
 1538 -138 l 1
 1316 -140 l 1
 1346 92 l 1
 910 92 l 1
 908 250 l 1
 1501 1033 l 1
1183 291 m 1
 1371 291 l 1
 1417 618 l 1
 1183 291 l 1
237 434 m 1
 333 1174 l 1
 202 1117 l 1
 158 1301 l 1
 440 1413 l 1
 600 1374 l 1
 478 434 l 1
 237 434 l 1
EndSplineSet
EndChar

StartChar: onehalf
Encoding: 189 189 126
Width: 1968
Flags: HW
LayerCount: 2
Fore
SplineSet
324 -30 m 1
 1234 1551 l 1
 1429 1465 l 1
 511 -110 l 1
 324 -30 l 1
236 434 m 1
 333 1174 l 1
 202 1117 l 1
 158 1301 l 1
 440 1413 l 1
 600 1374 l 1
 477 434 l 1
 236 434 l 1
1564 955 m 0
 1744.81 955 1879.2 883.314 1879.2 701.749 c 0
 1879.2 508.166 1740.63 398.996 1630 306 c 2
 1498 195 l 1
 1792 195 l 1
 1766 -16 l 1
 1116 -16 l 1
 1137 157 l 1
 1417 382 l 1
 1497.39 448.355 1631.13 521.499 1631.13 651.772 c 0
 1631.13 717.164 1595.01 749 1521 749 c 0
 1419 749 1324 698 1250 667 c 1
 1213 857 l 1
 1296.84 897 1418.6 955 1564 955 c 0
EndSplineSet
EndChar

StartChar: threequarters
Encoding: 190 190 127
Width: 916
Flags: HW
LayerCount: 2
Fore
SplineSet
612 1142 m 1
 733 1116 834 1047 834 897 c 0
 834 650.613 614.087 540 370 540 c 0
 245 540 150 576 69 618 c 1
 145 745 l 1
 217 707 300 672 411 672 c 0
 556.65 672 671 754.782 671 899 c 0
 671 1019 572 1058 447 1072 c 1
 473 1207 l 1
 615.226 1207 754 1275.82 754 1418 c 0
 754 1515 668 1541 557 1541 c 0
 465 1541 377 1515 312 1484 c 1
 289 1611 l 1
 354 1638 472.983 1677 588 1677 c 0
 752.155 1677 912 1616.31 912 1451 c 0
 912 1303 826 1217 724 1171 c 128
 691 1156 651 1142 612 1142 c 1
EndSplineSet
EndChar

StartChar: questiondown
Encoding: 191 191 128
Width: 1045
Flags: HW
LayerCount: 2
Fore
SplineSet
331.77 380.509 m 0
 331.77 257.014 433.135 243 556 243 c 0
 662 243 758 269 854 296 c 1
 887 59 l 1
 777.168 7.91516 614.31 -23 459 -23 c 0
 192.741 -23 21.7331 63.541 21.7331 312.406 c 0
 21.7331 633.686 268.899 787.819 511 879 c 1
 538 1107 l 1
 851 1107 l 1
 816 765 l 1
 659.025 685.956 331.77 608.036 331.77 380.509 c 0
741 1505 m 1
 826 1505 889 1453 903 1381 c 1
 903 1276.05 826.69 1198.09 734 1186 c 1
 649 1186 584 1237 573 1311 c 1
 570.479 1415.6 649.061 1492.46 741 1505 c 1
EndSplineSet
EndChar

StartChar: AE
Encoding: 198 198 135
Width: 1798
Flags: HW
LayerCount: 2
Fore
SplineSet
1125 961 m 1
 1669 961 l 1
 1644 728 l 1
 1102 728 l 1
 1049 260 l 1
 1658 260 l 1
 1631 0 l 1
 741 0 l 1
 778 349 l 1
 411 349 l 1
 212 0 l 1
 -130 0 l 1
 830 1605 l 1
 1783 1605 l 1
 1754 1347 l 1
 1167 1347 l 1
 1125 961 l 1
801 571 m 1
 867 1119 l 1
 537 571 l 1
 801 571 l 1
EndSplineSet
EndChar

StartChar: Eth
Encoding: 208 208 145
Width: 1479
Flags: HW
LayerCount: 2
Fore
SplineSet
868 1607 m 2
 1237.72 1607 1420 1401.06 1419 1027 c 1
 1420 571.489 1278.64 227.327 979 74 c 128
 882 25 771 0 645 0 c 2
 89 0 l 1
 191 736 l 1
 90 736 l 1
 118 918 l 1
 217 918 l 1
 313 1607 l 1
 868 1607 l 2
1101 1009 m 1
 1101 1219 1040 1372 846 1372 c 2
 606 1372 l 1
 539 918 l 1
 787 918 l 1
 758 736 l 1
 514 736 l 1
 441 231 l 1
 661 231 l 2
 1017 231 1099.25 646.671 1101 1009 c 1
EndSplineSet
EndChar

StartChar: multiply
Encoding: 215 215 152
Width: 1217
Flags: HW
LayerCount: 2
Fore
SplineSet
767 547 m 1
 1050 158 l 1
 832 -5 l 1
 570 355 l 1
 209 5 l 1
 15 197 l 1
 408 577 l 1
 118 976 l 1
 336 1140 l 1
 605 769 l 1
 997 1149 l 1
 1190 957 l 1
 767 547 l 1
EndSplineSet
EndChar

StartChar: Oslash
Encoding: 216 216 153
Width: 1486
Flags: HW
LayerCount: 2
Fore
SplineSet
633 216 m 1
 651 211 672 211 696 211 c 0
 1035.85 211 1143.84 583.57 1143.84 931.198 c 0
 1143.84 1091.45 1119.42 1222.21 1043 1302 c 1
 633 216 l 1
392 26 m 1
 193.387 131.783 107.098 339.602 107.098 648.554 c 0
 107.098 1168.99 339.712 1627 856 1627 c 0
 908 1627 955 1625 993 1613 c 1
 1052 1769 l 1
 1197 1713 l 1
 1138 1557 l 1
 1330.89 1447.09 1417.9 1231.27 1417.9 922.157 c 0
 1417.9 407.221 1183.13 -38 673 -38 c 0
 630 -38 586 -34 542 -26 c 1
 485 -179 l 1
 336 -122 l 1
 392 26 l 1
903 1372 m 1
 882 1376 862 1379 838 1379 c 0
 511.41 1379 379.86 1001.14 379.86 663.525 c 0
 379.86 489.937 412.505 356.07 489 283 c 1
 903 1372 l 1
EndSplineSet
EndChar

StartChar: Thorn
Encoding: 222 222 159
Width: 1299
Flags: HW
LayerCount: 2
Fore
SplineSet
1305 1091 m 0
 1305 618 993 473 514 473 c 2
 446 473 l 1
 380 0 l 1
 67 0 l 1
 290 1608 l 1
 605 1608 l 1
 587 1481 l 1
 688 1481 l 1
 1025.21 1477.02 1305.02 1427.53 1305.02 1096.31 c 0
 1305.02 1094.55 1305.02 1092.78 1305 1091 c 0
997.201 1043.47 m 0
 997.201 1206.48 838.035 1221 658 1221 c 2
 550 1221 l 1
 482 735 l 1
 549 735 l 2
 823.021 735 997.201 775.567 997.201 1043.47 c 0
EndSplineSet
EndChar

StartChar: germandbls
Encoding: 223 223 160
Width: 1454
Flags: HW
LayerCount: 2
Fore
SplineSet
498 68 m 1
 800 85 1062 161 1062 476 c 0
 1062 687.059 834.207 724 592 724 c 1
 622 937 l 1
 853 937 1005 1006 1005 1218 c 0
 1005 1328 929 1383 778 1383 c 0
 571 1383 515 1206 494 1016 c 1
 351 0 l 1
 31 0 l 1
 173 1014 l 2
 225 1379 412 1622 812 1622 c 0
 1077.35 1622 1284.2 1507.54 1289 1253 c 1
 1282 986 1172 865 914 845 c 1
 1161 819 1363 743 1363 480 c 0
 1363 -14 1021 -186 544 -198 c 1
 498 68 l 1
EndSplineSet
EndChar

StartChar: ae
Encoding: 230 230 167
Width: 1741
Flags: HW
LayerCount: 2
Fore
SplineSet
1247 199 m 0
 1371 199 1460 238 1540 292 c 1
 1572 78 l 1
 1464 23 1340 -16 1191 -16 c 0
 1001 -16 889 41 808 150 c 1
 726.914 61.7589 554.125 -17 393 -17 c 0
 142 -17 40 153 40 404 c 0
 40 764.218 276.491 1145 632 1145 c 0
 786 1145 912 1102 1016 1053 c 1
 1103 1111 1193 1148 1329 1148 c 0
 1572 1148 1690 990 1690 749 c 0
 1690 513.973 1273.68 495.267 1022 493 c 1
 1020 474 1018 456 1018 436 c 0
 1018 289 1100 199 1247 199 c 0
866 885 m 1
 804 898 736 921 658 921 c 0
 457.988 921 347.514 638.954 346 430 c 1
 347 305 377 211 490 211 c 0
 586 211 691 238 745 283 c 1
 735 323 729 369 729 419 c 0
 729 612 783 769 866 885 c 1
1433 745 m 0
 1433 864 1391 932 1280 935 c 1
 1129 929 1065 792 1044 653 c 1
 1150 655 1235 659 1316 674 c 128
 1367.68 683.397 1433 692.451 1433 745 c 0
EndSplineSet
EndChar

StartChar: igrave
Encoding: 236 236 173
Width: 557
Flags: HW
LayerCount: 2
Fore
SplineSet
335 0 m 1
 33 0 l 1
 188 1129 l 1
 490 1129 l 1
 335 0 l 1
393 1254 m 1
 201 1251 l 1
 -21 1957 l 1
 366 1966 l 1
 393 1254 l 1
EndSplineSet
EndChar

StartChar: iacute
Encoding: 237 237 174
Width: 557
Flags: HW
LayerCount: 2
Fore
SplineSet
335 0 m 1
 33 0 l 1
 188 1129 l 1
 490 1129 l 1
 335 0 l 1
361 1248 m 1
 171 1250 l 1
 353 1939 l 1
 730 1930 l 1
 361 1248 l 1
EndSplineSet
EndChar

StartChar: idieresis
Encoding: 239 239 176
Width: 557
Flags: HW
LayerCount: 2
Fore
SplineSet
335 0 m 1
 33 0 l 1
 188 1129 l 1
 490 1129 l 1
 335 0 l 1
236 1406 m 1
 225.332 1308.8 153.783 1223 49 1223 c 0
 -39.6084 1223 -100.547 1295.56 -100.547 1380.88 c 0
 -100.547 1486.93 -19.0891 1584 87 1584 c 0
 188.278 1584 236 1505.51 236 1406 c 1
837 1405 m 1
 826.38 1309.42 754.17 1223 651 1223 c 0
 560.64 1223 501.149 1295.23 501.149 1381.49 c 0
 501.149 1488.89 581.154 1584 689 1584 c 0
 790.733 1584 837 1505.01 837 1405 c 1
EndSplineSet
EndChar

StartChar: eth
Encoding: 240 240 177
Width: 1151
Flags: HWO
LayerCount: 2
Fore
SplineSet
357.781 462.96 m 0
 357.781 307.945 405.326 214 511 214 c 0
 664.519 214 721.923 397.912 738 541 c 0
 747.363 630.615 756.041 720.367 766 810 c 1
 726 876 662 920 566 920 c 0
 383.599 920 357.781 642.724 357.781 462.96 c 0
925 1423 m 1
 1014.16 1261.4 1061.17 1068.53 1061.17 821.618 c 0
 1061.17 361.315 905.776 -16 449 -16 c 0
 168.203 -16 56.5605 183.574 56.5605 452.996 c 0
 56.5605 791.124 188.811 1149 524 1149 c 0
 654 1149 739 1092 786 1005 c 1
 780.262 1134.09 730.165 1222.49 669 1326 c 1
 498 1262 l 1
 438 1403 l 1
 581 1456 l 1
 539 1508 500 1555 450 1592 c 1
 597 1783 l 1
 688 1713 768 1639 836 1554 c 1
 1053 1635 l 1
 1110 1494 l 1
 925 1423 l 1
EndSplineSet
EndChar

StartChar: divide
Encoding: 247 247 184
Width: 718
Flags: HW
LayerCount: 2
Fore
SplineSet
172 737 m 1
 231 1159 l 1
 614 1159 l 1
 554 737 l 1
 172 737 l 1
86 0 m 1
 145 423 l 1
 528 423 l 1
 469 0 l 1
 86 0 l 1
EndSplineSet
EndChar

StartChar: oslash
Encoding: 248 248 185
Width: 1156
Flags: HW
LayerCount: 2
Fore
SplineSet
505 174 m 1
 507 173 510 173 514 173 c 0
 595 173 658 206 702 271 c 128
 746 336 775 433 790 562 c 1
 795 612 799 658 797 708 c 0
 794 800 773 866 735 905 c 1
 505 174 l 1
495 -17 m 0
 477 -17 461 -17 447 -15 c 1
 395 -181 l 1
 308 -153 l 1
 357 0 l 1
 116 56 22 268 56 574 c 128
 84 831 206 1027 415 1108 c 128
 474 1131 543 1142 622 1142 c 0
 656 1142 684 1139 716 1135 c 1
 787 1367 l 1
 869 1340 l 1
 799 1114 l 1
 976 1054 1063 903 1067 670 c 0
 1072 347 935 105 696 16 c 128
 638 -6 571 -17 495 -17 c 0
656 945 m 1
 635 949 618 951 605 951 c 0
 524 951 462 919 418 856 c 128
 333 735 245 294 418 196 c 1
 656 945 l 1
EndSplineSet
EndChar

StartChar: thorn
Encoding: 254 254 191
Width: 1148
Flags: HW
LayerCount: 2
Fore
SplineSet
467 1070 m 1
 529 1114 602 1147 699 1147 c 0
 959 1147 1065 956 1065 699 c 0
 1065 512 1014 353 941 231 c 128
 885 137 809 60 705 16 c 128
 654 -6 598 -16 535 -16 c 0
 440 -16 369 0 322 32 c 1
 259 -419 l 1
 -32 -451 l 1
 249 1550 l 1
 533 1550 l 1
 467 1070 l 1
367 314 m 1
 415 272 481 236 568 236 c 0
 700 236 743 402 764 514 c 128
 774 570 782 635 782 694 c 0
 783 827 742 893 660 893 c 0
 622 893 587 876 556 861 c 128
 514 840 471 813 434 785 c 1
 367 314 l 1
EndSplineSet
EndChar

StartChar: ldot
Encoding: 320 320 242
Width: 805
Flags: HW
LayerCount: 2
Fore
SplineSet
575 1668 m 1
 332 0 l 1
 29 0 l 1
 265 1622 l 1
 575 1668 l 1
751 1132 m 0
 842 1132 902 1063 902 972 c 0
 902 869 839 797 766 766 c 128
 743 756 719 751 694 751 c 0
 604 751 541 818 544 910 c 1
 544 1008 607 1081 674 1114 c 128
 699 1126 724 1132 751 1132 c 0
EndSplineSet
EndChar

StartChar: OE
Encoding: 338 338 255
Width: 2139
Flags: HW
LayerCount: 2
Fore
SplineSet
876 1627 m 0
 1030 1627 1160 1559 1196 1437 c 1
 1209 1606 l 1
 2156 1606 l 1
 2121 1373 l 1
 1490 1373 l 1
 1433 955 l 1
 1997 955 l 1
 1968 729 l 1
 1401 729 l 1
 1331 229 l 1
 2000 229 l 1
 1956 0 l 1
 992 0 l 1
 1011 121 l 1
 950 21 800 -38 644 -38 c 0
 266 -38 98 213 98 595 c 0
 98 1016 236 1329 482 1503 c 128
 584 1575 713 1627 876 1627 c 0
1099 970 m 1
 1099 1195 1046 1358 838 1358 c 0
 701 1358 607 1271 546 1174 c 128
 461 1040 418 847 418 618 c 0
 418 361 506 232 681 232 c 0
 834 232 927 334 987 443 c 128
 1060 576 1098 763 1099 970 c 1
EndSplineSet
EndChar

StartChar: oe
Encoding: 339 339 256
Width: 1729
Flags: HW
LayerCount: 2
Fore
SplineSet
976 948 m 1
 1050 1065 1159 1145 1343 1145 c 1
 1497 1143 1605 1079 1651 970 c 128
 1666 935 1673 898 1673 858 c 0
 1673 849 1672 842 1669 835 c 1
 1644 546 1373 460 1064 451 c 1
 1063 404 1069 364 1083 331 c 1
 1108 255 1167 206 1265 206 c 0
 1361 206 1449 237 1530 298 c 1
 1586 97 l 1
 1471 33 1344 -15 1186 -17 c 1
 1036 -14 906 49 871 168 c 1
 792 61 673 -12 499 -15 c 0
 442 -16 392 -11 347 1 c 1
 112 58 18 276 60 576 c 128
 96 832 220 1028 434 1110 c 128
 494 1133 565 1145 644 1145 c 0
 778 1145 885 1098 942 1022 c 128
 960 998 971 974 976 948 c 1
518 211 m 1
 620 213 682 290 718 366 c 128
 758 451 781 573 780 696 c 0
 778 829 741 915 614 915 c 0
 424 915 369 702 355 527 c 128
 342 361 362 213 518 211 c 1
1446 805 m 0
 1446 880 1408 927 1332 927 c 0
 1202 927 1133 826 1102 725 c 128
 1090 688 1084 651 1081 614 c 1
 1128 621 1183 621 1230 630 c 128
 1306 644 1380 671 1422 719 c 1
 1435 743 1446 771 1446 805 c 0
EndSplineSet
EndChar

StartChar: florin
Encoding: 402 402 297
Width: 750
Flags: HW
LayerCount: 2
Fore
SplineSet
697 1379 m 0
 616 1379 564 1293 542 1120 c 1
 791 1120 l 1
 770 967 l 1
 521 967 l 1
 448 406 l 2
 420 189 386 4 298 -132 c 128
 234 -230 147 -290 -3 -290 c 0
 -80 -290 -129 -246 -161 -203 c 1
 -120 -12 l 1
 -113 -19 -94 -25 -82 -30 c 128
 -53 -43 -18 -59 12 -70 c 128
 19 -73 23 -74 24 -74 c 0
 69 -74 83 -29 94 17 c 128
 118 115 127 219 142 346 c 2
 217 967 l 1
 83 967 l 1
 104 1120 l 1
 237 1120 l 1
 266 1330 346 1509 500 1592 c 128
 549 1618 605 1631 668 1631 c 0
 740 1631 806 1612 862 1593 c 1
 824 1354 l 1
 791 1371 748 1379 697 1379 c 0
EndSplineSet
EndChar

StartChar: circumflex
Encoding: 710 710 311
Width: 1159
Flags: HW
LayerCount: 2
Fore
SplineSet
553 790 m 1
 772 790 l 1
 943 151 l 1
 700 151 l 1
 631 470 l 1
 484 151 l 1
 228 151 l 1
 553 790 l 1
EndSplineSet
EndChar

StartChar: caron
Encoding: 711 711 312
Width: 1159
Flags: HW
LayerCount: 2
Fore
SplineSet
687 150 m 1
 468 150 l 1
 298 789 l 1
 541 789 l 1
 610 469 l 1
 757 789 l 1
 1013 789 l 1
 687 150 l 1
EndSplineSet
EndChar

StartChar: ring
Encoding: 730 730 313
Width: 876
Flags: HW
LayerCount: 2
Fore
SplineSet
460 658 m 0
 369 658 304 598 274 534 c 128
 218 416 303 299 421 299 c 0
 512 299 577 357 606 422 c 128
 659 539 576 658 460 658 c 0
122 318 m 128
 84 396 86 500 124 580 c 128
 167 670 241 740 334 779 c 128
 380 798 428 808 476 808 c 0
 615 808 711 733 757 638 c 128
 795 561 793 461 756 380 c 128
 714 289 642 218 549 178 c 128
 502 158 454 148 405 148 c 0
 267 148 168 223 122 318 c 128
EndSplineSet
EndChar

StartChar: tilde
Encoding: 732 732 314
Width: 1092
Flags: HW
LayerCount: 2
Fore
SplineSet
719 363 m 0
 780 363 778 413 787 468 c 1
 988 468 l 1
 974 333 928 219 832 168 c 128
 804 153 772 146 739 146 c 0
 655 146 588 187 536 222 c 128
 507 241 482 258 458 274 c 128
 434 290 412 297 392 297 c 256
 337 297 327 238 320 172 c 1
 129 172 l 1
 146 353 206 507 381 507 c 0
 463 507 521 470 570 435 c 128
 596 417 621 401 644 386 c 128
 667 371 692 363 719 363 c 0
EndSplineSet
EndChar

StartChar: acutecomb
Encoding: 769 769 315
Width: 1020
Flags: HW
LayerCount: 2
Fore
SplineSet
476 155 m 1
 721 766 l 1
 1012 675 l 1
 615 129 l 1
 476 155 l 1
EndSplineSet
EndChar

StartChar: uni0306
Encoding: 774 774 316
Width: 1249
Flags: HW
LayerCount: 2
Fore
SplineSet
702 243 m 0
 818 243 851 318 868 429 c 1
 1070 429 l 1
 1066 425 l 1
 1030 214 916 104 678 104 c 0
 484 104 369 181 386 380 c 128
 387 395 390 412 393 429 c 1
 597 429 l 1
 593 401 587 370 593 340 c 1
 599 271 625 243 702 243 c 0
EndSplineSet
EndChar

StartChar: afii10051
Encoding: 1026 1026 319
Width: 1608
Flags: HW
LayerCount: 2
Fore
SplineSet
827 -38 m 1
 850 -44 872 -49 904 -49 c 0
 1036 -49 1101 49 1121 170 c 2
 1214 765 l 2
 1234 887 1192 989 1071 989 c 0
 958 989 901 951 835 903 c 1
 702 0 l 1
 387 0 l 1
 591 1361 l 1
 142 1361 l 1
 182 1606 l 1
 1357 1606 l 1
 1318 1361 l 1
 906 1361 l 1
 861 1072 l 1
 925 1163 1065 1218 1221 1218 c 0
 1420 1218 1522 1114 1532 928 c 128
 1535 870 1532 808 1522 742 c 2
 1440 204 l 1
 1396 -72 1273 -280 980 -280 c 0
 899 -280 832 -269 778 -242 c 1
 827 -38 l 1
EndSplineSet
EndChar

StartChar: afii10053
Encoding: 1028 1028 321
Width: 1307
Flags: HW
LayerCount: 2
Fore
SplineSet
671 -38 m 1
 262 -23 67 218 90 658 c 128
 92 696 97 736 104 779 c 1
 158 1156 319 1446 620 1572 c 128
 715 1612 822 1632 940 1632 c 0
 1107 1632 1263 1599 1365 1535 c 0
 1374 1530 1384 1525 1394 1519 c 1
 1257 1266 l 1
 1164 1332 1070 1373 913 1373 c 1
 640 1367 542 1154 485 927 c 1
 1055 927 l 1
 1020 709 l 1
 447 709 l 1
 426 437 481 230 742 230 c 0
 865 230 988 267 1109 340 c 1
 1165 88 l 1
 1050 5 858 -26 671 -38 c 1
EndSplineSet
EndChar

StartChar: afii10058
Encoding: 1033 1033 326
Width: 2487
Flags: HW
LayerCount: 2
Fore
SplineSet
1579 0 m 1
 1140 0 l 1
 1356 1385 l 1
 792 1385 l 1
 702 832 l 2
 652 526 567 254 354 111 c 128
 244 37 103 -3 -82 -3 c 1
 -30 323 l 1
 278 323 301 568 346 838 c 1
 470 1606 l 1
 1748 1606 l 1
 1659 1034 l 1
 1730 1034 l 2
 2013 1034 2265 1001 2378 836 c 128
 2434 754 2445 621 2420 497 c 128
 2342 119 2049 -3 1593 -3 c 1
 1579 0 l 1
2068 539 m 1
 2073 559 2074 584 2071 606 c 1
 2060 783 1880 817 1691 817 c 2
 1620 817 l 1
 1526 217 l 1
 1627 217 l 2
 1894 217 2036 304 2068 539 c 1
EndSplineSet
EndChar

StartChar: afii10060
Encoding: 1035 1035 328
Width: 1594
Flags: HW
LayerCount: 2
Fore
SplineSet
1168 1032 m 2
 1402 1032 1529 884 1508 634 c 128
 1506 610 1502 585 1497 557 c 0
 1467 371 1437 192 1408 0 c 1
 1069 0 l 1
 1101 199 1130 386 1162 579 c 1
 1183 696 1141 803 1026 803 c 2
 796 803 l 1
 666 0 l 1
 310 0 l 1
 523 1358 l 1
 133 1358 l 1
 172 1606 l 1
 1358 1606 l 1
 1319 1358 l 1
 880 1358 l 1
 831 1032 l 1
 1168 1032 l 2
EndSplineSet
EndChar

StartChar: afii10062
Encoding: 1038 1038 331
Width: 1239
Flags: HW
LayerCount: 2
Fore
SplineSet
775 1792 m 0
 893 1792 924 1875 941 1979 c 1
 1144 1979 l 1
 1139 1974 l 1
 1104 1765 987 1655 752 1655 c 0
 558 1655 443 1731 460 1930 c 128
 461 1945 464 1962 467 1979 c 1
 670 1979 l 1
 668 1971 667 1963 666 1956 c 128
 665 1945 665 1945 664 1934 c 0
 657 1838 682 1792 775 1792 c 0
648 910 m 1
 1047 1606 l 1
 1391 1606 l 1
 753 524 l 1
 682 0 l 1
 373 0 l 1
 444 527 l 1
 125 1606 l 1
 455 1606 l 1
 648 910 l 1
EndSplineSet
EndChar

StartChar: afii10145
Encoding: 1039 1039 332
Width: 1653
Flags: HW
LayerCount: 2
Fore
SplineSet
1405 0 m 1
 915 0 l 1
 862 -372 l 1
 508 -372 l 1
 562 0 l 1
 65 0 l 1
 291 1606 l 1
 648 1606 l 1
 452 222 l 1
 1078 222 l 1
 1274 1606 l 1
 1630 1606 l 1
 1405 0 l 1
EndSplineSet
EndChar

StartChar: afii10018
Encoding: 1041 1041 334
Width: 1455
Flags: HW
LayerCount: 2
Fore
SplineSet
159 1357 m 1
 197 1606 l 1
 1388 1606 l 1
 1353 1357 l 1
 159 1357 l 1
684 1606 m 1
 597 1034 l 1
 733 1034 l 2
 948 1034 1116 984 1228 890 c 128
 1316 817 1379 710 1379 565 c 0
 1379 391 1303 268 1208 180 c 128
 1083 64 894 0 651 0 c 2
 128 0 l 1
 372 1606 l 1
 684 1606 l 1
1055 574 m 0
 1055 776 864 815 662 815 c 2
 563 815 l 1
 477 215 l 1
 617 215 l 2
 879 215 1055 311 1055 574 c 0
EndSplineSet
EndChar

StartChar: afii10020
Encoding: 1043 1043 336
Width: 1071
Flags: HW
LayerCount: 2
Fore
SplineSet
1194 1606 m 1
 1164 1387 l 1
 580 1387 l 1
 374 0 l 1
 57 0 l 1
 298 1606 l 1
 1194 1606 l 1
EndSplineSet
EndChar

StartChar: afii10021
Encoding: 1044 1044 337
Width: 1725
Flags: HW
LayerCount: 2
Fore
SplineSet
1454 216 m 1
 1573 216 l 1
 1499 -296 l 1
 1153 -296 l 1
 1195 0 l 1
 246 0 l 1
 203 -296 l 1
 -110 -296 l 1
 -39 217 l 1
 88 240 171 330 230 429 c 128
 354 636 400 933 440 1219 c 2
 495 1606 l 1
 1659 1606 l 1
 1454 216 l 1
1144 216 m 1
 1315 1386 l 1
 764 1386 l 1
 714 1029 l 1
 680 774 620 521 518 330 c 128
 495 287 470 249 441 216 c 1
 1144 216 l 1
EndSplineSet
EndChar

StartChar: afii10024
Encoding: 1046 1046 339
Width: 2172
Flags: HW
LayerCount: 2
Fore
SplineSet
935 696 m 1
 826 696 l 1
 222 0 l 1
 -130 0 l 1
 394 605 l 1
 477 697 547 789 691 811 c 1
 561 838 506 939 448 1045 c 1
 152 1606 l 1
 496 1606 l 1
 849 912 l 1
 965 912 l 1
 1070 1606 l 1
 1381 1606 l 1
 1277 912 l 1
 1393 912 l 1
 1941 1606 l 1
 2286 1606 l 1
 1828 1045 l 2
 1744 942 1670 841 1522 811 c 1
 1648 791 1702 700 1760 606 c 1
 2115 0 l 1
 1763 0 l 1
 1354 696 l 1
 1245 696 l 1
 1141 0 l 1
 830 0 l 1
 935 696 l 1
EndSplineSet
EndChar

StartChar: afii10025
Encoding: 1047 1047 340
Width: 1305
Flags: HW
LayerCount: 2
Fore
SplineSet
178 1515 m 1
 328 1580 513 1631 733 1631 c 0
 967 1631 1157 1589 1245 1444 c 128
 1274 1397 1288 1337 1288 1265 c 0
 1288 1081 1186 941 1070 867 c 128
 1027 840 982 823 934 818 c 1
 1038 804 1110 718 1146 630 c 128
 1161 593 1169 552 1169 506 c 0
 1169 94 835 -38 425 -38 c 0
 238 -38 85 7 -34 71 c 1
 79 327 l 1
 184 271 317 227 480 227 c 0
 641 227 771 280 826 382 c 128
 842 411 849 441 849 471 c 0
 849 541 810 590 764 623 c 128
 703 667 615 691 506 691 c 2
 288 691 l 1
 327 933 l 1
 567 933 l 2
 737 933 882 979 941 1084 c 128
 957 1112 965 1141 965 1170 c 0
 965 1271 887 1326 806 1352 c 128
 771 1363 730 1369 685 1369 c 0
 523 1369 370 1336 256 1293 c 128
 231 1284 219 1279 218 1279 c 2
 178 1515 l 1
EndSplineSet
EndChar

StartChar: afii10026
Encoding: 1048 1048 341
Width: 1654
Flags: HW
LayerCount: 2
Fore
SplineSet
58 0 m 1
 297 1606 l 1
 612 1606 l 1
 464 611 l 1
 1246 1606 l 1
 1638 1606 l 1
 1399 0 l 1
 1088 0 l 1
 1259 1157 l 1
 392 124 l 1
 374 0 l 1
 58 0 l 1
EndSplineSet
EndChar

StartChar: afii10028
Encoding: 1050 1050 343
Width: 1418
Flags: HW
LayerCount: 2
Fore
SplineSet
374 0 m 1
 58 0 l 1
 298 1606 l 1
 613 1606 l 1
 510 912 l 1
 748 912 l 1
 1163 1606 l 1
 1504 1606 l 1
 1150 1045 l 1
 1079 931 1018 840 870 811 c 1
 992 792 1025 709 1068 606 c 1
 1330 0 l 1
 986 0 l 1
 710 696 l 1
 477 696 l 1
 374 0 l 1
EndSplineSet
EndChar

StartChar: afii10029
Encoding: 1051 1051 344
Width: 1662
Flags: HW
LayerCount: 2
Fore
SplineSet
1407 0 m 1
 1096 0 l 1
 1302 1386 l 1
 731 1386 l 1
 649 838 l 1
 602 535 545 257 344 110 c 128
 241 35 104 -3 -77 -3 c 1
 -30 323 l 1
 105 335 200 370 251 462 c 128
 303 557 312 691 332 823 c 2
 449 1606 l 1
 1646 1606 l 1
 1407 0 l 1
EndSplineSet
EndChar

StartChar: afii10033
Encoding: 1055 1055 348
Width: 1565
Flags: HW
LayerCount: 2
Fore
SplineSet
1310 0 m 1
 999 0 l 1
 1205 1385 l 1
 579 1385 l 1
 373 0 l 1
 57 0 l 1
 297 1606 l 1
 1550 1606 l 1
 1310 0 l 1
EndSplineSet
EndChar

StartChar: afii10038
Encoding: 1060 1060 353
Width: 1752
Flags: HW
LayerCount: 2
Fore
SplineSet
991 347 m 1
 1002 347 l 2
 1219 347 1324 495 1379 659 c 128
 1406 740 1421 837 1421 941 c 0
 1421 1155 1330 1250 1126 1256 c 1
 991 347 l 1
813 1254 m 1
 795 1254 l 2
 481 1254 376 998 376 684 c 0
 376 471 475 351 679 347 c 1
 813 1254 l 1
929 -74 m 1
 614 -74 l 1
 640 91 l 1
 348 91 168 244 97 464 c 128
 74 536 62 611 62 690 c 0
 62 928 153 1112 266 1246 c 128
 354 1351 471 1432 617 1478 c 128
 689 1501 768 1512 853 1512 c 1
 877 1676 l 1
 1189 1676 l 1
 1164 1512 l 1
 1426 1512 1584 1385 1668 1206 c 128
 1706 1124 1730 1024 1730 910 c 0
 1730 673 1642 490 1530 356 c 128
 1443 252 1328 171 1184 125 c 128
 1113 102 1036 91 952 91 c 1
 929 -74 l 1
EndSplineSet
EndChar

StartChar: afii10040
Encoding: 1062 1062 355
Width: 1647
Flags: HW
LayerCount: 2
Fore
SplineSet
1505 157 m 1
 1429 -372 l 1
 1123 -372 l 1
 1176 0 l 1
 58 0 l 1
 298 1606 l 1
 613 1606 l 1
 406 222 l 1
 1052 222 l 1
 1260 1606 l 1
 1570 1606 l 1
 1353 157 l 1
 1505 157 l 1
EndSplineSet
EndChar

StartChar: afii10041
Encoding: 1063 1063 356
Width: 1287
Flags: HW
LayerCount: 2
Fore
SplineSet
801 536 m 1
 719 446 621 389 459 389 c 0
 183 389 76 577 126 864 c 1
 236 1606 l 1
 551 1606 l 1
 438 844 l 2
 420 726 465 617 581 617 c 0
 671 617 731 635 781 672 c 128
 796 683 811 694 826 706 c 1
 960 1606 l 1
 1271 1606 l 1
 1031 0 l 1
 720 0 l 1
 801 536 l 1
EndSplineSet
EndChar

StartChar: afii10042
Encoding: 1064 1064 357
Width: 2301
Flags: HW
LayerCount: 2
Fore
SplineSet
1245 222 m 1
 1768 222 l 1
 1974 1606 l 1
 2284 1606 l 1
 2046 0 l 1
 58 0 l 1
 298 1606 l 1
 613 1606 l 1
 407 222 l 1
 930 222 l 1
 1136 1606 l 1
 1451 1606 l 1
 1245 222 l 1
EndSplineSet
EndChar

StartChar: afii10043
Encoding: 1065 1065 358
Width: 2319
Flags: HW
LayerCount: 2
Fore
SplineSet
1833 20 m 1
 2144 20 l 1
 2097 -371 l 1
 1781 -371 l 1
 1833 20 l 1
1245 222 m 1
 1768 222 l 1
 1974 1606 l 1
 2284 1606 l 1
 2046 0 l 1
 58 0 l 1
 298 1606 l 1
 613 1606 l 1
 407 222 l 1
 930 222 l 1
 1136 1606 l 1
 1451 1606 l 1
 1245 222 l 1
EndSplineSet
EndChar

StartChar: afii10044
Encoding: 1066 1066 359
Width: 1589
Flags: HW
LayerCount: 2
Fore
SplineSet
791 1606 m 1
 539 1380 l 1
 149 1380 l 1
 185 1606 l 1
 791 1606 l 1
836 1606 m 1
 749 1034 l 1
 885 1034 l 2
 1100 1034 1268 984 1380 890 c 128
 1468 817 1531 710 1531 565 c 0
 1531 391 1455 268 1360 180 c 128
 1235 64 1046 0 803 0 c 2
 280 0 l 1
 524 1606 l 1
 836 1606 l 1
1207 574 m 0
 1207 776 1016 815 814 815 c 2
 715 815 l 1
 629 215 l 1
 769 215 l 2
 1031 215 1207 311 1207 574 c 0
EndSplineSet
EndChar

StartChar: afii10045
Encoding: 1067 1067 360
Width: 2009
Flags: HW
LayerCount: 2
Fore
SplineSet
1756 0 m 1
 1438 0 l 1
 1678 1606 l 1
 1991 1606 l 1
 1756 0 l 1
612 1606 m 1
 525 1034 l 1
 661 1034 l 2
 876 1034 1044 984 1156 890 c 128
 1244 817 1307 710 1307 565 c 0
 1307 391 1231 268 1136 180 c 128
 1011 64 822 0 579 0 c 2
 56 0 l 1
 300 1606 l 1
 612 1606 l 1
983 574 m 0
 983 776 792 815 590 815 c 2
 491 815 l 1
 405 215 l 1
 545 215 l 2
 807 215 983 311 983 574 c 0
EndSplineSet
EndChar

StartChar: afii10046
Encoding: 1068 1068 361
Width: 1365
Flags: HW
LayerCount: 2
Fore
SplineSet
612 1606 m 1
 525 1034 l 1
 661 1034 l 2
 876 1034 1044 984 1156 890 c 128
 1244 817 1307 710 1307 565 c 0
 1307 391 1231 268 1136 180 c 128
 1011 64 822 0 579 0 c 2
 56 0 l 1
 300 1606 l 1
 612 1606 l 1
983 574 m 0
 983 776 792 815 590 815 c 2
 491 815 l 1
 405 215 l 1
 545 215 l 2
 807 215 983 311 983 574 c 0
EndSplineSet
EndChar

StartChar: afii10047
Encoding: 1069 1069 362
Width: 1288
Flags: HW
LayerCount: 2
Fore
SplineSet
157 1519 m 1
 295 1588 453 1632 647 1632 c 0
 936 1632 1115 1485 1191 1268 c 128
 1218 1190 1232 1102 1232 1004 c 0
 1232 610 1115 295 897 115 c 128
 787 24 640 -38 445 -38 c 0
 299 -38 161 -8 62 40 c 128
 30 55 5 71 -12 88 c 1
 126 340 l 1
 225 267 335 230 458 230 c 0
 574 230 668 272 740 354 c 128
 812 436 861 554 889 707 c 1
 317 707 l 1
 351 928 l 1
 910 928 l 1
 913 957 914 988 914 1019 c 0
 914 1228 816 1373 605 1373 c 0
 448 1373 319 1324 212 1266 c 1
 157 1519 l 1
EndSplineSet
EndChar

StartChar: afii10048
Encoding: 1070 1070 363
Width: 2032
Flags: HW
LayerCount: 2
Fore
SplineSet
705 916 m 1
 672 702 l 1
 477 702 l 1
 373 0 l 1
 57 0 l 1
 297 1606 l 1
 612 1606 l 1
 509 916 l 1
 705 916 l 1
1972 979 m 256
 1972 561 1832 251 1584 82 c 128
 1482 13 1355 -38 1196 -38 c 0
 820 -38 651 212 651 591 c 0
 651 912 737 1173 878 1352 c 128
 999 1506 1181 1626 1431 1629 c 1
 1706 1624 1863 1479 1933 1262 c 128
 1959 1181 1972 1087 1972 979 c 256
1653 973 m 1
 1653 1196 1599 1358 1393 1358 c 0
 1256 1358 1161 1269 1100 1172 c 128
 1015 1037 971 845 971 615 c 0
 971 360 1059 232 1234 232 c 0
 1387 232 1481 335 1541 444 c 128
 1614 578 1652 766 1653 973 c 1
EndSplineSet
EndChar

StartChar: afii10049
Encoding: 1071 1071 364
Width: 1419
Flags: HW
LayerCount: 2
Fore
SplineSet
558 804 m 1
 338 814 204 903 204 1133 c 0
 204 1565 636 1602 1062 1606 c 1
 1408 1606 l 1
 1160 0 l 1
 848 0 l 1
 952 691 l 1
 820 691 l 2
 572 691 423 629 392 411 c 1
 329 0 l 1
 20 0 l 1
 73 387 l 1
 112 660 287 765 558 804 c 1
498 1114 m 0
 498 915 708 909 913 909 c 1
 927 907 l 1
 984 907 l 1
 1056 1382 l 1
 945 1382 l 2
 708 1382 498 1351 498 1114 c 0
EndSplineSet
EndChar

StartChar: afii10066
Encoding: 1073 1073 366
Width: 1244
Flags: HW
LayerCount: 2
Fore
SplineSet
422 452 m 0
 422 322 453 215 583 215 c 0
 642 215 684 256 713 294 c 128
 785 388 838 530 838 692 c 0
 838 796 811 905 709 905 c 0
 635 905 550 866 455 789 c 1
 443 680 422 572 422 452 c 0
459 1011 m 1
 544 1091 673 1146 835 1146 c 0
 1069 1146 1172 968 1172 735 c 0
 1172 526 1097 353 1006 226 c 128
 937 130 846 51 730 5 c 128
 674 -17 615 -28 550 -28 c 0
 288 -28 157 141 108 356 c 128
 91 431 82 509 82 592 c 0
 82 849 161 1062 268 1220 c 128
 347 1337 453 1431 592 1485 c 128
 659 1511 732 1524 812 1524 c 0
 883 1524 957 1507 997 1548 c 128
 1010 1562 1020 1584 1025 1616 c 1
 1323 1616 l 1
 1298 1441 1216 1350 1036 1338 c 128
 986 1335 933 1333 876 1333 c 0
 630 1333 521 1203 459 1011 c 1
EndSplineSet
EndChar

StartChar: afii10067
Encoding: 1074 1074 367
Width: 1098
Flags: HW
LayerCount: 2
Fore
SplineSet
460 256 m 2
 563 256 667 279 667 376 c 0
 667 413 646 441 605 460 c 128
 564 479 497 488 404 488 c 1
 371 256 l 1
 460 256 l 2
723 833 m 0
 723 915 620 926 530 926 c 2
 468 926 l 1
 436 706 l 1
 531 706 603 718 651 740 c 128
 699 762 723 793 723 833 c 0
753 597 m 1
 883 570 962 488 962 339 c 0
 962 147 818 62 654 24 c 128
 586 8 507 0 418 0 c 2
 28 0 l 1
 192 1127 l 1
 615 1127 l 2
 793 1127 942 1077 1002 964 c 128
 1019 933 1027 901 1027 868 c 0
 1027 699 903 622 753 597 c 1
EndSplineSet
EndChar

StartChar: afii10068
Encoding: 1075 1075 368
Width: 935
Flags: HW
LayerCount: 2
Fore
SplineSet
28 0 m 1
 192 1127 l 1
 971 1127 l 1
 936 877 l 1
 460 877 l 1
 333 0 l 1
 28 0 l 1
EndSplineSet
EndChar

StartChar: afii10069
Encoding: 1076 1076 369
Width: 1431
Flags: HW
LayerCount: 2
Fore
SplineSet
78 298 m 128
 230 404 275 617 338 814 c 128
 372 921 402 1012 439 1127 c 1
 1260 1127 l 1
 1133 254 l 1
 1315 254 l 1
 1242 -270 l 1
 992 -270 l 1
 1030 0 l 1
 208 0 l 1
 170 -270 l 1
 -94 -270 l 1
 -22 253 l 1
 14 262 47 277 78 298 c 128
917 877 m 1
 658 877 l 1
 575 571 l 2
 541 442 497 329 416 252 c 1
 827 252 l 1
 917 877 l 1
EndSplineSet
EndChar

StartChar: afii10072
Encoding: 1078 1078 371
Width: 1796
Flags: HW
LayerCount: 2
Fore
SplineSet
647 0 m 1
 713 456 l 1
 631 456 l 1
 293 0 l 1
 -84 0 l 1
 277 422 l 2
 341 497 427 538 529 568 c 1
 387 601 338 688 269 800 c 128
 203 907 143 1007 65 1127 c 1
 451 1127 l 1
 675 670 l 1
 745 670 l 1
 811 1127 l 1
 1114 1127 l 1
 1047 671 l 1
 1113 671 l 1
 1465 1127 l 1
 1851 1127 l 1
 1744 1001 1660 897 1564 789 c 128
 1505 723 1459 674 1394 630 c 128
 1346 598 1302 580 1235 568 c 1
 1322 540 1397 497 1441 422 c 2
 1685 0 l 1
 1309 0 l 1
 1096 456 l 1
 1016 456 l 1
 950 0 l 1
 647 0 l 1
EndSplineSet
EndChar

StartChar: afii10073
Encoding: 1079 1079 372
Width: 1017
Flags: HW
LayerCount: 2
Fore
SplineSet
81 344 m 1
 156 281 257 236 395 236 c 0
 468 236 528 261 558 303 c 128
 568 316 573 331 573 346 c 0
 573 388 538 412 502 428 c 128
 439 456 355 466 255 466 c 0
 238 466 238 466 222 466 c 128
 211 466 199 466 187 465 c 1
 221 645 l 1
 263 641 301 639 336 639 c 0
 462 639 581 660 630 730 c 128
 642 747 648 763 648 780 c 0
 648 858 557 892 476 892 c 0
 360 892 249 846 176 803 c 128
 157 792 148 785 148 784 c 2
 113 1027 l 1
 254 1101 396 1146 594 1146 c 0
 764 1146 885 1083 931 964 c 128
 944 930 951 895 951 859 c 0
 951 751 900 669 838 620 c 128
 814 601 788 588 759 579 c 1
 760 580 l 1
 759 580 l 1
 831 544 880 469 880 363 c 0
 880 254 830 167 766 108 c 128
 685 33 563 -17 404 -17 c 0
 217 -17 90 19 -24 103 c 1
 81 344 l 1
EndSplineSet
EndChar

StartChar: afii10074
Encoding: 1080 1080 373
Width: 1369
Flags: HW
LayerCount: 2
Fore
SplineSet
1143 0 m 1
 838 0 l 1
 941 716 l 1
 355 148 l 1
 333 0 l 1
 28 0 l 1
 192 1127 l 1
 497 1127 l 1
 411 538 l 1
 1003 1127 l 1
 1307 1127 l 1
 1143 0 l 1
EndSplineSet
EndChar

StartChar: afii10076
Encoding: 1082 1082 375
Width: 1288
Flags: HW
LayerCount: 2
Fore
SplineSet
497 1127 m 1
 435 703 l 1
 671 703 l 1
 938 1127 l 1
 1305 1127 l 1
 1053 764 l 2
 1022 720 961 681 913 654 c 128
 871 630 832 607 778 604 c 1
 819 592 863 585 896 562 c 128
 944 528 980 481 1007 414 c 2
 1170 0 l 1
 811 0 l 1
 653 470 l 1
 402 470 l 1
 333 0 l 1
 28 0 l 1
 192 1127 l 1
 497 1127 l 1
EndSplineSet
EndChar

StartChar: afii10077
Encoding: 1083 1083 376
Width: 1426
Flags: HW
LayerCount: 2
Fore
SplineSet
1200 0 m 1
 895 0 l 1
 1022 877 l 1
 722 877 l 1
 644 572 l 1
 588 349 506 166 318 75 c 128
 215 25 87 2 -71 2 c 1
 -25 328 l 1
 188 328 292 404 337 577 c 1
 478 1127 l 1
 1363 1127 l 1
 1200 0 l 1
EndSplineSet
EndChar

StartChar: afii10078
Encoding: 1084 1084 377
Width: 1734
Flags: HW
LayerCount: 2
Fore
SplineSet
1672 1127 m 1
 1508 0 l 1
 1204 0 l 1
 1310 739 l 1
 930 0 l 1
 594 0 l 1
 440 739 l 1
 333 0 l 1
 28 0 l 1
 192 1127 l 1
 633 1127 l 1
 805 337 l 1
 1196 1127 l 1
 1672 1127 l 1
EndSplineSet
EndChar

StartChar: afii10079
Encoding: 1085 1085 378
Width: 1319
Flags: HW
LayerCount: 2
Fore
SplineSet
434 699 m 1
 890 699 l 1
 953 1127 l 1
 1256 1127 l 1
 1094 0 l 1
 789 0 l 1
 853 448 l 1
 398 448 l 1
 333 0 l 1
 28 0 l 1
 192 1127 l 1
 497 1127 l 1
 434 699 l 1
EndSplineSet
EndChar

StartChar: afii10081
Encoding: 1087 1087 380
Width: 1310
Flags: HW
LayerCount: 2
Fore
SplineSet
1084 0 m 1
 777 0 l 1
 906 877 l 1
 461 877 l 1
 333 0 l 1
 28 0 l 1
 192 1127 l 1
 1248 1127 l 1
 1084 0 l 1
EndSplineSet
EndChar

StartChar: afii10084
Encoding: 1090 1090 383
Width: 1127
Flags: HW
LayerCount: 2
Fore
SplineSet
1124 877 m 1
 757 877 l 1
 629 0 l 1
 324 0 l 1
 452 877 l 1
 66 877 l 1
 101 1127 l 1
 1159 1127 l 1
 1124 877 l 1
EndSplineSet
EndChar

StartChar: afii10086
Encoding: 1092 1092 385
Width: 1422
Flags: HW
LayerCount: 2
Fore
SplineSet
572 1131 m 0
 590 1131 604 1128 621 1127 c 1
 635 1231 l 1
 941 1231 l 1
 927 1127 l 1
 939 1127 951 1131 963 1131 c 0
 1173 1131 1294 1007 1341 843 c 128
 1357 787 1365 729 1365 668 c 0
 1365 480 1302 328 1220 216 c 128
 1135 101 1007 0 813 0 c 0
 797 0 784 3 769 4 c 1
 751 -121 l 1
 445 -121 l 1
 463 4 l 1
 450 4 440 1 428 0 c 1
 161 0 19 164 19 427 c 0
 19 622 89 781 174 899 c 128
 236 986 318 1059 420 1101 c 128
 468 1121 519 1131 572 1131 c 0
589 877 m 1
 399 877 361 742 336 566 c 1
 312 400 323 254 498 254 c 1
 589 877 l 1
804 254 m 1
 989 254 1029 395 1054 566 c 0
 1060 611 1063 649 1063 682 c 0
 1063 813 1021 877 893 877 c 1
 804 254 l 1
EndSplineSet
EndChar

StartChar: afii10088
Encoding: 1094 1094 387
Width: 1364
Flags: HW
LayerCount: 2
Fore
SplineSet
192 1127 m 1
 497 1127 l 1
 370 252 l 1
 826 252 l 1
 954 1127 l 1
 1260 1127 l 1
 1106 80 l 1
 1217 80 l 1
 1137 -468 l 1
 831 -468 l 1
 900 0 l 1
 28 0 l 1
 192 1127 l 1
EndSplineSet
EndChar

StartChar: afii10089
Encoding: 1095 1095 388
Width: 1135
Flags: HW
LayerCount: 2
Fore
SplineSet
377 691 m 0
 377 602 413 553 503 553 c 0
 541 553 575 561 604 578 c 128
 633 595 665 617 698 646 c 1
 767 1127 l 1
 1072 1127 l 1
 909 0 l 1
 604 0 l 1
 673 480 l 1
 626 380 526 300 382 300 c 0
 232 300 143 391 100 506 c 128
 82 554 73 611 73 677 c 0
 73 712 76 751 82 793 c 2
 131 1127 l 1
 435 1127 l 1
 383 764 l 2
 379 738 377 714 377 691 c 0
EndSplineSet
EndChar

StartChar: afii10090
Encoding: 1096 1096 389
Width: 1692
Flags: HW
LayerCount: 2
Fore
SplineSet
192 1127 m 1
 497 1127 l 1
 370 251 l 1
 632 251 l 1
 759 1127 l 1
 1065 1127 l 1
 936 251 l 1
 1198 251 l 1
 1325 1127 l 1
 1630 1127 l 1
 1466 0 l 1
 28 0 l 1
 192 1127 l 1
EndSplineSet
EndChar

StartChar: afii10091
Encoding: 1097 1097 390
Width: 1812
Flags: HW
LayerCount: 2
Fore
SplineSet
1367 0 m 1
 1500 248 l 1
 1693 248 l 1
 1604 -391 l 1
 1312 -391 l 1
 1367 0 l 1
192 1127 m 1
 497 1127 l 1
 370 251 l 1
 632 251 l 1
 759 1127 l 1
 1065 1127 l 1
 936 251 l 1
 1198 251 l 1
 1325 1127 l 1
 1630 1127 l 1
 1466 0 l 1
 28 0 l 1
 192 1127 l 1
EndSplineSet
EndChar

StartChar: afii10092
Encoding: 1098 1098 391
Width: 1318
Flags: HW
LayerCount: 2
Fore
SplineSet
248 0 m 1
 375 877 l 1
 65 877 l 1
 100 1127 l 1
 716 1127 l 1
 672 832 l 1
 825 833 l 2
 1023 835 1157 733 1214 592 c 128
 1233 546 1242 498 1242 449 c 0
 1242 314 1175 211 1092 142 c 128
 983 51 821 0 614 0 c 2
 248 0 l 1
939 444 m 0
 939 544 862 593 758 593 c 2
 639 593 l 1
 588 236 l 1
 716 235 l 2
 821 235 893 295 924 370 c 128
 934 395 939 419 939 444 c 0
EndSplineSet
EndChar

StartChar: afii10093
Encoding: 1099 1099 392
Width: 1692
Flags: HW
LayerCount: 2
Fore
SplineSet
1166 0 m 1
 1325 1127 l 1
 1630 1127 l 1
 1466 0 l 1
 1166 0 l 1
192 1127 m 1
 496 1127 l 1
 452 832 l 1
 605 833 l 2
 803 835 937 733 994 592 c 128
 1013 546 1022 498 1022 449 c 0
 1022 314 955 211 872 142 c 128
 763 51 601 0 394 0 c 2
 28 0 l 1
 192 1127 l 1
719 444 m 0
 719 544 642 593 538 593 c 2
 419 593 l 1
 368 236 l 1
 496 235 l 2
 601 235 673 295 704 370 c 128
 714 395 719 419 719 444 c 0
EndSplineSet
EndChar

StartChar: afii10094
Encoding: 1100 1100 393
Width: 1099
Flags: HW
LayerCount: 2
Fore
SplineSet
191 1127 m 1
 498 1127 l 1
 454 832 l 1
 607 833 l 2
 805 835 939 733 996 592 c 128
 1015 546 1024 498 1024 449 c 0
 1024 314 957 211 874 142 c 128
 765 51 603 0 396 0 c 2
 30 0 l 1
 191 1127 l 1
721 444 m 0
 721 544 644 593 540 593 c 2
 421 593 l 1
 370 236 l 1
 498 235 l 2
 603 235 675 295 706 370 c 128
 716 395 721 419 721 444 c 0
EndSplineSet
EndChar

StartChar: afii10095
Encoding: 1101 1101 394
Width: 1050
Flags: HW
LayerCount: 2
Fore
SplineSet
108 1043 m 1
 239 1105 351 1144 536 1144 c 0
 761 1144 892 1012 945 839 c 128
 963 780 972 718 972 654 c 0
 972 461 902 310 812 200 c 128
 711 77 560 -17 339 -17 c 0
 177 -17 75 16 -30 75 c 1
 72 317 l 2
 73 317 78 312 90 304 c 128
 140 269 219 238 306 238 c 0
 443 238 534 264 591 344 c 128
 611 372 628 408 641 453 c 1
 326 453 l 1
 355 646 l 1
 674 646 l 1
 674 779 650 867 540 884 c 128
 510 889 475 891 434 891 c 0
 342 891 249 857 185 826 c 128
 164 816 149 808 142 801 c 1
 108 1043 l 1
EndSplineSet
EndChar

StartChar: afii10096
Encoding: 1102 1102 395
Width: 1698
Flags: HW
LayerCount: 2
Fore
SplineSet
843 471 m 0
 843 338 893 235 1026 235 c 0
 1127 235 1195 302 1239 368 c 128
 1284 437 1320 537 1320 644 c 0
 1320 782 1258 891 1121 891 c 0
 1025 891 960 821 920 755 c 128
 877 684 843 580 843 471 c 0
540 467 m 0
 540 477 541 486 541 496 c 1
 406 496 l 1
 335 0 l 1
 28 0 l 1
 192 1127 l 1
 497 1127 l 1
 442 747 l 1
 580 747 l 1
 652 928 786 1064 979 1117 c 128
 1035 1132 1092 1140 1150 1140 c 0
 1372 1140 1519 1033 1587 874 c 128
 1612 815 1625 746 1625 668 c 0
 1625 442 1537 278 1421 165 c 128
 1320 67 1180 -17 991 -17 c 0
 778 -17 643 95 578 250 c 128
 553 311 540 383 540 467 c 0
EndSplineSet
EndChar

StartChar: afii10097
Encoding: 1103 1103 396
Width: 1146
Flags: HW
LayerCount: 2
Fore
SplineSet
1083 1127 m 1
 920 0 l 1
 616 0 l 1
 668 371 l 1
 518 370 l 1
 312 0 l 1
 -23 0 l 1
 252 417 l 1
 158 478 73 579 75 728 c 128
 77 826 120 898 176 954 c 128
 296 1075 503 1127 749 1127 c 2
 1083 1127 l 1
569 609 m 0
 612 609 656 610 701 610 c 1
 742 885 l 1
 619 885 l 2
 517 885 429 856 394 792 c 128
 384 774 380 756 380 738 c 0
 380 647 475 609 569 609 c 0
EndSplineSet
EndChar

StartChar: afii10099
Encoding: 1106 1106 399
Width: 1206
Flags: HW
LayerCount: 2
Fore
SplineSet
784 1145 m 0
 1003 1145 1099 1030 1099 806 c 0
 1099 770 1095 735 1089 701 c 1
 1068 551 1047 405 1026 252 c 1
 991 28 918 -144 762 -249 c 128
 671 -310 556 -347 413 -362 c 1
 413 -110 l 1
 588 -84 675 10 707 183 c 1
 729 299 749 458 768 576 c 128
 777 630 784 682 789 733 c 0
 790 747 789 758 788 770 c 1
 788 862 741 916 653 916 c 0
 559 916 501 880 454 833 c 1
 332 0 l 1
 29 0 l 1
 216 1295 l 1
 87 1295 l 1
 109 1448 l 1
 239 1448 l 1
 263 1617 l 1
 572 1675 l 1
 539 1448 l 1
 819 1448 l 1
 797 1295 l 1
 517 1295 l 1
 473 997 l 1
 497 1021 528 1053 564 1078 c 128
 618 1114 692 1145 784 1145 c 0
EndSplineSet
EndChar

StartChar: afii10101
Encoding: 1108 1108 401
Width: 1033
Flags: HW
LayerCount: 2
Fore
SplineSet
697 1144 m 0
 699 1144 705 1145 707 1145 c 0
 853 1142 945 1103 1039 1047 c 1
 944 841 l 1
 933 858 899 876 875 889 c 128
 835 910 780 931 719 931 c 0
 554 931 446 841 395 660 c 1
 701 660 l 1
 671 477 l 1
 362 477 l 1
 361 452 361 429 362 407 c 0
 365 259 433 189 584 196 c 1
 669 196 753 228 812 257 c 128
 832 267 847 276 856 285 c 1
 883 78 l 1
 790 32 706 -7 584 -14 c 128
 554 -16 522 -17 488 -17 c 0
 278 -21 141 92 80 242 c 128
 -10 463 82 747 178 890 c 128
 279 1039 447 1144 697 1144 c 0
EndSplineSet
EndChar

StartChar: afii10106
Encoding: 1113 1113 406
Width: 1934
Flags: HW
LayerCount: 2
Fore
SplineSet
438 1127 m 1
 1332 1127 l 1
 1288 832 l 1
 1441 833 l 2
 1639 835 1773 733 1830 592 c 128
 1849 546 1858 498 1858 449 c 0
 1858 314 1791 211 1708 142 c 128
 1599 51 1437 0 1230 0 c 2
 864 0 l 1
 994 912 l 1
 690 912 l 1
 593 539 l 1
 541 333 469 160 300 69 c 128
 205 18 86 -6 -65 -6 c 1
 -27 272 l 1
 168 272 254 359 292 521 c 1
 438 1127 l 1
1555 444 m 0
 1555 544 1478 593 1374 593 c 2
 1255 593 l 1
 1204 236 l 1
 1332 235 l 2
 1437 235 1509 295 1540 370 c 128
 1550 395 1555 419 1555 444 c 0
EndSplineSet
EndChar

StartChar: afii10107
Encoding: 1114 1114 407
Width: 1851
Flags: HW
LayerCount: 2
Fore
SplineSet
943 1127 m 1
 1250 1127 l 1
 1206 832 l 1
 1359 833 l 2
 1557 835 1691 733 1748 592 c 128
 1767 546 1776 498 1776 449 c 0
 1776 314 1709 211 1626 142 c 128
 1517 51 1355 0 1148 0 c 2
 782 0 l 1
 849 479 l 1
 405 479 l 1
 336 0 l 1
 30 0 l 1
 191 1127 l 1
 498 1127 l 1
 435 694 l 1
 881 694 l 1
 943 1127 l 1
1473 444 m 0
 1473 544 1396 593 1292 593 c 2
 1173 593 l 1
 1122 236 l 1
 1250 235 l 2
 1355 235 1427 295 1458 370 c 128
 1468 395 1473 419 1473 444 c 0
EndSplineSet
EndChar

StartChar: afii10108
Encoding: 1115 1115 408
Width: 1327
Flags: HW
LayerCount: 2
Fore
SplineSet
873 729 m 0
 880 835 830 916 731 916 c 0
 642 916 585 899 534 863 c 128
 519 852 503 841 486 829 c 1
 369 0 l 1
 30 0 l 1
 204 1224 l 1
 16 1224 l 1
 47 1449 l 1
 236 1449 l 1
 260 1619 l 1
 607 1678 l 1
 573 1449 l 1
 1093 1449 l 1
 1060 1224 l 1
 540 1224 l 1
 509 996 l 1
 591 1087 691 1145 854 1145 c 0
 1100 1145 1227 1004 1210 744 c 128
 1204 647 1185 549 1172 452 c 128
 1151 300 1128 152 1108 0 c 1
 769 0 l 1
 805 258 833 477 872 719 c 128
 873 723 873 725 873 726 c 128
 873 727 873 727 873 729 c 0
EndSplineSet
EndChar

StartChar: afii10193
Encoding: 1119 1119 412
Width: 1310
Flags: HW
LayerCount: 2
Fore
SplineSet
29 0 m 1
 192 1127 l 1
 498 1127 l 1
 372 251 l 1
 816 251 l 1
 943 1127 l 1
 1248 1127 l 1
 1084 0 l 1
 730 0 l 1
 681 -367 l 1
 369 -367 l 1
 418 0 l 1
 29 0 l 1
EndSplineSet
EndChar

StartChar: uni2010
Encoding: 8208 8208 424
Width: 1101
Flags: HW
LayerCount: 2
Fore
SplineSet
932 605 m 1
 129 605 l 1
 153 831 l 1
 956 831 l 1
 932 605 l 1
EndSplineSet
EndChar

StartChar: uni2011
Encoding: 8209 8209 425
Width: 1101
Flags: HW
LayerCount: 2
Fore
SplineSet
932 605 m 1
 129 605 l 1
 153 831 l 1
 956 831 l 1
 932 605 l 1
EndSplineSet
EndChar

StartChar: endash
Encoding: 8211 8211 426
Width: 1059
Flags: HW
LayerCount: 2
Fore
SplineSet
150 605 m 1
 143 831 l 1
 918 831 l 1
 926 605 l 1
 150 605 l 1
EndSplineSet
EndChar

StartChar: emdash
Encoding: 8212 8212 427
Width: 2102
Flags: HW
LayerCount: 2
Fore
SplineSet
150 605 m 1
 143 831 l 1
 1961 831 l 1
 1968 605 l 1
 150 605 l 1
EndSplineSet
EndChar

StartChar: quoteleft
Encoding: 8216 8216 428
Width: 618
Flags: HW
LayerCount: 2
Fore
SplineSet
600 1307 m 1
 557 886 l 1
 158 886 l 1
 202 1305 l 1
 220 1495 334 1607 494 1650 c 1
 574 1529 l 1
 522 1486 465 1430 433 1367 c 128
 422 1346 416 1326 415 1307 c 1
 600 1307 l 1
EndSplineSet
EndChar

StartChar: quoteright
Encoding: 8217 8217 429
Width: 585
Flags: HW
LayerCount: 2
Fore
SplineSet
179 1195 m 1
 222 1617 l 1
 621 1617 l 1
 576 1197 l 1
 554 1010 445 894 284 851 c 1
 204 973 l 1
 218 978 237 1000 250 1014 c 128
 286 1052 325 1098 349 1148 c 128
 357 1164 362 1180 363 1195 c 1
 179 1195 l 1
EndSplineSet
EndChar

StartChar: quotesinglbase
Encoding: 8218 8218 430
Width: 655
Flags: HW
LayerCount: 2
Fore
SplineSet
30 -1 m 1
 86 421 l 1
 485 421 l 1
 428 1 l 1
 404 -185 291 -304 128 -345 c 1
 49 -224 l 1
 63 -219 81 -198 95 -184 c 128
 133 -145 172 -99 198 -48 c 128
 206 -31 212 -16 214 -1 c 1
 30 -1 l 1
EndSplineSet
EndChar

StartChar: quotedblleft
Encoding: 8220 8220 431
Width: 1064
Flags: HW
LayerCount: 2
Fore
SplineSet
1046 1307 m 1
 1002 886 l 1
 603 886 l 1
 647 1305 l 2
 667 1494 779 1607 940 1650 c 1
 1020 1529 l 1
 968 1485 912 1430 879 1367 c 128
 868 1346 862 1326 861 1307 c 1
 1046 1307 l 1
600 1307 m 1
 557 886 l 1
 157 886 l 1
 201 1305 l 1
 223 1493 333 1607 494 1650 c 1
 575 1529 l 1
 521 1487 466 1430 434 1367 c 128
 424 1346 417 1326 416 1307 c 1
 600 1307 l 1
EndSplineSet
EndChar

StartChar: quotedblright
Encoding: 8221 8221 432
Width: 1032
Flags: HW
LayerCount: 2
Fore
SplineSet
179 1195 m 1
 222 1617 l 1
 621 1617 l 1
 576 1197 l 2
 556 1009 444 894 284 851 c 1
 204 973 l 1
 218 978 237 1000 250 1014 c 128
 286 1052 325 1098 349 1148 c 128
 357 1164 362 1180 363 1195 c 1
 179 1195 l 1
624 1195 m 1
 668 1617 l 1
 1067 1617 l 1
 1023 1197 l 1
 1001 1011 892 891 730 851 c 1
 649 973 l 1
 663 977 682 1001 695 1014 c 128
 732 1052 770 1098 795 1148 c 128
 803 1164 808 1180 809 1195 c 1
 624 1195 l 1
EndSplineSet
EndChar

StartChar: quotedblbase
Encoding: 8222 8222 433
Width: 1102
Flags: HW
LayerCount: 2
Fore
SplineSet
31 -1 m 1
 87 421 l 1
 487 421 l 1
 429 1 l 2
 403 -186 293 -300 130 -345 c 1
 51 -224 l 1
 65 -219 82 -197 96 -184 c 128
 134 -147 175 -98 200 -48 c 128
 208 -31 214 -16 216 -1 c 1
 31 -1 l 1
477 -1 m 1
 533 421 l 1
 932 421 l 1
 875 1 l 1
 851 -187 737 -300 575 -345 c 1
 496 -224 l 1
 510 -219 528 -197 542 -184 c 128
 580 -147 621 -98 646 -48 c 128
 654 -31 660 -16 662 -1 c 1
 477 -1 l 1
EndSplineSet
EndChar

StartChar: dagger
Encoding: 8224 8224 434
Width: 976
Flags: HW
LayerCount: 2
Fore
SplineSet
399 1022 m 1
 120 1022 l 1
 160 1246 l 1
 430 1246 l 1
 469 1524 l 1
 746 1524 l 1
 707 1244 l 1
 999 1244 l 1
 960 1022 l 1
 677 1022 l 1
 537 0 l 1
 257 0 l 1
 399 1022 l 1
EndSplineSet
EndChar

StartChar: daggerdbl
Encoding: 8225 8225 435
Width: 1048
Flags: HW
LayerCount: 2
Fore
SplineSet
637 458 m 1
 615 307 593 152 573 0 c 1
 293 0 l 1
 358 458 l 1
 71 458 l 1
 109 683 l 1
 388 683 l 1
 435 1022 l 1
 156 1022 l 1
 196 1246 l 1
 466 1246 l 1
 505 1524 l 1
 782 1524 l 1
 743 1244 l 1
 1035 1244 l 1
 996 1022 l 1
 713 1022 l 1
 666 681 l 1
 948 681 l 1
 909 458 l 1
 637 458 l 1
EndSplineSet
EndChar

StartChar: bullet
Encoding: 8226 8226 436
Width: 889
Flags: HW
LayerCount: 2
Fore
SplineSet
79 640 m 0
 79 645 79 645 79 649 c 128
 79 652 79 655 80 658 c 0
 80 777 136 873 200 938 c 128
 264 1003 359 1061 480 1061 c 0
 634 1061 737 981 786 874 c 128
 825 789 825 681 788 590 c 128
 746 488 669 408 570 362 c 128
 520 338 466 326 408 326 c 0
 256 326 153 407 106 514 c 128
 89 552 80 595 79 640 c 0
EndSplineSet
EndChar

StartChar: ellipsis
Encoding: 8230 8230 437
Width: 1397
Flags: HW
LayerCount: 2
Fore
SplineSet
223 353 m 1
 304 347 354 282 357 198 c 0
 357 183 355 170 354 156 c 1
 337 82 284 28 219 2 c 128
 197 -7 174 -11 150 -11 c 1
 71 -5 20 60 16 143 c 1
 16 206 43 259 73 295 c 1
 110 326 160 353 223 353 c 1
660 353 m 1
 741 347 791 282 794 198 c 0
 794 183 792 170 791 156 c 1
 774 83 721 27 656 2 c 128
 634 -7 610 -11 587 -11 c 1
 507 -5 456 59 453 143 c 1
 454 205 479 258 510 295 c 1
 547 326 596 353 660 353 c 1
1098 353 m 1
 1179 347 1228 282 1231 198 c 0
 1231 183 1229 170 1228 156 c 1
 1211 82 1158 28 1093 2 c 128
 1071 -7 1048 -11 1024 -11 c 1
 945 -5 894 59 891 143 c 1
 893 205 916 258 947 295 c 1
 984 326 1034 353 1098 353 c 1
EndSplineSet
EndChar

StartChar: guilsinglleft
Encoding: 8249 8249 439
Width: 901
Flags: HW
LayerCount: 2
Fore
SplineSet
809 877 m 1
 293 590 l 1
 751 291 l 1
 719 -37 l 1
 25 464 l 1
 47 706 l 1
 844 1206 l 1
 809 877 l 1
EndSplineSet
EndChar

StartChar: guilsinglright
Encoding: 8250 8250 440
Width: 902
Flags: HW
LayerCount: 2
Fore
SplineSet
139 896 m 1
 169 1206 l 1
 852 706 l 1
 833 484 l 1
 25 -17 l 1
 66 312 l 1
 547 609 l 1
 139 896 l 1
EndSplineSet
EndChar

StartChar: Euro
Encoding: 8364 8364 441
Width: 1391
Flags: HW
LayerCount: 2
Fore
SplineSet
265 456 m 0
 260 490 258 527 258 566 c 1
 100 566 l 1
 126 752 l 1
 264 752 l 1
 267 778 272 816 279 866 c 1
 101 866 l 1
 127 1052 l 1
 320 1052 l 1
 392 1299 536 1488 772 1571 c 128
 850 1598 937 1612 1034 1612 c 0
 1195 1612 1327 1569 1421 1506 c 1
 1318 1252 l 1
 1233 1295 1123 1344 990 1340 c 1
 804 1337 706 1206 647 1052 c 1
 1041 1052 l 1
 1016 866 l 1
 596 866 l 1
 589 832 585 792 581 752 c 1
 950 752 l 1
 925 566 l 1
 575 566 l 1
 578 527 580 481 589 448 c 1
 617 315 692 230 843 230 c 0
 980 230 1094 284 1176 336 c 1
 1233 92 l 1
 1138 8 975 -38 795 -38 c 0
 469 -38 299 148 264 445 c 1
 264 452 l 2
 264 453 264 455 265 456 c 0
EndSplineSet
EndChar

StartChar: afii61352
Encoding: 8470 8470 442
Width: 2978
Flags: HW
LayerCount: 2
Fore
SplineSet
2271 202 m 0
 2482 202 2543 433 2566 632 c 128
 2587 814 2561 984 2385 984 c 0
 2216 984 2150 837 2113 690 c 128
 2081 563 2058 351 2134 258 c 128
 2164 221 2210 202 2271 202 c 0
2416 1215 m 1
 2732 1212 2909 1045 2909 728 c 128
 2909 488 2828 290 2711 164 c 128
 2605 50 2451 -27 2239 -27 c 0
 1935 -27 1761 129 1745 416 c 1
 1738 581 1779 746 1834 860 c 128
 1933 1067 2116 1215 2416 1215 c 1
1043 -1 m 1
 554 1128 l 1
 395 -1 l 1
 74 -1 l 1
 302 1606 l 1
 691 1606 l 1
 1170 490 l 1
 1329 1606 l 1
 1646 1606 l 1
 1420 -1 l 1
 1043 -1 l 1
EndSplineSet
EndChar

StartChar: trademark
Encoding: 8482 8482 443
Width: 1680
Flags: HW
LayerCount: 2
Fore
SplineSet
763 1464 m 1
 557 1464 l 1
 471 754 l 1
 306 754 l 1
 393 1464 l 1
 187 1464 l 1
 202 1589 l 1
 779 1589 l 1
 763 1464 l 1
1085 754 m 1
 1057 914 l 1
 996 1349 l 1
 920 754 l 1
 769 754 l 1
 845 1365 l 1
 877 1588 l 1
 1084 1588 l 1
 1119 1368 1160 1148 1183 918 c 1
 1235 1080 1300 1229 1359 1384 c 1
 1445 1588 l 1
 1652 1588 l 1
 1626 1307 l 1
 1555 754 l 1
 1403 754 l 1
 1478 1351 l 1
 1296 876 l 1
 1244 754 l 1
 1085 754 l 1
EndSplineSet
EndChar

StartChar: uniFB00
Encoding: 64256 64256 444
Width: 1452
Flags: HW
LayerCount: 2
Fore
SplineSet
1398 1379 m 0
 1316 1379 1264 1295 1243 1127 c 1
 1492 1127 l 1
 1472 974 l 1
 1222 974 l 1
 1096 0 l 1
 792 0 l 1
 919 974 l 1
 523 974 l 1
 397 0 l 1
 93 0 l 1
 219 974 l 1
 85 974 l 1
 106 1127 l 1
 239 1127 l 1
 267 1334 347 1511 500 1592 c 128
 549 1618 606 1631 669 1631 c 0
 741 1631 807 1612 863 1593 c 1
 825 1354 l 1
 792 1371 749 1379 698 1379 c 0
 617 1379 565 1295 544 1127 c 1
 939 1127 l 1
 967 1334 1047 1511 1200 1592 c 128
 1249 1618 1305 1631 1368 1631 c 0
 1440 1631 1506 1612 1562 1593 c 1
 1524 1354 l 1
 1491 1371 1449 1379 1398 1379 c 0
EndSplineSet
Ligature2: "'liga' Standard Ligatures in Latin lookup 0 subtable" f f
EndChar

StartChar: uniFB01
Encoding: 64257 64257 445
Width: 1334
Flags: HW
LayerCount: 2
Fore
SplineSet
1108 0 m 1
 803 0 l 1
 944 974 l 1
 523 974 l 1
 397 0 l 1
 93 0 l 1
 220 974 l 1
 85 974 l 1
 106 1127 l 1
 240 1127 l 1
 268 1334 348 1511 500 1592 c 128
 549 1618 606 1631 669 1631 c 0
 741 1631 807 1612 863 1593 c 1
 825 1354 l 1
 792 1371 749 1379 698 1379 c 0
 615 1379 564 1295 544 1127 c 1
 1272 1127 l 1
 1108 0 l 1
1209 1670 m 0
 1295 1670 1351 1606 1351 1520 c 0
 1351 1423 1293 1356 1224 1326 c 128
 1202 1317 1180 1312 1157 1312 c 0
 1073 1312 1012 1375 1015 1461 c 1
 1015 1554 1074 1622 1138 1653 c 128
 1161 1664 1185 1670 1209 1670 c 0
EndSplineSet
Ligature2: "'liga' Standard Ligatures in Latin lookup 0 subtable" f i
EndChar

StartChar: uniFB02
Encoding: 64258 64258 446
Width: 1364
Flags: HW
LayerCount: 2
Fore
SplineSet
239 1127 m 1
 286 1444 463 1631 830 1631 c 0
 956 1631 1072 1607 1177 1583 c 0
 1238 1569 1299 1553 1360 1535 c 1
 1139 0 l 1
 835 0 l 1
 1032 1351 l 1
 935 1370 829 1382 708 1382 c 0
 663 1382 627 1360 600 1316 c 128
 573 1272 554 1209 543 1127 c 1
 793 1127 l 1
 772 974 l 1
 522 974 l 1
 397 0 l 1
 93 0 l 1
 219 974 l 1
 84 974 l 1
 106 1127 l 1
 239 1127 l 1
EndSplineSet
EndChar

StartChar: uniFB04
Encoding: 64260 64260 448
Width: 2097
Flags: HW
LayerCount: 2
Fore
SplineSet
833 1354 m 1
 799 1367 756 1379 706 1379 c 0
 666 1379 633 1358 606 1316 c 128
 579 1274 559 1210 548 1127 c 1
 865 1127 l 1
 842 973 l 1
 526 973 l 1
 390 0 l 1
 86 0 l 1
 222 973 l 1
 87 973 l 1
 111 1127 l 1
 244 1127 l 1
 275 1333 358 1510 512 1592 c 128
 561 1618 616 1631 679 1631 c 0
 750 1631 817 1611 873 1593 c 1
 833 1354 l 1
971 1127 m 1
 1018 1444 1195 1631 1562 1631 c 0
 1688 1631 1804 1607 1909 1583 c 0
 1970 1569 2031 1553 2092 1535 c 1
 1871 0 l 1
 1567 0 l 1
 1764 1351 l 1
 1667 1370 1561 1382 1440 1382 c 0
 1395 1382 1359 1360 1332 1316 c 128
 1305 1272 1286 1209 1275 1127 c 1
 1525 1127 l 1
 1504 974 l 1
 1254 974 l 1
 1129 0 l 1
 825 0 l 1
 951 974 l 1
 816 974 l 1
 838 1127 l 1
 971 1127 l 1
EndSplineSet
EndChar

StartChar: t_t
Encoding: 65537 -1 449
Width: 1552
Flags: HW
LayerCount: 2
Fore
SplineSet
1164 304 m 0
 1164 236 1188 187 1256 187 c 0
 1322 187 1378 214 1421 236 c 1
 1473 69 l 1
 1391 24 1282 -16 1150 -16 c 0
 949 -16 865 111 865 320 c 1
 866 368 871 417 878 461 c 2
 954 975 l 1
 513 975 l 1
 425 374 l 2
 422 352 420 327 420 304 c 0
 420 236 444 187 512 187 c 0
 578 187 634 214 677 236 c 1
 729 69 l 1
 647 28 542 -15 413 -15 c 1
 204 -24 121 114 121 320 c 0
 121 368 127 417 134 461 c 2
 210 975 l 1
 85 975 l 1
 107 1127 l 1
 241 1127 l 1
 297 1526 l 1
 606 1608 l 1
 534 1127 l 1
 985 1127 l 1
 1041 1526 l 1
 1350 1608 l 1
 1278 1127 l 1
 1538 1127 l 1
 1515 975 l 1
 1257 975 l 1
 1169 374 l 2
 1166 352 1164 327 1164 304 c 0
EndSplineSet
Ligature2: "'liga' Standard Ligatures in Latin lookup 0 subtable" t t
EndChar

StartChar: f_j
Encoding: 65538 -1 450
Width: 1392
Flags: HW
LayerCount: 2
Fore
SplineSet
671 -129 m 1
 764 -70 834 -12 872 100 c 128
 884 134 893 175 899 222 c 2
 998 974 l 1
 523 974 l 1
 397 0 l 1
 93 0 l 1
 219 974 l 1
 84 974 l 1
 106 1127 l 1
 239 1127 l 1
 268 1334 346 1511 500 1592 c 128
 549 1618 606 1631 669 1631 c 0
 741 1631 807 1612 863 1593 c 1
 825 1354 l 1
 792 1371 749 1379 698 1379 c 0
 617 1379 565 1295 543 1127 c 1
 1324 1127 l 1
 1202 202 l 1
 1169 -20 1051 -189 895 -287 c 128
 843 -320 789 -343 732 -357 c 1
 671 -129 l 1
1234 1670 m 0
 1319 1670 1378 1605 1378 1520 c 1
 1389 1428 1318 1354 1254 1326 c 128
 1233 1317 1210 1312 1187 1312 c 0
 1101 1312 1043 1375 1043 1461 c 0
 1043 1553 1099 1622 1162 1653 c 128
 1185 1664 1209 1670 1234 1670 c 0
EndSplineSet
Ligature2: "'liga' Standard Ligatures in Latin lookup 0 subtable" f j
EndChar

StartChar: breve
Encoding: 728 728 451
Width: 1249
Flags: HW
LayerCount: 2
Fore
SplineSet
702 202 m 0
 818 202 851 277 868 388 c 1
 1070 388 l 1
 1030 175 919 63 678 63 c 0
 500 63 384 136 384 305 c 0
 384 330 387 358 393 388 c 1
 597 388 l 1
 593 366 591 344 591 322 c 0
 591 245 624 202 702 202 c 0
EndSplineSet
EndChar

StartChar: dotaccent
Encoding: 729 729 452
Width: 722
Flags: HW
LayerCount: 2
Fore
SplineSet
414 467 m 0
 505 467 565 398 565 307 c 0
 565 204 502 132 429 101 c 128
 406 91 382 86 357 86 c 0
 267 86 204 153 207 245 c 1
 207 343 270 416 337 449 c 128
 362 461 387 467 414 467 c 0
EndSplineSet
EndChar

StartChar: commaaccent
Encoding: 65539 -1 453
Width: 730
Flags: HW
LayerCount: 2
Fore
SplineSet
96 -533 m 1
 155 -111 l 1
 555 -111 l 1
 494 -531 l 1
 468 -718 356 -834 191 -877 c 1
 115 -756 l 1
 129 -751 146 -730 160 -716 c 128
 198 -678 240 -631 266 -580 c 128
 274 -563 279 -548 281 -533 c 1
 96 -533 l 1
EndSplineSet
EndChar

StartChar: ogonek
Encoding: 731 731 456
Width: 399
Flags: HW
LayerCount: 2
Fore
SplineSet
269 -451 m 0
 328 -451 396 -429 433 -408 c 1
 447 -541 l 1
 390 -577 321 -604 237 -604 c 0
 105 -604 18 -540 -24 -447 c 128
 -40 -412 -48 -372 -48 -327 c 0
 -48 -204 27 -126 96 -70 c 0
 138 -35 186 -5 240 20 c 1
 362 20 l 1
 283 -42 217 -107 166 -194 c 128
 148 -226 129 -265 129 -310 c 0
 129 -403 178 -451 269 -451 c 0
EndSplineSet
EndChar

StartChar: hungarumlaut
Encoding: 733 733 457
Width: 1806
Flags: HW
LayerCount: 2
Fore
SplineSet
546 96 m 1
 368 96 l 1
 527 792 l 1
 869 792 l 1
 546 96 l 1
985 96 m 1
 807 96 l 1
 966 792 l 1
 1308 792 l 1
 985 96 l 1
EndSplineSet
EndChar

StartChar: macron
Encoding: 65540 -1 458
Width: 1101
Flags: HW
LayerCount: 2
Fore
SplineSet
958 150 m 1
 157 150 l 1
 188 376 l 1
 991 376 l 1
 958 150 l 1
EndSplineSet
EndChar

StartChar: Hbar
Encoding: 294 294 467
Width: 1532
Flags: HW
LayerCount: 2
Fore
SplineSet
1576 1196 m 1
 144 1196 l 1
 175 1422 l 1
 1609 1422 l 1
 1576 1196 l 1
958 0 m 1
 1067 724 l 1
 485 724 l 1
 378 0 l 1
 62 0 l 1
 302 1606 l 1
 617 1606 l 1
 519 951 l 1
 1098 951 l 1
 1198 1606 l 1
 1509 1606 l 1
 1269 0 l 1
 958 0 l 1
EndSplineSet
EndChar

StartChar: dotlessi
Encoding: 305 305 469
Width: 559
Flags: HW
LayerCount: 2
Fore
SplineSet
333 0 m 1
 28 0 l 1
 192 1127 l 1
 497 1127 l 1
 333 0 l 1
EndSplineSet
EndChar

StartChar: jcircumflex
Encoding: 309 309 470
Width: 562
Flags: HW
LayerCount: 2
Fore
SplineSet
-158 -129 m 1
 -66 -70 6 -12 43 100 c 128
 54 134 63 175 69 222 c 2
 189 1127 l 1
 495 1127 l 1
 372 202 l 1
 339 -20 221 -189 65 -287 c 128
 13 -320 -41 -343 -98 -357 c 1
 -158 -129 l 1
351 1970 m 1
 570 1970 l 1
 741 1331 l 1
 498 1331 l 1
 429 1650 l 1
 282 1331 l 1
 26 1331 l 1
 351 1970 l 1
EndSplineSet
EndChar

StartChar: itilde
Encoding: 297 297 472
Width: 559
Flags: HW
LayerCount: 2
Fore
SplineSet
333 0 m 1
 28 0 l 1
 192 1127 l 1
 497 1127 l 1
 333 0 l 1
532 1452 m 0
 593 1452 591 1502 600 1557 c 1
 801 1557 l 1
 787 1422 740 1309 644 1258 c 128
 616 1243 585 1235 552 1235 c 0
 468 1235 401 1275 349 1310 c 128
 320 1329 294 1346 270 1362 c 128
 246 1378 225 1386 205 1386 c 256
 150 1386 140 1327 133 1261 c 1
 -58 1261 l 1
 -41 1442 19 1596 194 1596 c 0
 276 1596 335 1559 384 1524 c 128
 410 1506 434 1489 457 1474 c 128
 480 1459 505 1452 532 1452 c 0
EndSplineSet
EndChar

StartChar: Eng
Encoding: 330 330 474
Width: 1568
Flags: HW
LayerCount: 2
Fore
SplineSet
643 -409 m 1
 814 -380 933 -337 971 -186 c 128
 981 -146 990 -99 997 -45 c 1
 986 0 l 1
 818 375 669 770 514 1158 c 1
 353 0 l 1
 61 0 l 1
 294 1605 l 1
 631 1605 l 1
 793 1225 947 836 1103 450 c 1
 1256 1605 l 1
 1549 1605 l 1
 1315 0 l 1
 1286 -230 1229 -417 1077 -526 c 128
 982 -594 856 -631 696 -642 c 1
 643 -409 l 1
EndSplineSet
EndChar

StartChar: eng
Encoding: 331 331 475
Width: 1182
Flags: HW
LayerCount: 2
Fore
SplineSet
766 1144 m 0
 982 1144 1075 1036 1075 820 c 0
 1075 772 1070 732 1064 686 c 2
 993 202 l 2
 960 -20 842 -189 686 -287 c 128
 634 -320 580 -343 523 -357 c 1
 463 -129 l 1
 556 -70 626 -11 663 100 c 128
 686 169 701 297 712 373 c 128
 730 492 743 591 762 702 c 0
 766 732 768 757 768 778 c 0
 768 873 738 916 644 916 c 0
 564 916 495 875 453 831 c 1
 332 0 l 1
 28 0 l 1
 192 1127 l 1
 423 1127 l 1
 458 980 l 1
 509 1047 587 1104 678 1131 c 128
 707 1140 737 1144 766 1144 c 0
EndSplineSet
EndChar

StartChar: imacron
Encoding: 299 299 476
Width: 559
Flags: HW
LayerCount: 2
Fore
SplineSet
333 0 m 1
 28 0 l 1
 192 1127 l 1
 497 1127 l 1
 333 0 l 1
771 1290 m 1
 -30 1290 l 1
 1 1516 l 1
 804 1516 l 1
 771 1290 l 1
EndSplineSet
EndChar

StartChar: afii10050
Encoding: 1168 1168 477
Width: 1071
Flags: HW
LayerCount: 2
Fore
SplineSet
1163 1387 m 1
 941 1387 l 1
 1000 1802 l 1
 1222 1802 l 1
 1163 1387 l 1
1194 1606 m 1
 1164 1387 l 1
 580 1387 l 1
 374 0 l 1
 57 0 l 1
 298 1606 l 1
 1194 1606 l 1
EndSplineSet
EndChar

StartChar: hook
Encoding: 65545 -1 483
Width: 689
Flags: HW
LayerCount: 2
Fore
SplineSet
243 -378 m 0
 443 -378 469 -181 454 28 c 1
 621 0 l 1
 647 -256 565 -463 390 -540 c 128
 347 -559 297 -568 241 -568 c 0
 142 -568 61 -543 -19 -509 c 1
 7 -319 l 1
 83 -352 154 -378 243 -378 c 0
EndSplineSet
EndChar

StartChar: tail
Encoding: 65546 -1 484
Width: 625
Flags: HW
LayerCount: 2
Fore
SplineSet
507 -498 m 1
 202 -498 l 1
 279 55 l 1
 584 55 l 1
 507 -498 l 1
EndSplineSet
EndChar

StartChar: uni0311
Encoding: 785 785 486
Width: 1249
Flags: HW
LayerCount: 2
Fore
SplineSet
702 243 m 0
 818 243 851 318 868 429 c 1
 1070 429 l 1
 1066 425 l 1
 1030 214 916 104 678 104 c 0
 484 104 369 181 386 380 c 128
 387 395 390 412 393 429 c 1
 597 429 l 1
 593 401 587 370 593 340 c 1
 599 271 625 243 702 243 c 0
EndSplineSet
EndChar

StartChar: uni049A
Encoding: 1178 1178 487
Width: 1445
Flags: HW
LayerCount: 2
Fore
SplineSet
1370 -408 m 1
 1148 -408 l 1
 1211 36 l 1
 1433 36 l 1
 1370 -408 l 1
374 0 m 1
 58 0 l 1
 298 1606 l 1
 613 1606 l 1
 510 912 l 1
 748 912 l 1
 1163 1606 l 1
 1504 1606 l 1
 1150 1045 l 1
 1079 931 1018 840 870 811 c 1
 992 792 1025 709 1068 606 c 1
 1330 0 l 1
 986 0 l 1
 710 696 l 1
 477 696 l 1
 374 0 l 1
EndSplineSet
EndChar

StartChar: uni049B
Encoding: 1179 1179 488
Width: 1362
Flags: HW
LayerCount: 2
Fore
SplineSet
1240 -408 m 1
 1018 -408 l 1
 1081 36 l 1
 1303 36 l 1
 1240 -408 l 1
497 1127 m 1
 435 703 l 1
 671 703 l 1
 938 1127 l 1
 1305 1127 l 1
 1053 764 l 2
 1022 720 961 681 913 654 c 128
 871 630 832 607 778 604 c 1
 819 592 863 585 896 562 c 128
 944 528 980 481 1007 414 c 2
 1170 0 l 1
 811 0 l 1
 653 470 l 1
 402 470 l 1
 333 0 l 1
 28 0 l 1
 192 1127 l 1
 497 1127 l 1
EndSplineSet
EndChar

StartChar: uni049C
Encoding: 1180 1180 489
Width: 1419
Flags: HW
LayerCount: 2
Fore
SplineSet
687 383 m 1
 515 383 l 1
 634 1227 l 1
 806 1227 l 1
 687 383 l 1
374 0 m 1
 58 0 l 1
 298 1606 l 1
 613 1606 l 1
 510 912 l 1
 748 912 l 1
 1163 1606 l 1
 1504 1606 l 1
 1150 1045 l 1
 1079 931 1018 840 870 811 c 1
 992 792 1025 709 1068 606 c 1
 1330 0 l 1
 986 0 l 1
 710 696 l 1
 477 696 l 1
 374 0 l 1
EndSplineSet
EndChar

StartChar: uni049D
Encoding: 1181 1181 490
Width: 1287
Flags: HW
LayerCount: 2
Fore
SplineSet
611 272 m 1
 439 272 l 1
 536 966 l 1
 708 966 l 1
 611 272 l 1
497 1127 m 1
 435 703 l 1
 671 703 l 1
 938 1127 l 1
 1305 1127 l 1
 1053 764 l 2
 1022 720 961 681 913 654 c 128
 871 630 832 607 778 604 c 1
 819 592 863 585 896 562 c 128
 944 528 980 481 1007 414 c 2
 1170 0 l 1
 811 0 l 1
 653 470 l 1
 402 470 l 1
 333 0 l 1
 28 0 l 1
 192 1127 l 1
 497 1127 l 1
EndSplineSet
EndChar

StartChar: uni049E
Encoding: 1182 1182 491
Width: 1500
Flags: HW
LayerCount: 2
Fore
SplineSet
74 1199 m 1
 104 1411 l 1
 916 1411 l 1
 886 1199 l 1
 74 1199 l 1
455 0 m 1
 139 0 l 1
 379 1606 l 1
 694 1606 l 1
 591 912 l 1
 829 912 l 1
 1244 1606 l 1
 1585 1606 l 1
 1231 1045 l 1
 1160 931 1099 840 951 811 c 1
 1073 792 1106 709 1149 606 c 1
 1411 0 l 1
 1067 0 l 1
 791 696 l 1
 558 696 l 1
 455 0 l 1
EndSplineSet
EndChar

StartChar: uni049F
Encoding: 1183 1183 492
Width: 1406
Flags: HW
LayerCount: 2
Fore
SplineSet
50 879 m 1
 77 1071 l 1
 789 1071 l 1
 762 879 l 1
 50 879 l 1
616 1127 m 1
 554 703 l 1
 790 703 l 1
 1057 1127 l 1
 1424 1127 l 1
 1172 764 l 2
 1141 720 1080 681 1032 654 c 128
 990 630 951 607 897 604 c 1
 938 592 983 585 1016 562 c 128
 1064 528 1099 481 1126 414 c 1
 1289 0 l 1
 930 0 l 1
 772 470 l 1
 521 470 l 1
 452 0 l 1
 147 0 l 1
 311 1127 l 1
 616 1127 l 1
EndSplineSet
EndChar

StartChar: uni04A0
Encoding: 1184 1184 493
Width: 1474
Flags: HW
LayerCount: 2
Fore
SplineSet
81 1395 m 1
 111 1607 l 1
 668 1607 l 1
 638 1395 l 1
 81 1395 l 1
429 0 m 1
 113 0 l 1
 353 1606 l 1
 668 1606 l 1
 565 912 l 1
 803 912 l 1
 1218 1606 l 1
 1559 1606 l 1
 1205 1045 l 1
 1134 931 1073 840 925 811 c 1
 1047 792 1080 709 1123 606 c 1
 1385 0 l 1
 1041 0 l 1
 765 696 l 1
 532 696 l 1
 429 0 l 1
EndSplineSet
EndChar

StartChar: uni04A1
Encoding: 1185 1185 494
Width: 1404
Flags: HW
LayerCount: 2
Fore
SplineSet
75 935 m 1
 102 1127 l 1
 608 1127 l 1
 581 935 l 1
 75 935 l 1
614 1127 m 1
 552 703 l 1
 788 703 l 1
 1055 1127 l 1
 1422 1127 l 1
 1170 764 l 2
 1139 720 1078 681 1030 654 c 128
 988 630 949 607 895 604 c 1
 936 592 981 585 1014 562 c 128
 1062 528 1097 481 1124 414 c 1
 1287 0 l 1
 928 0 l 1
 770 470 l 1
 519 470 l 1
 450 0 l 1
 145 0 l 1
 309 1127 l 1
 614 1127 l 1
EndSplineSet
EndChar

StartChar: uni04A2
Encoding: 1186 1186 495
Width: 1529
Flags: HW
LayerCount: 2
Fore
SplineSet
1390 -408 m 1
 1168 -408 l 1
 1231 36 l 1
 1453 36 l 1
 1390 -408 l 1
953 0 m 1
 1062 724 l 1
 480 724 l 1
 373 0 l 1
 57 0 l 1
 297 1606 l 1
 612 1606 l 1
 514 951 l 1
 1093 951 l 1
 1193 1606 l 1
 1504 1606 l 1
 1264 0 l 1
 953 0 l 1
EndSplineSet
EndChar

StartChar: uni04A3
Encoding: 1187 1187 496
Width: 1325
Flags: HW
LayerCount: 2
Fore
SplineSet
1194 -408 m 1
 972 -408 l 1
 1035 36 l 1
 1257 36 l 1
 1194 -408 l 1
434 699 m 1
 890 699 l 1
 953 1127 l 1
 1256 1127 l 1
 1094 0 l 1
 789 0 l 1
 853 448 l 1
 398 448 l 1
 333 0 l 1
 28 0 l 1
 192 1127 l 1
 497 1127 l 1
 434 699 l 1
EndSplineSet
EndChar

StartChar: uni04A4
Encoding: 1188 1188 497
Width: 1668
Flags: HW
LayerCount: 2
Fore
SplineSet
1814 1606 m 1
 1782 1384 l 1
 1338 1384 l 1
 1370 1606 l 1
 1814 1606 l 1
953 0 m 1
 1062 724 l 1
 480 724 l 1
 373 0 l 1
 57 0 l 1
 297 1606 l 1
 612 1606 l 1
 514 951 l 1
 1093 951 l 1
 1193 1606 l 1
 1504 1606 l 1
 1264 0 l 1
 953 0 l 1
EndSplineSet
EndChar

StartChar: uni04A5
Encoding: 1189 1189 498
Width: 1515
Flags: HW
LayerCount: 2
Fore
SplineSet
1576 1127 m 1
 1545 905 l 1
 1121 905 l 1
 1152 1127 l 1
 1576 1127 l 1
434 699 m 1
 890 699 l 1
 953 1127 l 1
 1256 1127 l 1
 1094 0 l 1
 789 0 l 1
 853 448 l 1
 398 448 l 1
 333 0 l 1
 28 0 l 1
 192 1127 l 1
 497 1127 l 1
 434 699 l 1
EndSplineSet
EndChar

StartChar: uni04A8
Encoding: 1192 1192 499
Width: 1520
Flags: HW
LayerCount: 2
Fore
SplineSet
1085 1003 m 0
 1308 1003 1449 901 1449 683 c 0
 1449 522 1384 392 1316 290 c 128
 1244 182 1145 77 1011 37 c 1
 935 288 l 1
 1049 320 1127 430 1162 540 c 128
 1174 577 1180 611 1180 642 c 0
 1180 711 1153 764 1084 764 c 0
 1040 764 1004 735 980 705 c 128
 941 656 920 584 920 490 c 0
 920 292 1030 162 1172 100 c 128
 1227 76 1291 63 1364 62 c 1
 1365 -176 l 1
 1119 -176 933 -89 812 37 c 128
 706 147 627 308 627 508 c 0
 627 734 730 892 888 964 c 128
 945 990 1011 1003 1085 1003 c 0
648 -38 m 0
 275 -38 100 187 100 565 c 0
 100 1069 261 1461 638 1590 c 128
 715 1616 802 1629 898 1629 c 0
 1042 1629 1164 1594 1254 1544 c 128
 1275 1532 1289 1525 1297 1522 c 1
 1191 1265 l 1
 1187 1266 1176 1270 1158 1280 c 128
 1084 1319 980 1356 864 1356 c 0
 703 1356 603 1256 538 1144 c 128
 459 1008 419 813 419 595 c 0
 419 353 513 232 701 232 c 0
 841 232 955 290 1042 341 c 1
 1097 94 l 1
 993 12 835 -38 648 -38 c 0
EndSplineSet
EndChar

StartChar: uni04A9
Encoding: 1193 1193 500
Width: 1210
Flags: HW
LayerCount: 2
Fore
SplineSet
856 773 m 0
 1015 773 1117 700 1117 544 c 0
 1117 436 1070 340 1022 270 c 128
 969 192 892 115 805 75 c 1
 775 283 l 1
 855 324 924 398 924 515 c 0
 924 564 904 602 855 602 c 0
 798 602 766 548 750 500 c 128
 742 475 738 443 738 406 c 0
 738 264 817 171 918 126 c 128
 958 108 1004 100 1056 99 c 1
 1056 -71 l 1
 801 -71 632 55 562 238 c 128
 540 297 528 357 528 419 c 0
 528 581 602 693 715 745 c 128
 756 764 803 773 856 773 c 0
827 88 m 1
 722 28 616 -14 455 -17 c 1
 250 -15 124 91 71 248 c 128
 21 396 47 600 100 732 c 128
 166 895 277 1025 428 1095 c 128
 500 1128 573 1145 650 1145 c 0
 805 1145 895 1104 988 1043 c 1
 895 829 l 1
 865 868 793 893 736 907 c 128
 712 913 689 916 666 916 c 0
 454 916 393 761 363 575 c 1
 356 541 352 504 352 464 c 0
 348 297 420 213 568 213 c 0
 653 213 722 247 773 280 c 128
 790 291 790 291 807 302 c 1
 827 88 l 1
EndSplineSet
EndChar

StartChar: uni04AA
Encoding: 1194 1194 501
Width: 1226
Flags: HW
LayerCount: 2
Fore
SplineSet
783 -615 m 0
 700 -615 632 -596 584 -563 c 1
 584 -437 l 1
 635 -454 693 -476 757 -476 c 0
 827 -476 869 -454 869 -383 c 0
 869 -348 849 -312 834 -282 c 128
 779 -171 721 -84 650 19 c 1
 760 19 l 1
 839 -42 900 -102 960 -176 c 128
 992 -216 1022 -263 1040 -314 c 128
 1048 -337 1052 -360 1052 -383 c 0
 1052 -537 938 -615 783 -615 c 0
648 -38 m 0
 275 -38 100 187 100 565 c 0
 100 1069 261 1461 638 1590 c 128
 715 1616 802 1629 898 1629 c 0
 1042 1629 1164 1594 1254 1544 c 128
 1275 1532 1289 1525 1297 1522 c 1
 1191 1265 l 1
 1187 1266 1176 1270 1158 1280 c 128
 1084 1319 980 1356 864 1356 c 0
 703 1356 603 1256 538 1144 c 128
 459 1008 419 813 419 595 c 0
 419 353 513 232 701 232 c 0
 841 232 955 290 1042 341 c 1
 1097 94 l 1
 993 12 835 -38 648 -38 c 0
EndSplineSet
EndChar

StartChar: uni04AB
Encoding: 1195 1195 502
Width: 987
Flags: HW
LayerCount: 2
Fore
SplineSet
515 -615 m 0
 432 -615 364 -596 316 -563 c 1
 316 -437 l 1
 367 -454 425 -476 489 -476 c 0
 559 -476 601 -454 601 -383 c 0
 601 -348 581 -312 566 -282 c 128
 511 -171 453 -84 382 19 c 1
 492 19 l 1
 571 -42 632 -102 692 -176 c 128
 724 -216 754 -263 772 -314 c 128
 780 -337 784 -360 784 -383 c 0
 784 -537 670 -615 515 -615 c 0
829 88 m 1
 724 28 618 -14 457 -17 c 1
 252 -15 126 91 73 248 c 128
 23 396 49 600 102 732 c 128
 168 895 279 1025 430 1095 c 128
 502 1128 575 1145 652 1145 c 0
 807 1145 897 1104 990 1043 c 1
 897 829 l 1
 867 868 795 893 738 907 c 128
 714 913 691 916 668 916 c 0
 456 916 395 761 365 575 c 1
 358 541 354 504 354 464 c 0
 350 297 422 213 570 213 c 0
 655 213 724 247 775 280 c 128
 792 291 792 291 809 302 c 1
 829 88 l 1
EndSplineSet
EndChar

StartChar: uni04AC
Encoding: 1196 1196 503
Width: 1182
Flags: HW
LayerCount: 2
Fore
SplineSet
762 -408 m 1
 540 -408 l 1
 603 36 l 1
 825 36 l 1
 762 -408 l 1
1255 1372 m 1
 868 1372 l 1
 655 0 l 1
 346 0 l 1
 558 1372 l 1
 147 1372 l 1
 180 1606 l 1
 1289 1606 l 1
 1255 1372 l 1
EndSplineSet
EndChar

StartChar: uni04AD
Encoding: 1197 1197 504
Width: 1133
Flags: HW
LayerCount: 2
Fore
SplineSet
756 -408 m 1
 534 -408 l 1
 597 36 l 1
 819 36 l 1
 756 -408 l 1
1124 877 m 1
 757 877 l 1
 629 0 l 1
 324 0 l 1
 452 877 l 1
 66 877 l 1
 101 1127 l 1
 1159 1127 l 1
 1124 877 l 1
EndSplineSet
EndChar

StartChar: uni04AF
Encoding: 1199 1199 506
Width: 1110
Flags: HW
LayerCount: 2
Fore
SplineSet
615 0 m 1
 291 0 l 1
 336 337 l 1
 56 1127 l 1
 444 1127 l 1
 542 636 l 1
 796 1127 l 1
 1184 1127 l 1
 662 337 l 1
 615 0 l 1
EndSplineSet
EndChar

StartChar: uni04B2
Encoding: 1202 1202 509
Width: 1385
Flags: HW
LayerCount: 2
Fore
SplineSet
1265 -408 m 1
 1043 -408 l 1
 1106 36 l 1
 1328 36 l 1
 1265 -408 l 1
850 804 m 1
 1197 0 l 1
 844 0 l 1
 633 516 l 1
 272 0 l 1
 -80 0 l 1
 494 804 l 1
 145 1606 l 1
 500 1606 l 1
 709 1083 l 1
 1071 1606 l 1
 1426 1606 l 1
 850 804 l 1
EndSplineSet
EndChar

StartChar: uni04B3
Encoding: 1203 1203 510
Width: 1125
Flags: HW
LayerCount: 2
Fore
SplineSet
979 -408 m 1
 757 -408 l 1
 820 36 l 1
 1042 36 l 1
 979 -408 l 1
468 341 m 1
 249 0 l 1
 -59 0 l 1
 347 567 l 1
 85 1127 l 1
 398 1127 l 1
 531 804 l 1
 751 1127 l 1
 1059 1127 l 1
 652 567 l 1
 904 0 l 1
 601 0 l 1
 468 341 l 1
EndSplineSet
EndChar

StartChar: uni048C
Encoding: 1164 1164 515
Width: 1437
Flags: HW
LayerCount: 2
Fore
SplineSet
145 1287 m 1
 168 1449 l 1
 897 1449 l 1
 874 1287 l 1
 145 1287 l 1
684 1606 m 1
 597 1034 l 1
 733 1034 l 2
 948 1034 1116 984 1228 890 c 128
 1316 817 1379 710 1379 565 c 0
 1379 391 1303 268 1208 180 c 128
 1083 64 894 0 651 0 c 2
 128 0 l 1
 372 1606 l 1
 684 1606 l 1
1055 574 m 0
 1055 776 864 815 662 815 c 2
 563 815 l 1
 477 215 l 1
 617 215 l 2
 879 215 1055 311 1055 574 c 0
EndSplineSet
EndChar

StartChar: uni048D
Encoding: 1165 1165 516
Width: 1168
Flags: HW
LayerCount: 2
Fore
SplineSet
72 905 m 1
 88 1043 l 1
 708 1043 l 1
 692 905 l 1
 72 905 l 1
260 1127 m 1
 567 1127 l 1
 523 832 l 1
 676 833 l 2
 874 835 1008 733 1065 592 c 128
 1084 546 1093 498 1093 449 c 0
 1093 314 1027 211 944 142 c 128
 835 51 672 0 465 0 c 2
 99 0 l 1
 260 1127 l 1
790 444 m 0
 790 544 713 593 609 593 c 2
 490 593 l 1
 439 236 l 1
 567 235 l 2
 672 235 743 295 774 370 c 128
 784 395 790 419 790 444 c 0
EndSplineSet
EndChar

StartChar: uni048E
Encoding: 1166 1166 517
Width: 1299
Flags: HW
LayerCount: 2
Fore
SplineSet
612 980 m 1
 804 1091 l 1
 1169 459 l 1
 976 348 l 1
 612 980 l 1
1025 1151 m 0
 1025 1338 863 1373 668 1373 c 2
 575 1373 l 1
 498 803 l 1
 562 803 l 2
 841 803 1025 890 1025 1151 c 0
704 1606 m 2
 1055 1606 1330 1529 1327 1185 c 0
 1323 849 1167 688 882 630 c 128
 782 610 663 600 525 600 c 2
 460 600 l 1
 372 0 l 1
 58 0 l 1
 297 1606 l 1
 704 1606 l 2
EndSplineSet
EndChar

StartChar: uni048F
Encoding: 1167 1167 518
Width: 1200
Flags: HW
LayerCount: 2
Fore
SplineSet
493 352 m 1
 685 463 l 1
 1050 -169 l 1
 857 -280 l 1
 493 352 l 1
575 -17 m 0
 460 -17 388 37 351 120 c 1
 272 -407 l 1
 -33 -410 l 1
 194 1127 l 1
 425 1127 l 1
 460 979 l 1
 511 1050 586 1108 680 1134 c 128
 708 1142 736 1145 764 1145 c 0
 1016 1142 1120 966 1117 708 c 0
 1115 401 998 157 802 42 c 128
 735 3 660 -17 575 -17 c 0
378 309 m 1
 420 252 487 211 580 211 c 0
 665 211 712 275 741 338 c 128
 786 433 812 578 812 708 c 1
 809 846 762 915 669 915 c 0
 586 915 515 888 456 833 c 1
 378 309 l 1
EndSplineSet
EndChar

StartChar: afii10098
Encoding: 1169 1169 519
Width: 935
Flags: HW
LayerCount: 2
Fore
SplineSet
946 948 m 1
 724 948 l 1
 782 1363 l 1
 1004 1363 l 1
 946 948 l 1
28 0 m 1
 192 1127 l 1
 971 1127 l 1
 936 877 l 1
 460 877 l 1
 333 0 l 1
 28 0 l 1
EndSplineSet
EndChar

StartChar: uni0494
Encoding: 1172 1172 522
Width: 1420
Flags: HW
LayerCount: 2
Fore
SplineSet
291 1605 m 1
 1434 1605 l 1
 1398 1354 l 1
 654 1354 l 1
 606 1018 l 1
 709 1018 827 1022 926 1012 c 128
 1173 986 1330 869 1286 567 c 2
 1233 191 l 2
 1203 -28 1111 -198 935 -266 c 128
 883 -286 826 -296 764 -296 c 0
 670 -296 596 -282 539 -246 c 1
 591 -38 l 1
 642 -48 l 1
 779 -48 834 43 852 170 c 2
 912 593 l 2
 941 799 781 834 580 834 c 1
 463 0 l 1
 64 0 l 1
 291 1605 l 1
EndSplineSet
EndChar

StartChar: uni0495
Encoding: 1173 1173 523
Width: 1286
Flags: HW
LayerCount: 2
Fore
SplineSet
714 -22 m 128
 737 64 766 210 748 316 c 128
 725 451 638 520 482 520 c 1
 409 0 l 1
 32 0 l 1
 190 1127 l 1
 1260 1127 l 1
 1235 948 l 1
 542 948 l 1
 508 706 l 1
 822 706 1068 596 1122 334 c 128
 1133 279 1134 216 1124 147 c 0
 1083 -149 980 -399 754 -503 c 128
 687 -534 611 -549 527 -549 c 2
 495 -549 l 1
 475 -272 l 1
 569 -272 624 -219 661 -154 c 128
 682 -117 700 -74 714 -22 c 128
EndSplineSet
EndChar

StartChar: uni0496
Encoding: 1174 1174 524
Width: 2240
Flags: HW
LayerCount: 2
Fore
SplineSet
2178 -408 m 1
 1956 -408 l 1
 2019 36 l 1
 2241 36 l 1
 2178 -408 l 1
935 696 m 1
 826 696 l 1
 222 0 l 1
 -130 0 l 1
 394 605 l 1
 477 697 547 789 691 811 c 1
 561 838 506 939 448 1045 c 1
 152 1606 l 1
 496 1606 l 1
 849 912 l 1
 965 912 l 1
 1070 1606 l 1
 1381 1606 l 1
 1277 912 l 1
 1393 912 l 1
 1941 1606 l 1
 2286 1606 l 1
 1828 1045 l 2
 1744 942 1670 841 1522 811 c 1
 1648 791 1702 700 1760 606 c 1
 2115 0 l 1
 1763 0 l 1
 1354 696 l 1
 1245 696 l 1
 1141 0 l 1
 830 0 l 1
 935 696 l 1
EndSplineSet
EndChar

StartChar: uni0497
Encoding: 1175 1175 525
Width: 1863
Flags: HW
LayerCount: 2
Fore
SplineSet
1753 -408 m 1
 1531 -408 l 1
 1594 36 l 1
 1816 36 l 1
 1753 -408 l 1
647 0 m 1
 713 456 l 1
 631 456 l 1
 293 0 l 1
 -84 0 l 1
 277 422 l 2
 341 497 427 538 529 568 c 1
 387 601 338 688 269 800 c 128
 203 907 143 1007 65 1127 c 1
 451 1127 l 1
 675 670 l 1
 745 670 l 1
 811 1127 l 1
 1114 1127 l 1
 1047 671 l 1
 1113 671 l 1
 1465 1127 l 1
 1851 1127 l 1
 1744 1001 1660 897 1564 789 c 128
 1505 723 1459 674 1394 630 c 128
 1346 598 1302 580 1235 568 c 1
 1322 540 1397 497 1441 422 c 2
 1685 0 l 1
 1309 0 l 1
 1096 456 l 1
 1016 456 l 1
 950 0 l 1
 647 0 l 1
EndSplineSet
EndChar

StartChar: uni0498
Encoding: 1176 1176 526
Width: 1307
Flags: HW
LayerCount: 2
Fore
SplineSet
552 -615 m 0
 469 -615 401 -596 353 -563 c 1
 353 -437 l 1
 404 -454 462 -476 526 -476 c 0
 596 -476 638 -454 638 -383 c 0
 638 -348 619 -312 604 -282 c 128
 549 -171 490 -84 419 19 c 1
 529 19 l 1
 608 -42 668 -102 728 -176 c 128
 760 -216 790 -263 808 -314 c 128
 816 -337 821 -360 821 -383 c 0
 821 -537 707 -615 552 -615 c 0
178 1515 m 1
 328 1580 513 1631 733 1631 c 0
 967 1631 1157 1589 1245 1444 c 128
 1274 1397 1288 1337 1288 1265 c 0
 1288 1081 1186 941 1070 867 c 128
 1027 840 982 823 934 818 c 1
 1038 804 1110 718 1146 630 c 128
 1161 593 1169 552 1169 506 c 0
 1169 94 835 -38 425 -38 c 0
 238 -38 85 7 -34 71 c 1
 79 327 l 1
 184 271 317 227 480 227 c 0
 641 227 771 280 826 382 c 128
 842 411 849 441 849 471 c 0
 849 541 810 590 764 623 c 128
 703 667 615 691 506 691 c 2
 288 691 l 1
 327 933 l 1
 567 933 l 2
 737 933 882 979 941 1084 c 128
 957 1112 965 1141 965 1170 c 0
 965 1271 887 1326 806 1352 c 128
 771 1363 730 1369 685 1369 c 0
 523 1369 370 1336 256 1293 c 128
 231 1284 219 1279 218 1279 c 2
 178 1515 l 1
EndSplineSet
EndChar

StartChar: uni0499
Encoding: 1177 1177 527
Width: 1017
Flags: HW
LayerCount: 2
Fore
SplineSet
406 -557 m 0
 329 -557 270 -539 225 -510 c 1
 225 -395 l 1
 270 -411 325 -431 382 -431 c 256
 445 -431 484 -410 484 -346 c 0
 484 -314 466 -281 453 -254 c 128
 404 -154 349 -74 285 19 c 1
 385 19 l 1
 474 -52 550 -124 608 -220 c 128
 629 -255 650 -296 650 -346 c 0
 650 -485 546 -557 406 -557 c 0
81 344 m 1
 156 281 257 236 395 236 c 0
 468 236 528 261 558 303 c 128
 568 316 573 331 573 346 c 0
 573 388 538 412 502 428 c 128
 439 456 355 466 255 466 c 0
 238 466 238 466 222 466 c 128
 211 466 199 466 187 465 c 1
 221 645 l 1
 263 641 301 639 336 639 c 0
 462 639 581 660 630 730 c 128
 642 747 648 763 648 780 c 0
 648 858 557 892 476 892 c 0
 360 892 249 846 176 803 c 128
 157 792 148 785 148 784 c 2
 113 1027 l 1
 254 1101 396 1146 594 1146 c 0
 764 1146 885 1083 931 964 c 128
 944 930 951 895 951 859 c 0
 951 751 900 669 838 620 c 128
 814 601 788 588 759 579 c 1
 760 580 l 1
 759 580 l 1
 831 544 880 469 880 363 c 0
 880 254 830 167 766 108 c 128
 685 33 563 -17 404 -17 c 0
 217 -17 90 19 -24 103 c 1
 81 344 l 1
EndSplineSet
EndChar

StartChar: uni04B6
Encoding: 1206 1206 533
Width: 1331
Flags: HW
LayerCount: 2
Fore
SplineSet
1133 -408 m 1
 911 -408 l 1
 974 36 l 1
 1196 36 l 1
 1133 -408 l 1
801 536 m 1
 719 446 621 389 459 389 c 0
 183 389 76 577 126 864 c 1
 236 1606 l 1
 551 1606 l 1
 438 844 l 2
 420 726 465 617 581 617 c 0
 671 617 731 635 781 672 c 128
 796 683 811 694 826 706 c 1
 960 1606 l 1
 1271 1606 l 1
 1031 0 l 1
 720 0 l 1
 801 536 l 1
EndSplineSet
EndChar

StartChar: uni04B7
Encoding: 1207 1207 534
Width: 1175
Flags: HW
LayerCount: 2
Fore
SplineSet
1028 -408 m 1
 806 -408 l 1
 869 36 l 1
 1091 36 l 1
 1028 -408 l 1
377 691 m 0
 377 602 413 553 503 553 c 0
 541 553 575 561 604 578 c 128
 633 595 665 617 698 646 c 1
 767 1127 l 1
 1072 1127 l 1
 909 0 l 1
 604 0 l 1
 673 480 l 1
 626 380 526 300 382 300 c 0
 232 300 143 391 100 506 c 128
 82 554 73 611 73 677 c 0
 73 712 76 751 82 793 c 2
 131 1127 l 1
 435 1127 l 1
 383 764 l 2
 379 738 377 714 377 691 c 0
EndSplineSet
EndChar

StartChar: uni04B8
Encoding: 1208 1208 535
Width: 1286
Flags: HW
LayerCount: 2
Fore
SplineSet
648 232 m 1
 466 232 l 1
 545 796 l 1
 727 796 l 1
 648 232 l 1
801 536 m 1
 719 446 621 389 459 389 c 0
 183 389 76 577 126 864 c 1
 236 1606 l 1
 551 1606 l 1
 438 844 l 2
 420 726 465 617 581 617 c 0
 671 617 731 635 781 672 c 128
 796 683 811 694 826 706 c 1
 960 1606 l 1
 1271 1606 l 1
 1031 0 l 1
 720 0 l 1
 801 536 l 1
EndSplineSet
EndChar

StartChar: uni04B9
Encoding: 1209 1209 536
Width: 1135
Flags: HW
LayerCount: 2
Fore
SplineSet
556 232 m 1
 374 232 l 1
 453 796 l 1
 635 796 l 1
 556 232 l 1
377 691 m 0
 377 602 413 553 503 553 c 0
 541 553 575 561 604 578 c 128
 633 595 665 617 698 646 c 1
 767 1127 l 1
 1072 1127 l 1
 909 0 l 1
 604 0 l 1
 673 480 l 1
 626 380 526 300 382 300 c 0
 232 300 143 391 100 506 c 128
 82 554 73 611 73 677 c 0
 73 712 76 751 82 793 c 2
 131 1127 l 1
 435 1127 l 1
 383 764 l 2
 379 738 377 714 377 691 c 0
EndSplineSet
EndChar

StartChar: uni04BC
Encoding: 1212 1212 539
Width: 1933
Flags: HW
LayerCount: 2
Fore
SplineSet
504 464 m 128
 474 663 514 919 572 1070 c 128
 656 1287 800 1455 994 1557 c 128
 1099 1612 1220 1644 1357 1658 c 1
 1739 1617 1981 1394 1919 938 c 0
 1908 865 1889 788 1862 705 c 1
 891 705 l 1
 867 401 966 249 1187 249 c 0
 1312 249 1433 287 1548 362 c 1
 1615 83 l 1
 1567 43 1484 16 1407 -2 c 128
 1320 -23 1212 -37 1107 -37 c 0
 748 -37 551 152 504 464 c 128
1579 950 m 1
 1585 972 1589 993 1593 1017 c 1
 1620 1223 1530 1364 1333 1364 c 0
 1167 1364 1050 1268 984 1160 c 128
 949 1102 928 1036 928 950 c 1
 1579 950 l 1
463 1202 m 1
 407 1202 370 1167 349 1131 c 128
 318 1080 338 1023 378 994 c 128
 422 962 486 949 569 949 c 1
 532 708 l 1
 373 708 249 749 169 821 c 128
 110 875 65 956 80 1062 c 0
 100 1202 204 1290 325 1333 c 128
 372 1350 426 1358 485 1358 c 1
 463 1202 l 1
EndSplineSet
EndChar

StartChar: uni04BD
Encoding: 1213 1213 540
Width: 1380
Flags: HW
LayerCount: 2
Fore
SplineSet
379 936 m 1
 295 936 211 879 250 790 c 128
 281 720 381 696 487 696 c 1
 458 512 l 1
 314 512 202 547 130 613 c 128
 76 662 38 734 51 830 c 0
 68 952 158 1032 263 1070 c 128
 304 1085 350 1092 401 1092 c 1
 379 936 l 1
682 653 m 1
 788 655 873 659 954 674 c 128
 998 682 1033 690 1056 710 c 128
 1067 720 1071 729 1071 745 c 0
 1071 872 1020 936 918 935 c 0
 765 935 702 788 682 653 c 1
885 199 m 0
 1009 199 1099 238 1178 292 c 1
 1211 78 l 1
 1086 15 958 -16 829 -17 c 1
 598 -15 437 73 368 238 c 128
 345 293 333 357 333 428 c 0
 333 756 482 989 708 1094 c 128
 785 1130 871 1147 965 1145 c 1
 1210 1145 1328 992 1328 749 c 0
 1328 682 1289 643 1243 609 c 128
 1171 555 1064 529 940 511 c 128
 864 500 771 494 660 493 c 1
 658 474 656 456 656 436 c 0
 656 289 738 199 885 199 c 0
EndSplineSet
EndChar

StartChar: uni04C5
Encoding: 1221 1221 546
Width: 1704
Flags: HW
LayerCount: 2
Fore
SplineSet
1537 -408 m 1
 1315 -408 l 1
 1378 36 l 1
 1600 36 l 1
 1537 -408 l 1
1407 0 m 1
 1096 0 l 1
 1302 1386 l 1
 731 1386 l 1
 649 838 l 1
 602 535 545 257 344 110 c 128
 241 35 104 -3 -77 -3 c 1
 -30 323 l 1
 105 335 200 370 251 462 c 128
 303 557 312 691 332 823 c 2
 449 1606 l 1
 1646 1606 l 1
 1407 0 l 1
EndSplineSet
EndChar

StartChar: uni04C6
Encoding: 1222 1222 547
Width: 1480
Flags: HW
LayerCount: 2
Fore
SplineSet
1342 -408 m 1
 1120 -408 l 1
 1183 36 l 1
 1405 36 l 1
 1342 -408 l 1
1200 0 m 1
 895 0 l 1
 1022 877 l 1
 722 877 l 1
 644 572 l 1
 588 349 506 166 318 75 c 128
 215 25 87 2 -71 2 c 1
 -25 328 l 1
 188 328 292 404 337 577 c 1
 478 1127 l 1
 1363 1127 l 1
 1200 0 l 1
EndSplineSet
EndChar

StartChar: uni04C9
Encoding: 1225 1225 550
Width: 1559
Flags: HW
LayerCount: 2
Fore
SplineSet
1357 -408 m 1
 1135 -408 l 1
 1198 36 l 1
 1420 36 l 1
 1357 -408 l 1
953 0 m 1
 1062 724 l 1
 480 724 l 1
 373 0 l 1
 57 0 l 1
 297 1606 l 1
 612 1606 l 1
 514 951 l 1
 1093 951 l 1
 1193 1606 l 1
 1504 1606 l 1
 1264 0 l 1
 953 0 l 1
EndSplineSet
EndChar

StartChar: uni04CA
Encoding: 1226 1226 551
Width: 1373
Flags: HW
LayerCount: 2
Fore
SplineSet
1235 -408 m 1
 1013 -408 l 1
 1076 36 l 1
 1298 36 l 1
 1235 -408 l 1
434 699 m 1
 890 699 l 1
 953 1127 l 1
 1256 1127 l 1
 1094 0 l 1
 789 0 l 1
 853 448 l 1
 398 448 l 1
 333 0 l 1
 28 0 l 1
 192 1127 l 1
 497 1127 l 1
 434 699 l 1
EndSplineSet
EndChar

StartChar: uni04CB
Encoding: 1227 1227 552
Width: 1286
Flags: HW
LayerCount: 2
Fore
SplineSet
717 -408 m 1
 495 -408 l 1
 558 36 l 1
 780 36 l 1
 717 -408 l 1
801 536 m 1
 719 446 621 389 459 389 c 0
 183 389 76 577 126 864 c 1
 236 1606 l 1
 551 1606 l 1
 438 844 l 2
 420 726 465 617 581 617 c 0
 671 617 731 635 781 672 c 128
 796 683 811 694 826 706 c 1
 960 1606 l 1
 1271 1606 l 1
 1031 0 l 1
 720 0 l 1
 801 536 l 1
EndSplineSet
EndChar

StartChar: uni04CC
Encoding: 1228 1228 553
Width: 1135
Flags: HW
LayerCount: 2
Fore
SplineSet
598 -408 m 1
 376 -408 l 1
 439 36 l 1
 661 36 l 1
 598 -408 l 1
377 691 m 0
 377 602 413 553 503 553 c 0
 541 553 575 561 604 578 c 128
 633 595 665 617 698 646 c 1
 767 1127 l 1
 1072 1127 l 1
 909 0 l 1
 604 0 l 1
 673 480 l 1
 626 380 526 300 382 300 c 0
 232 300 143 391 100 506 c 128
 82 554 73 611 73 677 c 0
 73 712 76 751 82 793 c 2
 131 1127 l 1
 435 1127 l 1
 383 764 l 2
 379 738 377 714 377 691 c 0
EndSplineSet
EndChar

StartChar: uni04CD
Encoding: 1229 1229 554
Width: 1830
Flags: HW
LayerCount: 2
Fore
SplineSet
1685 -408 m 1
 1463 -408 l 1
 1526 36 l 1
 1748 36 l 1
 1685 -408 l 1
677 0 m 1
 627 307 l 1
 514 1159 l 1
 348 0 l 1
 63 0 l 1
 119 396 173 780 229 1176 c 1
 298 1606 l 1
 685 1606 l 1
 752 1173 l 1
 836 561 l 1
 862 310 l 1
 972 623 1105 913 1227 1214 c 1
 1398 1606 l 1
 1786 1606 l 1
 1726 1063 l 1
 1574 0 l 1
 1287 0 l 1
 1451 1163 l 1
 1076 233 l 1
 969 0 l 1
 677 0 l 1
EndSplineSet
EndChar

StartChar: uni04CE
Encoding: 1230 1230 555
Width: 1774
Flags: HW
LayerCount: 2
Fore
SplineSet
1622 -408 m 1
 1400 -408 l 1
 1463 36 l 1
 1685 36 l 1
 1622 -408 l 1
1672 1127 m 1
 1508 0 l 1
 1204 0 l 1
 1310 739 l 1
 930 0 l 1
 594 0 l 1
 440 739 l 1
 333 0 l 1
 28 0 l 1
 192 1127 l 1
 633 1127 l 1
 805 337 l 1
 1196 1127 l 1
 1672 1127 l 1
EndSplineSet
EndChar

StartChar: uni04E0
Encoding: 1248 1248 556
Width: 1136
Flags: HW
LayerCount: 2
Fore
SplineSet
86 318 m 1
 146 291 237 270 325 270 c 0
 504 270 618 350 641 509 c 0
 660 634 583 710 492 746 c 128
 452 762 402 769 342 769 c 0
 312 769 280 767 247 763 c 1
 277 981 l 1
 689 1351 l 1
 207 1351 l 1
 247 1632 l 1
 1145 1632 l 1
 1109 1378 l 1
 628 964 l 1
 788 941 908 889 976 789 c 128
 1070 651 1033 400 954 268 c 128
 847 88 642 -19 358 -19 c 0
 210 -19 82 8 -42 46 c 1
 86 318 l 1
EndSplineSet
EndChar

StartChar: uni04E1
Encoding: 1249 1249 557
Width: 1016
Flags: HW
LayerCount: 2
Fore
SplineSet
0 44 m 1
 75 16 165 -18 272 -18 c 0
 371 -18 441 45 476 111 c 128
 497 151 511 199 492 248 c 128
 460 331 347 356 226 356 c 1
 257 574 l 1
 508 844 l 1
 89 844 l 1
 128 1125 l 1
 963 1125 l 1
 927 871 l 1
 576 557 l 1
 718 516 829 426 860 280 c 128
 884 165 853 76 806 -6 c 128
 741 -120 631 -205 494 -255 c 128
 421 -282 338 -295 245 -295 c 0
 100 -295 -33 -275 -128 -228 c 1
 0 44 l 1
EndSplineSet
EndChar

StartChar: uni04E8
Encoding: 1256 1256 558
Width: 1649
Flags: HW
LayerCount: 2
Fore
SplineSet
1592 1168 m 128
 1628 926 1566 633 1492 461 c 128
 1368 173 1134 -28 730 -28 c 256
 236 -28 35 282 108 811 c 1
 162 1192 324 1479 633 1600 c 128
 731 1638 842 1657 966 1657 c 0
 1333 1657 1544 1486 1592 1168 c 128
1205 1029 m 0
 1205 1232 1129 1371 925 1371 c 0
 776 1371 688 1299 628 1204 c 128
 577 1124 545 1022 523 912 c 1
 1201 912 l 1
 1204 952 1205 991 1205 1029 c 0
491 602 m 0
 491 399 565 258 770 258 c 0
 920 258 1012 332 1072 428 c 128
 1104 480 1129 540 1147 607 c 0
 1155 634 1162 662 1167 690 c 1
 493 690 l 1
 492 660 491 631 491 602 c 0
EndSplineSet
EndChar

StartChar: uni04CF
Encoding: 1231 1231 628
Width: 859
Flags: HW
LayerCount: 2
Fore
SplineSet
170 181 m 1
 287 1016 l 1
 115 1016 l 1
 141 1198 l 1
 864 1198 l 1
 838 1016 l 1
 664 1016 l 1
 547 181 l 1
 721 181 l 1
 696 0 l 1
 -27 0 l 1
 -2 181 l 1
 170 181 l 1
EndSplineSet
EndChar

StartChar: uni04D8
Encoding: 1240 1240 635
Width: 1525
Flags: HW
LayerCount: 2
Fore
SplineSet
1472 1158 m 128
 1502 959 1462 703 1404 552 c 128
 1320 335 1176 166 982 64 c 128
 881 11 761 -28 620 -28 c 0
 356 -28 179 103 98 289 c 128
 51 396 36 528 57 683 c 0
 68 755 87 833 114 916 c 1
 1085 916 l 1
 1108 1220 1010 1372 789 1372 c 0
 664 1372 543 1334 428 1259 c 1
 361 1538 l 1
 409 1578 492 1604 569 1622 c 128
 656 1643 764 1658 870 1658 c 0
 1228 1658 1425 1469 1472 1158 c 128
1048 671 m 1
 397 671 l 1
 391 649 387 628 383 604 c 1
 356 398 446 257 643 257 c 0
 809 257 926 354 992 462 c 128
 1027 520 1048 585 1048 671 c 1
EndSplineSet
EndChar

StartChar: uni04F6
Encoding: 1270 1270 658
Width: 1073
Flags: HW
LayerCount: 2
Fore
SplineSet
486 -408 m 1
 264 -408 l 1
 327 36 l 1
 549 36 l 1
 486 -408 l 1
1194 1606 m 1
 1164 1387 l 1
 580 1387 l 1
 374 0 l 1
 57 0 l 1
 298 1606 l 1
 1194 1606 l 1
EndSplineSet
EndChar

StartChar: uni04F7
Encoding: 1271 1271 659
Width: 939
Flags: HW
LayerCount: 2
Fore
SplineSet
459 -408 m 1
 237 -408 l 1
 300 36 l 1
 522 36 l 1
 459 -408 l 1
28 0 m 1
 192 1127 l 1
 971 1127 l 1
 936 877 l 1
 460 877 l 1
 333 0 l 1
 28 0 l 1
EndSplineSet
EndChar

StartChar: kgreenlandic
Encoding: 312 312 662
Width: 1134
Flags: HW
LayerCount: 2
Fore
SplineSet
389 408 m 1
 331 0 l 1
 28 0 l 1
 192 1127 l 1
 496 1126 l 1
 433 707 l 1
 824 1127 l 1
 1161 1127 l 1
 689 632 l 1
 1048 0 l 1
 726 0 l 1
 460 474 l 1
 389 408 l 1
EndSplineSet
EndChar

StartChar: afii00208
Encoding: 8213 8213 677
Width: 2102
Flags: HW
LayerCount: 2
Fore
SplineSet
150 605 m 1
 143 831 l 1
 1961 831 l 1
 1968 605 l 1
 150 605 l 1
EndSplineSet
EndChar
